<?xml version="1.0" encoding="utf-8"?>
<svg xmlns="http://www.w3.org/2000/svg" xmlns:xlink="http://www.w3.org/1999/xlink" width="1000" height="500" viewBox="0 0 4000 2000">
<defs>
  <clipPath id="clip700">
    <rect x="0" y="0" width="4000" height="2000"/>
  </clipPath>
</defs>
<path clip-path="url(#clip700)" d="M0 2000 L4000 2000 L4000 0 L0 0  Z" fill="#ffffff" fill-rule="evenodd" fill-opacity="1"/>
<defs>
  <clipPath id="clip701">
    <rect x="800" y="0" width="2801" height="2000"/>
  </clipPath>
</defs>
<path clip-path="url(#clip700)" d="M164.899 1839.7 L1953.1 1839.7 L1953.1 47.2441 L164.899 47.2441  Z" fill="#ffffff" fill-rule="evenodd" fill-opacity="1"/>
<defs>
  <clipPath id="clip702">
    <rect x="164" y="47" width="1789" height="1793"/>
  </clipPath>
</defs>
<polyline clip-path="url(#clip702)" style="stroke:#000000; stroke-linecap:round; stroke-linejoin:round; stroke-width:2; stroke-opacity:0.1; fill:none" points="402.951,1839.7 402.951,47.2441 "/>
<polyline clip-path="url(#clip702)" style="stroke:#000000; stroke-linecap:round; stroke-linejoin:round; stroke-width:2; stroke-opacity:0.1; fill:none" points="777.836,1839.7 777.836,47.2441 "/>
<polyline clip-path="url(#clip702)" style="stroke:#000000; stroke-linecap:round; stroke-linejoin:round; stroke-width:2; stroke-opacity:0.1; fill:none" points="1152.72,1839.7 1152.72,47.2441 "/>
<polyline clip-path="url(#clip702)" style="stroke:#000000; stroke-linecap:round; stroke-linejoin:round; stroke-width:2; stroke-opacity:0.1; fill:none" points="1527.61,1839.7 1527.61,47.2441 "/>
<polyline clip-path="url(#clip702)" style="stroke:#000000; stroke-linecap:round; stroke-linejoin:round; stroke-width:2; stroke-opacity:0.1; fill:none" points="1902.49,1839.7 1902.49,47.2441 "/>
<polyline clip-path="url(#clip700)" style="stroke:#000000; stroke-linecap:round; stroke-linejoin:round; stroke-width:4; stroke-opacity:1; fill:none" points="164.899,1839.7 1953.1,1839.7 "/>
<polyline clip-path="url(#clip700)" style="stroke:#000000; stroke-linecap:round; stroke-linejoin:round; stroke-width:4; stroke-opacity:1; fill:none" points="402.951,1839.7 402.951,1820.8 "/>
<polyline clip-path="url(#clip700)" style="stroke:#000000; stroke-linecap:round; stroke-linejoin:round; stroke-width:4; stroke-opacity:1; fill:none" points="777.836,1839.7 777.836,1820.8 "/>
<polyline clip-path="url(#clip700)" style="stroke:#000000; stroke-linecap:round; stroke-linejoin:round; stroke-width:4; stroke-opacity:1; fill:none" points="1152.72,1839.7 1152.72,1820.8 "/>
<polyline clip-path="url(#clip700)" style="stroke:#000000; stroke-linecap:round; stroke-linejoin:round; stroke-width:4; stroke-opacity:1; fill:none" points="1527.61,1839.7 1527.61,1820.8 "/>
<polyline clip-path="url(#clip700)" style="stroke:#000000; stroke-linecap:round; stroke-linejoin:round; stroke-width:4; stroke-opacity:1; fill:none" points="1902.49,1839.7 1902.49,1820.8 "/>
<path clip-path="url(#clip700)" d="M392.847 1914.9 Q392.847 1913.99 392.921 1913.71 Q393.02 1913.44 393.415 1913.02 L403.124 1902.2 Q408.435 1896.22 408.435 1891.01 Q408.435 1887.63 406.656 1885.21 Q404.902 1882.79 401.666 1882.79 Q399.443 1882.79 397.566 1884.14 Q395.688 1885.5 394.824 1887.92 Q394.972 1887.87 395.491 1887.87 Q396.75 1887.87 397.442 1888.66 Q398.158 1889.46 398.158 1890.52 Q398.158 1891.88 397.269 1892.54 Q396.405 1893.19 395.54 1893.19 Q395.194 1893.19 394.725 1893.11 Q394.28 1893.04 393.564 1892.35 Q392.847 1891.63 392.847 1890.37 Q392.847 1886.84 395.515 1884.02 Q398.208 1881.2 402.309 1881.2 Q406.953 1881.2 409.991 1883.97 Q413.055 1886.71 413.055 1891.01 Q413.055 1892.52 412.585 1893.9 Q412.141 1895.26 411.523 1896.32 Q410.93 1897.39 409.3 1899.09 Q407.669 1900.79 406.36 1902 Q405.051 1903.22 402.111 1905.78 L396.75 1911 L405.866 1911 Q410.313 1911 410.658 1910.6 Q411.152 1909.89 411.77 1906.11 L413.055 1906.11 L411.622 1914.9 L392.847 1914.9 Z" fill="#000000" fill-rule="nonzero" fill-opacity="1" /><path clip-path="url(#clip700)" d="M766.621 1906.55 L766.621 1904.99 L782.159 1881.25 Q782.555 1880.64 783.172 1880.66 Q783.74 1880.66 783.864 1880.88 Q783.987 1881.11 783.987 1881.97 L783.987 1904.99 L789.052 1904.99 L789.052 1906.55 L783.987 1906.55 L783.987 1910.95 Q783.987 1912.4 784.58 1912.87 Q785.198 1913.34 787.816 1913.34 L788.879 1913.34 L788.879 1914.9 Q786.804 1914.75 782.011 1914.75 Q777.243 1914.75 775.168 1914.9 L775.168 1913.34 L776.231 1913.34 Q778.849 1913.34 779.467 1912.9 Q780.084 1912.43 780.084 1910.95 L780.084 1906.55 L766.621 1906.55 M768.054 1904.99 L780.381 1904.99 L780.381 1886.12 L768.054 1904.99 Z" fill="#000000" fill-rule="nonzero" fill-opacity="1" /><path clip-path="url(#clip700)" d="M1142.22 1898.92 Q1142.22 1890.96 1146.27 1886.1 Q1150.33 1881.2 1155.54 1881.2 Q1158.58 1881.2 1160.26 1882.76 Q1161.96 1884.29 1161.96 1886.66 Q1161.96 1887.97 1161.19 1888.54 Q1160.43 1889.11 1159.64 1889.11 Q1158.72 1889.11 1158.01 1888.49 Q1157.29 1887.87 1157.29 1886.76 Q1157.29 1884.49 1160.08 1884.49 Q1158.77 1882.46 1155.64 1882.46 Q1154.67 1882.46 1153.69 1882.76 Q1152.7 1883.03 1151.41 1883.97 Q1150.13 1884.91 1149.14 1886.39 Q1148.15 1887.87 1147.46 1890.67 Q1146.77 1893.46 1146.77 1897.09 L1146.77 1898.3 Q1148.84 1893.28 1153.09 1893.31 Q1157.34 1893.31 1160.28 1896.55 Q1163.22 1899.78 1163.22 1904.57 Q1163.22 1909.49 1160.16 1912.75 Q1157.09 1916.01 1152.8 1916.01 Q1150.87 1916.01 1149.11 1915.2 Q1147.39 1914.41 1145.76 1912.58 Q1144.15 1910.75 1143.19 1907.24 Q1142.22 1903.73 1142.22 1898.92 M1146.87 1903.46 Q1146.87 1908.43 1147.78 1910.8 Q1147.93 1911.19 1148.25 1911.74 Q1148.6 1912.28 1149.16 1913 Q1149.76 1913.69 1150.72 1914.16 Q1151.68 1914.6 1152.8 1914.6 Q1156.18 1914.6 1157.81 1911.32 Q1158.68 1909.49 1158.68 1904.52 Q1158.68 1899.46 1157.76 1897.61 Q1156.2 1894.47 1153.04 1894.47 Q1150.92 1894.47 1149.44 1895.93 Q1147.98 1897.39 1147.41 1899.34 Q1146.87 1901.29 1146.87 1903.46 Z" fill="#000000" fill-rule="nonzero" fill-opacity="1" /><path clip-path="url(#clip700)" d="M1517.11 1907.27 Q1517.11 1901.61 1524.4 1897.95 Q1521.26 1895.83 1520.69 1895.21 Q1518.47 1892.74 1518.47 1889.65 Q1518.47 1886.12 1521.13 1883.67 Q1523.83 1881.2 1527.63 1881.2 Q1531.26 1881.2 1534.01 1883.3 Q1536.75 1885.4 1536.75 1888.74 Q1536.75 1893.43 1530.62 1896.59 Q1534.67 1899.11 1535.64 1900.18 Q1538.11 1902.92 1538.11 1906.4 Q1538.11 1910.45 1534.99 1913.24 Q1531.88 1916.01 1527.58 1916.01 Q1523.38 1916.01 1520.25 1913.57 Q1517.11 1911.12 1517.11 1907.27 M1519.63 1907.27 Q1519.63 1910.4 1521.97 1912.5 Q1524.35 1914.6 1527.63 1914.6 Q1530.82 1914.6 1533.19 1912.78 Q1535.59 1910.95 1535.59 1908.23 Q1535.59 1907.17 1535.22 1906.25 Q1534.87 1905.34 1534.15 1904.62 Q1533.46 1903.88 1533.02 1903.56 Q1532.6 1903.22 1531.78 1902.65 L1525.56 1898.72 Q1519.63 1902 1519.63 1907.27 M1520.69 1887.68 Q1520.69 1890.1 1523.23 1891.78 L1529.51 1895.83 Q1534.52 1892.89 1534.52 1888.74 Q1534.52 1886.05 1532.47 1884.27 Q1530.42 1882.46 1527.58 1882.46 Q1524.79 1882.46 1522.74 1883.95 Q1520.69 1885.4 1520.69 1887.68 Z" fill="#000000" fill-rule="nonzero" fill-opacity="1" /><path clip-path="url(#clip700)" d="M1880.46 1886.02 L1880.46 1884.44 Q1886.53 1884.44 1889.67 1881.2 Q1890.54 1881.2 1890.68 1881.4 Q1890.83 1881.6 1890.83 1882.51 L1890.83 1910.9 Q1890.83 1912.4 1891.57 1912.87 Q1892.31 1913.34 1895.55 1913.34 L1897.16 1913.34 L1897.16 1914.9 Q1895.38 1914.75 1888.95 1914.75 Q1882.53 1914.75 1880.78 1914.9 L1880.78 1913.34 L1882.38 1913.34 Q1885.57 1913.34 1886.34 1912.9 Q1887.1 1912.43 1887.1 1910.9 L1887.1 1884.69 Q1884.46 1886.02 1880.46 1886.02 Z" fill="#000000" fill-rule="nonzero" fill-opacity="1" /><path clip-path="url(#clip700)" d="M1903.23 1898.72 Q1903.23 1891.28 1905.11 1887.23 Q1907.73 1881.2 1913.91 1881.2 Q1915.21 1881.2 1916.57 1881.58 Q1917.96 1881.92 1919.69 1883.28 Q1921.44 1884.64 1922.5 1886.86 Q1924.53 1891.16 1924.53 1898.72 Q1924.53 1906.11 1922.65 1910.13 Q1919.91 1916.01 1913.86 1916.01 Q1911.58 1916.01 1909.26 1914.85 Q1906.96 1913.69 1905.51 1910.9 Q1903.23 1906.72 1903.23 1898.72 M1907.43 1898.1 Q1907.43 1905.73 1907.98 1908.77 Q1908.59 1912.06 1910.27 1913.49 Q1911.98 1914.9 1913.86 1914.9 Q1915.88 1914.9 1917.56 1913.39 Q1919.27 1911.86 1919.78 1908.58 Q1920.35 1905.34 1920.33 1898.1 Q1920.33 1891.06 1919.83 1888.24 Q1919.17 1884.96 1917.39 1883.65 Q1915.63 1882.32 1913.86 1882.32 Q1913.19 1882.32 1912.47 1882.51 Q1911.78 1882.71 1910.77 1883.28 Q1909.76 1883.85 1908.96 1885.26 Q1908.2 1886.66 1907.83 1888.79 Q1907.43 1891.53 1907.43 1898.1 Z" fill="#000000" fill-rule="nonzero" fill-opacity="1" /><path clip-path="url(#clip700)" d="M1048.11 1980.74 L1048.11 1979.22 Q1051.31 1979.08 1053.41 1976.84 Q1055.55 1974.56 1056.27 1971.78 Q1057.01 1968.99 1057.08 1965.77 L1058.81 1965.77 L1058.81 1978.57 L1068.77 1978.57 L1068.77 1980.74 L1058.81 1980.74 L1058.81 2000.07 Q1058.81 2007.58 1063.5 2007.58 Q1065.5 2007.58 1066.83 2005.54 Q1068.15 2003.47 1068.15 1999.8 L1068.15 1995.96 L1069.89 1995.96 L1069.89 1999.94 Q1069.89 2003.71 1068.15 2006.53 Q1066.42 2009.35 1062.99 2009.35 Q1061.73 2009.35 1060.48 2009.01 Q1059.26 2008.7 1057.62 2007.88 Q1056.03 2007.04 1055.01 2005 Q1054.02 2002.93 1054.02 1999.94 L1054.02 1980.74 L1048.11 1980.74 Z" fill="#000000" fill-rule="nonzero" fill-opacity="1" /><polyline clip-path="url(#clip702)" style="stroke:#000000; stroke-linecap:round; stroke-linejoin:round; stroke-width:2; stroke-opacity:0.1; fill:none" points="164.899,1734.18 1953.1,1734.18 "/>
<polyline clip-path="url(#clip702)" style="stroke:#000000; stroke-linecap:round; stroke-linejoin:round; stroke-width:2; stroke-opacity:0.1; fill:none" points="164.899,1470.61 1953.1,1470.61 "/>
<polyline clip-path="url(#clip702)" style="stroke:#000000; stroke-linecap:round; stroke-linejoin:round; stroke-width:2; stroke-opacity:0.1; fill:none" points="164.899,1207.04 1953.1,1207.04 "/>
<polyline clip-path="url(#clip702)" style="stroke:#000000; stroke-linecap:round; stroke-linejoin:round; stroke-width:2; stroke-opacity:0.1; fill:none" points="164.899,943.472 1953.1,943.472 "/>
<polyline clip-path="url(#clip702)" style="stroke:#000000; stroke-linecap:round; stroke-linejoin:round; stroke-width:2; stroke-opacity:0.1; fill:none" points="164.899,679.903 1953.1,679.903 "/>
<polyline clip-path="url(#clip702)" style="stroke:#000000; stroke-linecap:round; stroke-linejoin:round; stroke-width:2; stroke-opacity:0.1; fill:none" points="164.899,416.335 1953.1,416.335 "/>
<polyline clip-path="url(#clip702)" style="stroke:#000000; stroke-linecap:round; stroke-linejoin:round; stroke-width:2; stroke-opacity:0.1; fill:none" points="164.899,152.766 1953.1,152.766 "/>
<polyline clip-path="url(#clip700)" style="stroke:#000000; stroke-linecap:round; stroke-linejoin:round; stroke-width:4; stroke-opacity:1; fill:none" points="164.899,1839.7 164.899,47.2441 "/>
<polyline clip-path="url(#clip700)" style="stroke:#000000; stroke-linecap:round; stroke-linejoin:round; stroke-width:4; stroke-opacity:1; fill:none" points="164.899,1734.18 183.796,1734.18 "/>
<polyline clip-path="url(#clip700)" style="stroke:#000000; stroke-linecap:round; stroke-linejoin:round; stroke-width:4; stroke-opacity:1; fill:none" points="164.899,1470.61 183.796,1470.61 "/>
<polyline clip-path="url(#clip700)" style="stroke:#000000; stroke-linecap:round; stroke-linejoin:round; stroke-width:4; stroke-opacity:1; fill:none" points="164.899,1207.04 183.796,1207.04 "/>
<polyline clip-path="url(#clip700)" style="stroke:#000000; stroke-linecap:round; stroke-linejoin:round; stroke-width:4; stroke-opacity:1; fill:none" points="164.899,943.472 183.796,943.472 "/>
<polyline clip-path="url(#clip700)" style="stroke:#000000; stroke-linecap:round; stroke-linejoin:round; stroke-width:4; stroke-opacity:1; fill:none" points="164.899,679.903 183.796,679.903 "/>
<polyline clip-path="url(#clip700)" style="stroke:#000000; stroke-linecap:round; stroke-linejoin:round; stroke-width:4; stroke-opacity:1; fill:none" points="164.899,416.335 183.796,416.335 "/>
<polyline clip-path="url(#clip700)" style="stroke:#000000; stroke-linecap:round; stroke-linejoin:round; stroke-width:4; stroke-opacity:1; fill:none" points="164.899,152.766 183.796,152.766 "/>
<path clip-path="url(#clip700)" d="M44.7955 1735.28 Q44.7955 1727.84 46.6729 1723.79 Q49.2915 1717.76 55.4673 1717.76 Q56.7766 1717.76 58.1353 1718.13 Q59.5187 1718.48 61.2479 1719.84 Q63.0018 1721.2 64.0641 1723.42 Q66.0898 1727.72 66.0898 1735.28 Q66.0898 1742.66 64.2123 1746.69 Q61.4702 1752.57 55.4179 1752.57 Q53.1452 1752.57 50.8231 1751.41 Q48.5257 1750.25 47.0682 1747.46 Q44.7955 1743.28 44.7955 1735.28 M48.995 1734.66 Q48.995 1742.29 49.5385 1745.33 Q50.1561 1748.62 51.8359 1750.05 Q53.5405 1751.46 55.4179 1751.46 Q57.4436 1751.46 59.1234 1749.95 Q60.828 1748.42 61.3467 1745.13 Q61.9149 1741.9 61.8902 1734.66 Q61.8902 1727.62 61.3961 1724.8 Q60.7291 1721.52 58.9505 1720.21 Q57.1966 1718.87 55.4179 1718.87 Q54.7509 1718.87 54.0345 1719.07 Q53.3428 1719.27 52.33 1719.84 Q51.3172 1720.41 50.5267 1721.81 Q49.7608 1723.22 49.3903 1725.35 Q48.995 1728.09 48.995 1734.66 Z" fill="#000000" fill-rule="nonzero" fill-opacity="1" /><path clip-path="url(#clip700)" d="M73.1796 1750.64 Q72.4138 1749.83 72.4138 1748.77 Q72.4138 1747.7 73.1796 1746.94 Q73.9454 1746.15 75.1065 1746.15 Q76.2181 1746.15 76.9592 1746.89 Q77.725 1747.6 77.725 1748.79 Q77.725 1749.95 76.9098 1750.72 Q76.1193 1751.46 75.1065 1751.46 Q73.9454 1751.46 73.1796 1750.64 Z" fill="#000000" fill-rule="nonzero" fill-opacity="1" /><path clip-path="url(#clip700)" d="M84.6914 1751.46 Q84.6914 1750.54 84.7655 1750.27 Q84.8643 1750 85.2596 1749.58 L94.968 1738.76 Q100.279 1732.78 100.279 1727.57 Q100.279 1724.19 98.5006 1721.76 Q96.7466 1719.34 93.5105 1719.34 Q91.2872 1719.34 89.4097 1720.7 Q87.5323 1722.06 86.6677 1724.48 Q86.8159 1724.43 87.3347 1724.43 Q88.5945 1724.43 89.2862 1725.22 Q90.0026 1726.01 90.0026 1727.08 Q90.0026 1728.43 89.1133 1729.1 Q88.2487 1729.74 87.3841 1729.74 Q87.0382 1729.74 86.5689 1729.67 Q86.1242 1729.6 85.4078 1728.9 Q84.6914 1728.19 84.6914 1726.93 Q84.6914 1723.39 87.3594 1720.58 Q90.052 1717.76 94.1528 1717.76 Q98.797 1717.76 101.836 1720.53 Q104.899 1723.27 104.899 1727.57 Q104.899 1729.08 104.429 1730.46 Q103.985 1731.82 103.367 1732.88 Q102.774 1733.94 101.144 1735.65 Q99.5134 1737.35 98.2041 1738.56 Q96.8949 1739.77 93.9552 1742.34 L88.5945 1747.55 L97.7101 1747.55 Q102.157 1747.55 102.503 1747.16 Q102.997 1746.44 103.614 1742.66 L104.899 1742.66 L103.466 1751.46 L84.6914 1751.46 Z" fill="#000000" fill-rule="nonzero" fill-opacity="1" /><path clip-path="url(#clip700)" d="M44.4002 1471.71 Q44.4002 1464.27 46.2777 1460.22 Q48.8962 1454.19 55.0721 1454.19 Q56.3813 1454.19 57.74 1454.56 Q59.1234 1454.91 60.8527 1456.27 Q62.6066 1457.63 63.6688 1459.85 Q65.6945 1464.15 65.6945 1471.71 Q65.6945 1479.09 63.8171 1483.12 Q61.075 1489 55.0227 1489 Q52.75 1489 50.4278 1487.84 Q48.1304 1486.68 46.6729 1483.89 Q44.4002 1479.71 44.4002 1471.71 M48.5998 1471.09 Q48.5998 1478.72 49.1433 1481.76 Q49.7608 1485.05 51.4407 1486.48 Q53.1452 1487.89 55.0227 1487.89 Q57.0483 1487.89 58.7282 1486.38 Q60.4327 1484.85 60.9515 1481.57 Q61.5196 1478.33 61.4949 1471.09 Q61.4949 1464.05 61.0009 1461.23 Q60.3339 1457.95 58.5552 1456.64 Q56.8013 1455.31 55.0227 1455.31 Q54.3557 1455.31 53.6393 1455.5 Q52.9476 1455.7 51.9347 1456.27 Q50.9219 1456.84 50.1314 1458.25 Q49.3656 1459.65 48.995 1461.78 Q48.5998 1464.52 48.5998 1471.09 Z" fill="#000000" fill-rule="nonzero" fill-opacity="1" /><path clip-path="url(#clip700)" d="M72.7844 1487.07 Q72.0186 1486.26 72.0186 1485.2 Q72.0186 1484.13 72.7844 1483.37 Q73.5502 1482.58 74.7112 1482.58 Q75.8229 1482.58 76.564 1483.32 Q77.3298 1484.04 77.3298 1485.22 Q77.3298 1486.38 76.5146 1487.15 Q75.7241 1487.89 74.7112 1487.89 Q73.5502 1487.89 72.7844 1487.07 Z" fill="#000000" fill-rule="nonzero" fill-opacity="1" /><path clip-path="url(#clip700)" d="M83.9009 1481.07 Q83.9009 1479.56 84.7655 1478.85 Q85.6301 1478.13 86.7418 1478.13 Q87.9028 1478.13 88.718 1478.9 Q89.558 1479.64 89.558 1480.95 Q89.558 1482.36 88.5698 1483.15 Q87.6064 1483.94 86.223 1483.74 Q87.4335 1485.76 89.6568 1486.68 Q91.9048 1487.59 93.9799 1487.59 Q96.1538 1487.59 97.9077 1485.72 Q99.6863 1483.84 99.6863 1479.24 Q99.6863 1475.34 98.1547 1473.09 Q96.6478 1470.84 93.6587 1470.84 L91.4354 1470.84 Q90.6696 1470.84 90.4473 1470.77 Q90.2249 1470.7 90.2249 1470.28 Q90.2249 1469.78 90.9908 1469.68 Q91.7566 1469.68 92.967 1469.53 Q95.9067 1469.44 97.463 1466.89 Q98.8711 1464.52 98.8711 1461.14 Q98.8711 1458.05 97.3889 1456.76 Q95.9314 1455.45 94.0293 1455.45 Q92.2506 1455.45 90.2991 1456.19 Q88.3475 1456.94 87.2852 1458.59 Q90.4226 1458.59 90.4226 1461.14 Q90.4226 1462.25 89.7062 1462.99 Q89.0145 1463.7 87.8534 1463.7 Q86.7418 1463.7 86.0007 1463.01 Q85.2596 1462.3 85.2596 1461.09 Q85.2596 1458.2 87.8287 1456.19 Q90.4226 1454.19 94.2269 1454.19 Q97.9818 1454.19 100.749 1456.17 Q103.54 1458.15 103.54 1461.18 Q103.54 1464.17 101.564 1466.62 Q99.5875 1469.07 96.4502 1470.08 Q100.304 1470.84 102.601 1473.46 Q104.899 1476.06 104.899 1479.24 Q104.899 1483.2 101.786 1486.11 Q98.6735 1489 94.1281 1489 Q89.9285 1489 86.9147 1486.73 Q83.9009 1484.46 83.9009 1481.07 Z" fill="#000000" fill-rule="nonzero" fill-opacity="1" /><path clip-path="url(#clip700)" d="M43.6838 1208.14 Q43.6838 1200.7 45.5613 1196.65 Q48.1798 1190.63 54.3557 1190.63 Q55.6649 1190.63 57.0236 1191 Q58.407 1191.34 60.1363 1192.7 Q61.8902 1194.06 62.9524 1196.28 Q64.9781 1200.58 64.9781 1208.14 Q64.9781 1215.53 63.1007 1219.55 Q60.3586 1225.43 54.3063 1225.43 Q52.0336 1225.43 49.7114 1224.27 Q47.414 1223.11 45.9565 1220.32 Q43.6838 1216.14 43.6838 1208.14 M47.8834 1207.52 Q47.8834 1215.16 48.4269 1218.19 Q49.0444 1221.48 50.7243 1222.91 Q52.4288 1224.32 54.3063 1224.32 Q56.3319 1224.32 58.0118 1222.81 Q59.7163 1221.28 60.2351 1218 Q60.8032 1214.76 60.7785 1207.52 Q60.7785 1200.48 60.2845 1197.67 Q59.6175 1194.38 57.8388 1193.07 Q56.0849 1191.74 54.3063 1191.74 Q53.6393 1191.74 52.9229 1191.93 Q52.2312 1192.13 51.2183 1192.7 Q50.2055 1193.27 49.415 1194.68 Q48.6492 1196.08 48.2786 1198.21 Q47.8834 1200.95 47.8834 1207.52 Z" fill="#000000" fill-rule="nonzero" fill-opacity="1" /><path clip-path="url(#clip700)" d="M72.068 1223.51 Q71.3022 1222.69 71.3022 1221.63 Q71.3022 1220.57 72.068 1219.8 Q72.8338 1219.01 73.9948 1219.01 Q75.1065 1219.01 75.8476 1219.75 Q76.6134 1220.47 76.6134 1221.65 Q76.6134 1222.81 75.7982 1223.58 Q75.0077 1224.32 73.9948 1224.32 Q72.8338 1224.32 72.068 1223.51 Z" fill="#000000" fill-rule="nonzero" fill-opacity="1" /><path clip-path="url(#clip700)" d="M82.4681 1215.97 L82.4681 1214.41 L98.0065 1190.67 Q98.4018 1190.06 99.0193 1190.08 Q99.5875 1190.08 99.711 1190.3 Q99.8346 1190.53 99.8346 1191.39 L99.8346 1214.41 L104.899 1214.41 L104.899 1215.97 L99.8346 1215.97 L99.8346 1220.37 Q99.8346 1221.83 100.427 1222.29 Q101.045 1222.76 103.664 1222.76 L104.726 1222.76 L104.726 1224.32 Q102.651 1224.17 97.8583 1224.17 Q93.0905 1224.17 91.0155 1224.32 L91.0155 1222.76 L92.0777 1222.76 Q94.6963 1222.76 95.3138 1222.32 Q95.9314 1221.85 95.9314 1220.37 L95.9314 1215.97 L82.4681 1215.97 M83.9009 1214.41 L96.2279 1214.41 L96.2279 1195.54 L83.9009 1214.41 Z" fill="#000000" fill-rule="nonzero" fill-opacity="1" /><path clip-path="url(#clip700)" d="M44.7955 944.571 Q44.7955 937.136 46.6729 933.084 Q49.2915 927.057 55.4673 927.057 Q56.7766 927.057 58.1353 927.427 Q59.5187 927.773 61.2479 929.132 Q63.0018 930.49 64.0641 932.714 Q66.0898 937.012 66.0898 944.571 Q66.0898 951.958 64.2123 955.984 Q61.4702 961.864 55.4179 961.864 Q53.1452 961.864 50.8231 960.703 Q48.5257 959.542 47.0682 956.75 Q44.7955 952.575 44.7955 944.571 M48.995 943.954 Q48.995 951.587 49.5385 954.626 Q50.1561 957.911 51.8359 959.344 Q53.5405 960.752 55.4179 960.752 Q57.4436 960.752 59.1234 959.245 Q60.828 957.713 61.3467 954.428 Q61.9149 951.192 61.8902 943.954 Q61.8902 936.913 61.3961 934.097 Q60.7291 930.811 58.9505 929.502 Q57.1966 928.168 55.4179 928.168 Q54.7509 928.168 54.0345 928.366 Q53.3428 928.563 52.33 929.132 Q51.3172 929.7 50.5267 931.108 Q49.7608 932.516 49.3903 934.641 Q48.995 937.383 48.995 943.954 Z" fill="#000000" fill-rule="nonzero" fill-opacity="1" /><path clip-path="url(#clip700)" d="M73.1796 959.937 Q72.4138 959.122 72.4138 958.059 Q72.4138 956.997 73.1796 956.231 Q73.9454 955.441 75.1065 955.441 Q76.2181 955.441 76.9592 956.182 Q77.725 956.898 77.725 958.084 Q77.725 959.245 76.9098 960.011 Q76.1193 960.752 75.1065 960.752 Q73.9454 960.752 73.1796 959.937 Z" fill="#000000" fill-rule="nonzero" fill-opacity="1" /><path clip-path="url(#clip700)" d="M84.6914 952.6 Q84.6914 951.093 85.5066 950.525 Q86.3218 949.932 87.1864 949.932 Q88.3475 949.932 89.0145 950.673 Q89.7062 951.389 89.7062 952.402 Q89.7062 953.415 89.0145 954.156 Q88.3475 954.873 87.1864 954.873 Q86.6183 954.873 86.3218 954.774 Q86.9888 957.096 89.0145 958.776 Q91.0649 960.456 93.7575 960.456 Q97.1419 960.456 99.1676 957.17 Q100.378 955.045 100.378 950.228 Q100.378 945.979 99.464 943.855 Q98.0559 940.619 95.1656 940.619 Q91.0649 940.619 88.6439 944.151 Q88.3475 944.596 88.0016 944.621 Q87.5076 944.621 87.3841 944.349 Q87.2852 944.052 87.2852 943.287 L87.2852 928.316 Q87.2852 927.106 87.7793 927.106 Q87.9769 927.106 88.3969 927.254 Q91.5836 928.662 95.1162 928.687 Q98.7476 928.687 102.008 927.205 Q102.255 927.057 102.404 927.057 Q102.898 927.057 102.922 927.625 Q102.922 927.822 102.503 928.415 Q102.107 928.983 101.243 929.749 Q100.378 930.49 99.2664 931.207 Q98.1547 931.923 96.5243 932.417 Q94.9186 932.887 93.1399 932.887 Q91.0155 932.887 88.8416 932.22 L88.8416 942.076 Q91.4601 939.507 95.2644 939.507 Q99.3158 939.507 102.107 942.768 Q104.899 946.029 104.899 950.574 Q104.899 955.342 101.588 958.603 Q98.3029 961.864 93.8563 961.864 Q89.805 961.864 87.2358 958.973 Q84.6914 956.083 84.6914 952.6 Z" fill="#000000" fill-rule="nonzero" fill-opacity="1" /><path clip-path="url(#clip700)" d="M44.4002 681.003 Q44.4002 673.567 46.2777 669.516 Q48.8962 663.488 55.0721 663.488 Q56.3813 663.488 57.74 663.858 Q59.1234 664.204 60.8527 665.563 Q62.6066 666.922 63.6688 669.145 Q65.6945 673.443 65.6945 681.003 Q65.6945 688.389 63.8171 692.416 Q61.075 698.295 55.0227 698.295 Q52.75 698.295 50.4278 697.134 Q48.1304 695.973 46.6729 693.181 Q44.4002 689.007 44.4002 681.003 M48.5998 680.385 Q48.5998 688.018 49.1433 691.057 Q49.7608 694.342 51.4407 695.775 Q53.1452 697.183 55.0227 697.183 Q57.0483 697.183 58.7282 695.676 Q60.4327 694.145 60.9515 690.859 Q61.5196 687.623 61.4949 680.385 Q61.4949 673.345 61.0009 670.528 Q60.3339 667.243 58.5552 665.934 Q56.8013 664.6 55.0227 664.6 Q54.3557 664.6 53.6393 664.797 Q52.9476 664.995 51.9347 665.563 Q50.9219 666.131 50.1314 667.539 Q49.3656 668.947 48.995 671.072 Q48.5998 673.814 48.5998 680.385 Z" fill="#000000" fill-rule="nonzero" fill-opacity="1" /><path clip-path="url(#clip700)" d="M72.7844 696.368 Q72.0186 695.553 72.0186 694.491 Q72.0186 693.428 72.7844 692.663 Q73.5502 691.872 74.7112 691.872 Q75.8229 691.872 76.564 692.613 Q77.3298 693.33 77.3298 694.515 Q77.3298 695.676 76.5146 696.442 Q75.7241 697.183 74.7112 697.183 Q73.5502 697.183 72.7844 696.368 Z" fill="#000000" fill-rule="nonzero" fill-opacity="1" /><path clip-path="url(#clip700)" d="M83.9009 681.2 Q83.9009 673.246 87.9522 668.379 Q92.0036 663.488 97.216 663.488 Q100.255 663.488 101.934 665.044 Q103.639 666.576 103.639 668.947 Q103.639 670.257 102.873 670.825 Q102.107 671.393 101.317 671.393 Q100.403 671.393 99.6863 670.775 Q98.9699 670.158 98.9699 669.046 Q98.9699 666.773 101.761 666.773 Q100.452 664.748 97.3148 664.748 Q96.3514 664.748 95.3632 665.044 Q94.3751 665.316 93.0905 666.255 Q91.806 667.193 90.8178 668.676 Q89.8297 670.158 89.138 672.949 Q88.4463 675.741 88.4463 679.372 L88.4463 680.583 Q90.5214 675.568 94.7704 675.593 Q99.0193 675.593 101.959 678.829 Q104.899 682.065 104.899 686.857 Q104.899 691.773 101.836 695.034 Q98.7723 698.295 94.4739 698.295 Q92.5471 698.295 90.7931 697.48 Q89.0639 696.689 87.4335 694.861 Q85.8278 693.033 84.8643 689.525 Q83.9009 686.017 83.9009 681.2 M88.5451 685.746 Q88.5451 690.711 89.4591 693.083 Q89.6074 693.478 89.9285 694.021 Q90.2744 694.565 90.8425 695.281 Q91.4354 695.973 92.3988 696.442 Q93.3623 696.887 94.4739 696.887 Q97.8583 696.887 99.4887 693.601 Q100.353 691.773 100.353 686.808 Q100.353 681.744 99.4393 679.891 Q97.883 676.754 94.721 676.754 Q92.5965 676.754 91.1143 678.211 Q89.6568 679.669 89.0886 681.62 Q88.5451 683.572 88.5451 685.746 Z" fill="#000000" fill-rule="nonzero" fill-opacity="1" /><path clip-path="url(#clip700)" d="M42.9921 417.434 Q42.9921 409.998 44.8696 405.947 Q47.4881 399.919 53.664 399.919 Q54.9733 399.919 56.3319 400.29 Q57.7153 400.636 59.4446 401.994 Q61.1985 403.353 62.2607 405.576 Q64.2864 409.875 64.2864 417.434 Q64.2864 424.82 62.409 428.847 Q59.6669 434.726 53.6146 434.726 Q51.3419 434.726 49.0197 433.565 Q46.7223 432.404 45.2648 429.613 Q42.9921 425.438 42.9921 417.434 M47.1917 416.816 Q47.1917 424.45 47.7352 427.488 Q48.3528 430.774 50.0326 432.207 Q51.7371 433.615 53.6146 433.615 Q55.6402 433.615 57.3201 432.108 Q59.0246 430.576 59.5434 427.291 Q60.1116 424.054 60.0869 416.816 Q60.0869 409.776 59.5928 406.96 Q58.9258 403.674 57.1472 402.365 Q55.3932 401.031 53.6146 401.031 Q52.9476 401.031 52.2312 401.229 Q51.5395 401.426 50.5267 401.994 Q49.5138 402.563 48.7233 403.971 Q47.9575 405.379 47.587 407.503 Q47.1917 410.245 47.1917 416.816 Z" fill="#000000" fill-rule="nonzero" fill-opacity="1" /><path clip-path="url(#clip700)" d="M71.3763 432.799 Q70.6105 431.984 70.6105 430.922 Q70.6105 429.86 71.3763 429.094 Q72.1421 428.303 73.3031 428.303 Q74.4148 428.303 75.1559 429.045 Q75.9217 429.761 75.9217 430.947 Q75.9217 432.108 75.1065 432.874 Q74.316 433.615 73.3031 433.615 Q72.1421 433.615 71.3763 432.799 Z" fill="#000000" fill-rule="nonzero" fill-opacity="1" /><path clip-path="url(#clip700)" d="M83.2092 409.825 L84.8643 399.425 L86.1242 399.425 Q86.2724 400.043 86.5194 400.315 Q86.7912 400.586 88.224 400.809 Q89.6815 401.031 92.6212 401.031 L104.899 401.031 Q104.899 402.192 104.454 402.81 L97.6113 412.419 Q95.4374 415.458 94.4739 421.065 Q93.9058 424.82 93.9305 429.366 L93.9305 431.935 Q93.9305 434.726 91.5836 434.726 Q89.2615 434.726 89.2615 431.935 Q89.2615 422.276 95.4868 412.913 Q96.1538 411.95 98.5994 408.516 Q101.07 405.082 101.169 404.934 L90.6943 404.934 Q86.0995 404.934 85.7289 405.231 Q85.2349 405.675 84.4691 409.825 L83.2092 409.825 Z" fill="#000000" fill-rule="nonzero" fill-opacity="1" /><path clip-path="url(#clip700)" d="M44.4002 153.865 Q44.4002 146.43 46.2777 142.378 Q48.8962 136.351 55.0721 136.351 Q56.3813 136.351 57.74 136.721 Q59.1234 137.067 60.8527 138.426 Q62.6066 139.784 63.6688 142.008 Q65.6945 146.306 65.6945 153.865 Q65.6945 161.252 63.8171 165.278 Q61.075 171.158 55.0227 171.158 Q52.75 171.158 50.4278 169.997 Q48.1304 168.836 46.6729 166.044 Q44.4002 161.869 44.4002 153.865 M48.5998 153.248 Q48.5998 160.881 49.1433 163.92 Q49.7608 167.205 51.4407 168.638 Q53.1452 170.046 55.0227 170.046 Q57.0483 170.046 58.7282 168.539 Q60.4327 167.008 60.9515 163.722 Q61.5196 160.486 61.4949 153.248 Q61.4949 146.207 61.0009 143.391 Q60.3339 140.106 58.5552 138.796 Q56.8013 137.462 55.0227 137.462 Q54.3557 137.462 53.6393 137.66 Q52.9476 137.858 51.9347 138.426 Q50.9219 138.994 50.1314 140.402 Q49.3656 141.81 48.995 143.935 Q48.5998 146.677 48.5998 153.248 Z" fill="#000000" fill-rule="nonzero" fill-opacity="1" /><path clip-path="url(#clip700)" d="M72.7844 169.231 Q72.0186 168.416 72.0186 167.353 Q72.0186 166.291 72.7844 165.525 Q73.5502 164.735 74.7112 164.735 Q75.8229 164.735 76.564 165.476 Q77.3298 166.192 77.3298 167.378 Q77.3298 168.539 76.5146 169.305 Q75.7241 170.046 74.7112 170.046 Q73.5502 170.046 72.7844 169.231 Z" fill="#000000" fill-rule="nonzero" fill-opacity="1" /><path clip-path="url(#clip700)" d="M83.9009 162.413 Q83.9009 156.756 91.1884 153.1 Q88.0511 150.975 87.4829 150.357 Q85.2596 147.887 85.2596 144.799 Q85.2596 141.267 87.9275 138.821 Q90.6202 136.351 94.4245 136.351 Q98.0559 136.351 100.798 138.45 Q103.54 140.55 103.54 143.885 Q103.54 148.579 97.4136 151.741 Q101.465 154.261 102.428 155.323 Q104.899 158.065 104.899 161.548 Q104.899 165.599 101.786 168.391 Q98.6735 171.158 94.3751 171.158 Q90.1755 171.158 87.0382 168.712 Q83.9009 166.266 83.9009 162.413 M86.4206 162.413 Q86.4206 165.55 88.7675 167.65 Q91.139 169.75 94.4245 169.75 Q97.6113 169.75 99.9828 167.922 Q102.379 166.093 102.379 163.376 Q102.379 162.314 102.008 161.4 Q101.663 160.486 100.946 159.769 Q100.255 159.028 99.8099 158.707 Q99.3899 158.361 98.5747 157.793 L92.3494 153.865 Q86.4206 157.151 86.4206 162.413 M87.4829 142.823 Q87.4829 145.244 90.0273 146.924 L96.302 150.975 Q101.317 148.035 101.317 143.885 Q101.317 141.193 99.2664 139.414 Q97.216 137.611 94.3751 137.611 Q91.5836 137.611 89.5333 139.093 Q87.4829 140.55 87.4829 142.823 Z" fill="#000000" fill-rule="nonzero" fill-opacity="1" /><polyline clip-path="url(#clip702)" style="stroke:#009af9; stroke-linecap:round; stroke-linejoin:round; stroke-width:8; stroke-opacity:1; fill:none" points="215.508,1334.47 402.951,810.239 590.394,105.889 777.836,194.807 965.279,954.111 1152.72,1334.47 1340.16,810.239 1527.61,105.889 1715.05,194.807 1902.49,954.111 "/>
<polyline clip-path="url(#clip702)" style="stroke:#009af9; stroke-linecap:round; stroke-linejoin:round; stroke-width:8; stroke-opacity:1; fill:none" stroke-dasharray="32, 20" points="215.508,1198.88 402.951,707.546 590.394,260.096 777.836,248.77 965.279,1225.81 1152.72,1256.44 1340.16,946.877 1527.61,97.974 1715.05,342.275 1902.49,1081.16 "/>
<polyline clip-path="url(#clip702)" style="stroke:#e26f46; stroke-linecap:round; stroke-linejoin:round; stroke-width:8; stroke-opacity:1; fill:none" points="215.508,552.475 402.951,1076.7 590.394,1781.05 777.836,1692.14 965.279,932.832 1152.72,552.475 1340.16,1076.7 1527.61,1781.05 1715.05,1692.14 1902.49,932.832 "/>
<polyline clip-path="url(#clip702)" style="stroke:#e26f46; stroke-linecap:round; stroke-linejoin:round; stroke-width:8; stroke-opacity:1; fill:none" stroke-dasharray="32, 20" points="215.508,688.061 402.951,1179.4 590.394,1626.85 777.836,1638.17 965.279,661.134 1152.72,630.509 1340.16,940.067 1527.61,1788.97 1715.05,1544.67 1902.49,805.783 "/>
<path clip-path="url(#clip700)" d="M224.506 438.647 L531.541 438.647 L531.541 106.993 L224.506 106.993  Z" fill="#ffffff" fill-rule="evenodd" fill-opacity="1"/>
<polyline clip-path="url(#clip700)" style="stroke:#000000; stroke-linecap:round; stroke-linejoin:round; stroke-width:4; stroke-opacity:1; fill:none" points="224.506,438.647 531.541,438.647 531.541,106.993 224.506,106.993 224.506,438.647 "/>
<polyline clip-path="url(#clip700)" style="stroke:#009af9; stroke-linecap:round; stroke-linejoin:round; stroke-width:8; stroke-opacity:1; fill:none" points="244.374,173.324 363.588,173.324 "/>
<path clip-path="url(#clip700)" d="M416.623 157.734 Q416.623 161.107 415.405 164.456 Q414.187 167.782 412.149 170.476 Q410.135 173.17 407.512 175.254 Q404.912 177.315 402.125 178.369 Q402.476 181.18 403.179 182.234 Q403.905 183.311 405.521 183.311 Q406.458 183.311 407.465 182.89 Q408.495 182.468 409.549 181.367 Q410.604 180.29 411.142 178.697 Q411.306 178.182 411.728 178.182 Q411.892 178.182 412.056 178.322 Q412.243 178.44 412.243 178.65 Q412.243 178.838 412.032 179.517 Q411.845 180.22 411.447 181.297 Q411.049 182.375 410.369 183.499 Q409.69 184.647 408.847 185.654 Q408.027 186.661 406.809 187.293 Q405.591 187.949 404.233 187.949 Q403.108 187.949 402.289 187.527 Q401.492 187.106 401.094 186.567 Q400.719 186.028 400.508 185.162 Q400.298 184.319 400.274 183.85 Q400.251 183.382 400.251 182.679 Q400.251 181.953 400.438 178.978 Q397.909 179.704 395.754 179.704 Q390.437 179.704 386.947 176.214 Q383.457 172.725 383.457 166.892 Q383.457 162.817 385.284 158.765 Q387.111 154.689 390.015 151.668 Q392.92 148.623 396.737 146.726 Q400.579 144.828 404.373 144.828 Q409.76 144.828 413.18 148.412 Q416.623 151.972 416.623 157.734 M412.384 156.212 Q412.384 151.48 410.065 148.763 Q407.769 146.023 404.092 146.023 Q401.281 146.023 398.166 147.826 Q395.074 149.63 392.568 153.12 Q390.109 156.61 388.891 160.99 Q387.696 165.37 387.696 168.438 Q387.696 171.834 389.031 174.387 Q390.367 176.917 393.06 177.971 Q392.779 177.409 392.779 176.449 Q392.779 174.575 394.278 173.076 Q395.777 171.553 397.674 171.553 Q398.518 171.553 399.173 171.811 Q399.853 172.045 400.274 172.537 Q400.719 173.029 401 173.497 Q401.305 173.942 401.469 174.669 Q401.656 175.371 401.726 175.746 Q401.797 176.097 401.89 176.73 Q404.186 175.442 406.06 173.333 Q407.933 171.202 409.081 168.953 Q410.229 166.682 411.002 164.222 Q411.775 161.739 412.079 159.772 Q412.384 157.781 412.384 156.212 M400.579 176.683 Q400.579 174.505 399.876 173.568 Q399.197 172.607 397.674 172.607 Q396.175 172.607 395.004 173.802 Q393.833 174.996 393.833 176.449 Q393.833 177.175 394.044 177.643 Q394.278 178.088 394.7 178.276 Q395.121 178.44 395.379 178.486 Q395.637 178.51 396.035 178.51 Q398.072 178.51 400.063 177.643 Q400.415 177.503 400.485 177.362 Q400.579 177.222 400.579 176.683 Z" fill="#000000" fill-rule="nonzero" fill-opacity="1" /><path clip-path="url(#clip700)" d="M421.415 181.992 L421.415 180.942 Q425.449 180.942 427.531 178.794 Q428.105 178.794 428.203 178.926 Q428.302 179.057 428.302 179.663 L428.302 198.502 Q428.302 199.502 428.794 199.814 Q429.285 200.125 431.433 200.125 L432.499 200.125 L432.499 201.158 Q431.318 201.06 427.056 201.06 Q422.793 201.06 421.629 201.158 L421.629 200.125 L422.694 200.125 Q424.809 200.125 425.318 199.83 Q425.826 199.519 425.826 198.502 L425.826 181.106 Q424.072 181.992 421.415 181.992 Z" fill="#000000" fill-rule="nonzero" fill-opacity="1" /><path clip-path="url(#clip700)" d="M476.773 192.321 Q477.068 192.436 477.068 192.764 Q477.068 193.092 476.773 193.206 Q474.313 194.026 472.166 196.699 Q470.641 198.682 470.214 200.961 Q470.165 201.191 469.985 201.339 Q469.805 201.486 469.559 201.486 Q469.28 201.486 469.083 201.289 Q468.886 201.109 468.886 200.83 Q468.886 200.814 468.903 200.765 Q468.919 200.699 468.919 200.683 Q469.411 198.027 471.133 195.846 Q472.215 194.469 473.756 193.436 L448.031 193.436 Q447.752 193.436 447.556 193.239 Q447.359 193.042 447.359 192.764 Q447.359 192.485 447.556 192.288 Q447.752 192.091 448.031 192.091 L473.756 192.091 Q472.215 191.058 471.133 189.681 Q469.411 187.501 468.919 184.844 Q468.919 184.828 468.903 184.779 Q468.886 184.713 468.886 184.697 Q468.886 184.418 469.083 184.238 Q469.28 184.041 469.559 184.041 Q469.805 184.041 469.985 184.189 Q470.165 184.336 470.214 184.566 Q470.641 186.845 472.166 188.829 Q474.313 191.501 476.773 192.321 Z" fill="#000000" fill-rule="nonzero" fill-opacity="1" /><path clip-path="url(#clip700)" d="M489.927 181.992 L489.927 180.942 Q493.961 180.942 496.043 178.794 Q496.617 178.794 496.715 178.926 Q496.813 179.057 496.813 179.663 L496.813 198.502 Q496.813 199.502 497.305 199.814 Q497.797 200.125 499.945 200.125 L501.011 200.125 L501.011 201.158 Q499.83 201.06 495.567 201.06 Q491.304 201.06 490.14 201.158 L490.14 200.125 L491.206 200.125 Q493.321 200.125 493.829 199.83 Q494.338 199.519 494.338 198.502 L494.338 181.106 Q492.583 181.992 489.927 181.992 Z" fill="#000000" fill-rule="nonzero" fill-opacity="1" /><polyline clip-path="url(#clip700)" style="stroke:#009af9; stroke-linecap:round; stroke-linejoin:round; stroke-width:8; stroke-opacity:1; fill:none" stroke-dasharray="32, 20" points="244.374,239.654 363.588,239.654 "/>
<path clip-path="url(#clip700)" d="M410.041 210.518 L409.632 211.19 Q407.09 210.092 403.926 208.337 Q400.762 210.092 398.22 211.19 L397.827 210.518 Q400.598 208.108 403.926 206.255 Q407.287 208.124 410.041 210.518 Z" fill="#000000" fill-rule="nonzero" fill-opacity="1" /><path clip-path="url(#clip700)" d="M416.623 229.068 Q416.623 232.441 415.405 235.79 Q414.187 239.116 412.149 241.81 Q410.135 244.503 407.512 246.588 Q404.912 248.649 402.125 249.703 Q402.476 252.514 403.179 253.568 Q403.905 254.645 405.521 254.645 Q406.458 254.645 407.465 254.223 Q408.495 253.802 409.549 252.701 Q410.604 251.624 411.142 250.031 Q411.306 249.516 411.728 249.516 Q411.892 249.516 412.056 249.656 Q412.243 249.773 412.243 249.984 Q412.243 250.171 412.032 250.851 Q411.845 251.553 411.447 252.631 Q411.049 253.708 410.369 254.832 Q409.69 255.98 408.847 256.987 Q408.027 257.995 406.809 258.627 Q405.591 259.283 404.233 259.283 Q403.108 259.283 402.289 258.861 Q401.492 258.44 401.094 257.901 Q400.719 257.362 400.508 256.495 Q400.298 255.652 400.274 255.184 Q400.251 254.715 400.251 254.013 Q400.251 253.287 400.438 250.312 Q397.909 251.038 395.754 251.038 Q390.437 251.038 386.947 247.548 Q383.457 244.058 383.457 238.226 Q383.457 234.15 385.284 230.098 Q387.111 226.023 390.015 223.001 Q392.92 219.956 396.737 218.059 Q400.579 216.162 404.373 216.162 Q409.76 216.162 413.18 219.746 Q416.623 223.306 416.623 229.068 M412.384 227.545 Q412.384 222.814 410.065 220.097 Q407.769 217.357 404.092 217.357 Q401.281 217.357 398.166 219.16 Q395.074 220.964 392.568 224.454 Q390.109 227.944 388.891 232.324 Q387.696 236.703 387.696 239.772 Q387.696 243.168 389.031 245.721 Q390.367 248.251 393.06 249.305 Q392.779 248.743 392.779 247.782 Q392.779 245.909 394.278 244.409 Q395.777 242.887 397.674 242.887 Q398.518 242.887 399.173 243.145 Q399.853 243.379 400.274 243.871 Q400.719 244.363 401 244.831 Q401.305 245.276 401.469 246.002 Q401.656 246.705 401.726 247.08 Q401.797 247.431 401.89 248.063 Q404.186 246.775 406.06 244.667 Q407.933 242.536 409.081 240.287 Q410.229 238.015 411.002 235.556 Q411.775 233.073 412.079 231.106 Q412.384 229.115 412.384 227.545 M400.579 248.017 Q400.579 245.838 399.876 244.901 Q399.197 243.941 397.674 243.941 Q396.175 243.941 395.004 245.136 Q393.833 246.33 393.833 247.782 Q393.833 248.508 394.044 248.977 Q394.278 249.422 394.7 249.609 Q395.121 249.773 395.379 249.82 Q395.637 249.843 396.035 249.843 Q398.072 249.843 400.063 248.977 Q400.415 248.836 400.485 248.696 Q400.579 248.555 400.579 248.017 Z" fill="#000000" fill-rule="nonzero" fill-opacity="1" /><path clip-path="url(#clip700)" d="M421.415 253.325 L421.415 252.276 Q425.449 252.276 427.531 250.128 Q428.105 250.128 428.203 250.259 Q428.302 250.39 428.302 250.997 L428.302 269.836 Q428.302 270.836 428.794 271.147 Q429.285 271.459 431.433 271.459 L432.499 271.459 L432.499 272.492 Q431.318 272.393 427.056 272.393 Q422.793 272.393 421.629 272.492 L421.629 271.459 L422.694 271.459 Q424.809 271.459 425.318 271.164 Q425.826 270.852 425.826 269.836 L425.826 252.44 Q424.072 253.325 421.415 253.325 Z" fill="#000000" fill-rule="nonzero" fill-opacity="1" /><path clip-path="url(#clip700)" d="M476.773 263.655 Q477.068 263.769 477.068 264.097 Q477.068 264.425 476.773 264.54 Q474.313 265.36 472.166 268.032 Q470.641 270.016 470.214 272.295 Q470.165 272.525 469.985 272.672 Q469.805 272.82 469.559 272.82 Q469.28 272.82 469.083 272.623 Q468.886 272.443 468.886 272.164 Q468.886 272.148 468.903 272.098 Q468.919 272.033 468.919 272.016 Q469.411 269.36 471.133 267.18 Q472.215 265.802 473.756 264.769 L448.031 264.769 Q447.752 264.769 447.556 264.573 Q447.359 264.376 447.359 264.097 Q447.359 263.819 447.556 263.622 Q447.752 263.425 448.031 263.425 L473.756 263.425 Q472.215 262.392 471.133 261.015 Q469.411 258.834 468.919 256.178 Q468.919 256.162 468.903 256.113 Q468.886 256.047 468.886 256.031 Q468.886 255.752 469.083 255.571 Q469.28 255.375 469.559 255.375 Q469.805 255.375 469.985 255.522 Q470.165 255.67 470.214 255.899 Q470.641 258.178 472.166 260.162 Q474.313 262.835 476.773 263.655 Z" fill="#000000" fill-rule="nonzero" fill-opacity="1" /><path clip-path="url(#clip700)" d="M489.927 253.325 L489.927 252.276 Q493.961 252.276 496.043 250.128 Q496.617 250.128 496.715 250.259 Q496.813 250.39 496.813 250.997 L496.813 269.836 Q496.813 270.836 497.305 271.147 Q497.797 271.459 499.945 271.459 L501.011 271.459 L501.011 272.492 Q499.83 272.393 495.567 272.393 Q491.304 272.393 490.14 272.492 L490.14 271.459 L491.206 271.459 Q493.321 271.459 493.829 271.164 Q494.338 270.852 494.338 269.836 L494.338 252.44 Q492.583 253.325 489.927 253.325 Z" fill="#000000" fill-rule="nonzero" fill-opacity="1" /><polyline clip-path="url(#clip700)" style="stroke:#e26f46; stroke-linecap:round; stroke-linejoin:round; stroke-width:8; stroke-opacity:1; fill:none" points="244.374,305.985 363.588,305.985 "/>
<path clip-path="url(#clip700)" d="M416.623 290.396 Q416.623 293.769 415.405 297.118 Q414.187 300.444 412.149 303.138 Q410.135 305.831 407.512 307.916 Q404.912 309.977 402.125 311.031 Q402.476 313.842 403.179 314.896 Q403.905 315.973 405.521 315.973 Q406.458 315.973 407.465 315.552 Q408.495 315.13 409.549 314.029 Q410.604 312.952 411.142 311.359 Q411.306 310.844 411.728 310.844 Q411.892 310.844 412.056 310.984 Q412.243 311.101 412.243 311.312 Q412.243 311.5 412.032 312.179 Q411.845 312.882 411.447 313.959 Q411.049 315.036 410.369 316.161 Q409.69 317.308 408.847 318.316 Q408.027 319.323 406.809 319.955 Q405.591 320.611 404.233 320.611 Q403.108 320.611 402.289 320.189 Q401.492 319.768 401.094 319.229 Q400.719 318.69 400.508 317.824 Q400.298 316.98 400.274 316.512 Q400.251 316.044 400.251 315.341 Q400.251 314.615 400.438 311.64 Q397.909 312.366 395.754 312.366 Q390.437 312.366 386.947 308.876 Q383.457 305.386 383.457 299.554 Q383.457 295.479 385.284 291.427 Q387.111 287.351 390.015 284.33 Q392.92 281.285 396.737 279.387 Q400.579 277.49 404.373 277.49 Q409.76 277.49 413.18 281.074 Q416.623 284.634 416.623 290.396 M412.384 288.874 Q412.384 284.142 410.065 281.425 Q407.769 278.685 404.092 278.685 Q401.281 278.685 398.166 280.488 Q395.074 282.292 392.568 285.782 Q390.109 289.272 388.891 293.652 Q387.696 298.032 387.696 301.1 Q387.696 304.496 389.031 307.049 Q390.367 309.579 393.06 310.633 Q392.779 310.071 392.779 309.111 Q392.779 307.237 394.278 305.738 Q395.777 304.215 397.674 304.215 Q398.518 304.215 399.173 304.473 Q399.853 304.707 400.274 305.199 Q400.719 305.691 401 306.159 Q401.305 306.604 401.469 307.33 Q401.656 308.033 401.726 308.408 Q401.797 308.759 401.89 309.392 Q404.186 308.103 406.06 305.995 Q407.933 303.864 409.081 301.615 Q410.229 299.343 411.002 296.884 Q411.775 294.401 412.079 292.434 Q412.384 290.443 412.384 288.874 M400.579 309.345 Q400.579 307.166 399.876 306.23 Q399.197 305.269 397.674 305.269 Q396.175 305.269 395.004 306.464 Q393.833 307.658 393.833 309.111 Q393.833 309.837 394.044 310.305 Q394.278 310.75 394.7 310.937 Q395.121 311.101 395.379 311.148 Q395.637 311.172 396.035 311.172 Q398.072 311.172 400.063 310.305 Q400.415 310.165 400.485 310.024 Q400.579 309.883 400.579 309.345 Z" fill="#000000" fill-rule="nonzero" fill-opacity="1" /><path clip-path="url(#clip700)" d="M421.415 314.653 L421.415 313.604 Q425.449 313.604 427.531 311.456 Q428.105 311.456 428.203 311.587 Q428.302 311.719 428.302 312.325 L428.302 331.164 Q428.302 332.164 428.794 332.476 Q429.285 332.787 431.433 332.787 L432.499 332.787 L432.499 333.82 Q431.318 333.722 427.056 333.722 Q422.793 333.722 421.629 333.82 L421.629 332.787 L422.694 332.787 Q424.809 332.787 425.318 332.492 Q425.826 332.18 425.826 331.164 L425.826 313.768 Q424.072 314.653 421.415 314.653 Z" fill="#000000" fill-rule="nonzero" fill-opacity="1" /><path clip-path="url(#clip700)" d="M476.773 324.983 Q477.068 325.098 477.068 325.425 Q477.068 325.753 476.773 325.868 Q474.313 326.688 472.166 329.36 Q470.641 331.344 470.214 333.623 Q470.165 333.853 469.985 334 Q469.805 334.148 469.559 334.148 Q469.28 334.148 469.083 333.951 Q468.886 333.771 468.886 333.492 Q468.886 333.476 468.903 333.427 Q468.919 333.361 468.919 333.345 Q469.411 330.688 471.133 328.508 Q472.215 327.131 473.756 326.098 L448.031 326.098 Q447.752 326.098 447.556 325.901 Q447.359 325.704 447.359 325.425 Q447.359 325.147 447.556 324.95 Q447.752 324.753 448.031 324.753 L473.756 324.753 Q472.215 323.72 471.133 322.343 Q469.411 320.162 468.919 317.506 Q468.919 317.49 468.903 317.441 Q468.886 317.375 468.886 317.359 Q468.886 317.08 469.083 316.9 Q469.28 316.703 469.559 316.703 Q469.805 316.703 469.985 316.851 Q470.165 316.998 470.214 317.228 Q470.641 319.507 472.166 321.49 Q474.313 324.163 476.773 324.983 Z" fill="#000000" fill-rule="nonzero" fill-opacity="1" /><path clip-path="url(#clip700)" d="M489.927 333.82 Q489.927 333.213 489.976 333.033 Q490.042 332.853 490.304 332.574 L496.748 325.393 Q500.273 321.425 500.273 317.965 Q500.273 315.719 499.092 314.112 Q497.928 312.506 495.78 312.506 Q494.305 312.506 493.059 313.407 Q491.813 314.309 491.239 315.916 Q491.337 315.883 491.682 315.883 Q492.518 315.883 492.977 316.408 Q493.452 316.932 493.452 317.638 Q493.452 318.539 492.862 318.982 Q492.288 319.408 491.714 319.408 Q491.485 319.408 491.173 319.359 Q490.878 319.31 490.403 318.851 Q489.927 318.375 489.927 317.539 Q489.927 315.195 491.698 313.325 Q493.485 311.456 496.207 311.456 Q499.289 311.456 501.306 313.293 Q503.339 315.113 503.339 317.965 Q503.339 318.966 503.027 319.884 Q502.732 320.785 502.322 321.49 Q501.929 322.196 500.847 323.327 Q499.765 324.458 498.896 325.262 Q498.027 326.065 496.076 327.77 L492.518 331.23 L498.568 331.23 Q501.519 331.23 501.749 330.967 Q502.076 330.492 502.486 327.983 L503.339 327.983 L502.388 333.82 L489.927 333.82 Z" fill="#000000" fill-rule="nonzero" fill-opacity="1" /><polyline clip-path="url(#clip700)" style="stroke:#e26f46; stroke-linecap:round; stroke-linejoin:round; stroke-width:8; stroke-opacity:1; fill:none" stroke-dasharray="32, 20" points="244.374,372.316 363.588,372.316 "/>
<path clip-path="url(#clip700)" d="M410.041 343.18 L409.632 343.852 Q407.09 342.754 403.926 340.999 Q400.762 342.754 398.22 343.852 L397.827 343.18 Q400.598 340.77 403.926 338.917 Q407.287 340.786 410.041 343.18 Z" fill="#000000" fill-rule="nonzero" fill-opacity="1" /><path clip-path="url(#clip700)" d="M416.623 361.73 Q416.623 365.102 415.405 368.452 Q414.187 371.778 412.149 374.471 Q410.135 377.165 407.512 379.25 Q404.912 381.311 402.125 382.365 Q402.476 385.176 403.179 386.23 Q403.905 387.307 405.521 387.307 Q406.458 387.307 407.465 386.885 Q408.495 386.464 409.549 385.363 Q410.604 384.285 411.142 382.693 Q411.306 382.177 411.728 382.177 Q411.892 382.177 412.056 382.318 Q412.243 382.435 412.243 382.646 Q412.243 382.833 412.032 383.513 Q411.845 384.215 411.447 385.293 Q411.049 386.37 410.369 387.494 Q409.69 388.642 408.847 389.649 Q408.027 390.656 406.809 391.289 Q405.591 391.945 404.233 391.945 Q403.108 391.945 402.289 391.523 Q401.492 391.101 401.094 390.563 Q400.719 390.024 400.508 389.157 Q400.298 388.314 400.274 387.846 Q400.251 387.377 400.251 386.675 Q400.251 385.948 400.438 382.974 Q397.909 383.7 395.754 383.7 Q390.437 383.7 386.947 380.21 Q383.457 376.72 383.457 370.888 Q383.457 366.812 385.284 362.76 Q387.111 358.685 390.015 355.663 Q392.92 352.618 396.737 350.721 Q400.579 348.824 404.373 348.824 Q409.76 348.824 413.18 352.408 Q416.623 355.968 416.623 361.73 M412.384 360.207 Q412.384 355.476 410.065 352.759 Q407.769 350.018 404.092 350.018 Q401.281 350.018 398.166 351.822 Q395.074 353.625 392.568 357.115 Q390.109 360.605 388.891 364.985 Q387.696 369.365 387.696 372.434 Q387.696 375.83 389.031 378.383 Q390.367 380.913 393.06 381.967 Q392.779 381.405 392.779 380.444 Q392.779 378.57 394.278 377.071 Q395.777 375.549 397.674 375.549 Q398.518 375.549 399.173 375.807 Q399.853 376.041 400.274 376.533 Q400.719 377.025 401 377.493 Q401.305 377.938 401.469 378.664 Q401.656 379.367 401.726 379.742 Q401.797 380.093 401.89 380.725 Q404.186 379.437 406.06 377.329 Q407.933 375.198 409.081 372.949 Q410.229 370.677 411.002 368.218 Q411.775 365.735 412.079 363.767 Q412.384 361.777 412.384 360.207 M400.579 380.678 Q400.579 378.5 399.876 377.563 Q399.197 376.603 397.674 376.603 Q396.175 376.603 395.004 377.797 Q393.833 378.992 393.833 380.444 Q393.833 381.17 394.044 381.639 Q394.278 382.084 394.7 382.271 Q395.121 382.435 395.379 382.482 Q395.637 382.505 396.035 382.505 Q398.072 382.505 400.063 381.639 Q400.415 381.498 400.485 381.358 Q400.579 381.217 400.579 380.678 Z" fill="#000000" fill-rule="nonzero" fill-opacity="1" /><path clip-path="url(#clip700)" d="M421.415 385.987 L421.415 384.938 Q425.449 384.938 427.531 382.79 Q428.105 382.79 428.203 382.921 Q428.302 383.052 428.302 383.659 L428.302 402.498 Q428.302 403.498 428.794 403.809 Q429.285 404.121 431.433 404.121 L432.499 404.121 L432.499 405.154 Q431.318 405.055 427.056 405.055 Q422.793 405.055 421.629 405.154 L421.629 404.121 L422.694 404.121 Q424.809 404.121 425.318 403.826 Q425.826 403.514 425.826 402.498 L425.826 385.102 Q424.072 385.987 421.415 385.987 Z" fill="#000000" fill-rule="nonzero" fill-opacity="1" /><path clip-path="url(#clip700)" d="M476.773 396.316 Q477.068 396.431 477.068 396.759 Q477.068 397.087 476.773 397.202 Q474.313 398.022 472.166 400.694 Q470.641 402.678 470.214 404.957 Q470.165 405.187 469.985 405.334 Q469.805 405.482 469.559 405.482 Q469.28 405.482 469.083 405.285 Q468.886 405.105 468.886 404.826 Q468.886 404.809 468.903 404.76 Q468.919 404.695 468.919 404.678 Q469.411 402.022 471.133 399.842 Q472.215 398.464 473.756 397.431 L448.031 397.431 Q447.752 397.431 447.556 397.235 Q447.359 397.038 447.359 396.759 Q447.359 396.48 447.556 396.284 Q447.752 396.087 448.031 396.087 L473.756 396.087 Q472.215 395.054 471.133 393.677 Q469.411 391.496 468.919 388.84 Q468.919 388.824 468.903 388.774 Q468.886 388.709 468.886 388.692 Q468.886 388.414 469.083 388.233 Q469.28 388.037 469.559 388.037 Q469.805 388.037 469.985 388.184 Q470.165 388.332 470.214 388.561 Q470.641 390.84 472.166 392.824 Q474.313 395.497 476.773 396.316 Z" fill="#000000" fill-rule="nonzero" fill-opacity="1" /><path clip-path="url(#clip700)" d="M489.927 405.154 Q489.927 404.547 489.976 404.367 Q490.042 404.186 490.304 403.908 L496.748 396.726 Q500.273 392.759 500.273 389.299 Q500.273 387.053 499.092 385.446 Q497.928 383.839 495.78 383.839 Q494.305 383.839 493.059 384.741 Q491.813 385.643 491.239 387.25 Q491.337 387.217 491.682 387.217 Q492.518 387.217 492.977 387.741 Q493.452 388.266 493.452 388.971 Q493.452 389.873 492.862 390.316 Q492.288 390.742 491.714 390.742 Q491.485 390.742 491.173 390.693 Q490.878 390.644 490.403 390.184 Q489.927 389.709 489.927 388.873 Q489.927 386.528 491.698 384.659 Q493.485 382.79 496.207 382.79 Q499.289 382.79 501.306 384.626 Q503.339 386.446 503.339 389.299 Q503.339 390.299 503.027 391.217 Q502.732 392.119 502.322 392.824 Q501.929 393.529 500.847 394.66 Q499.765 395.792 498.896 396.595 Q498.027 397.399 496.076 399.104 L492.518 402.563 L498.568 402.563 Q501.519 402.563 501.749 402.301 Q502.076 401.825 502.486 399.317 L503.339 399.317 L502.388 405.154 L489.927 405.154 Z" fill="#000000" fill-rule="nonzero" fill-opacity="1" /><path clip-path="url(#clip700)" d="M2164.55 1839.7 L3952.76 1839.7 L3952.76 47.2441 L2164.55 47.2441  Z" fill="#ffffff" fill-rule="evenodd" fill-opacity="1"/>
<defs>
  <clipPath id="clip703">
    <rect x="2164" y="47" width="1789" height="1793"/>
  </clipPath>
</defs>
<polyline clip-path="url(#clip703)" style="stroke:#000000; stroke-linecap:round; stroke-linejoin:round; stroke-width:2; stroke-opacity:0.1; fill:none" points="2402.61,1839.7 2402.61,47.2441 "/>
<polyline clip-path="url(#clip703)" style="stroke:#000000; stroke-linecap:round; stroke-linejoin:round; stroke-width:2; stroke-opacity:0.1; fill:none" points="2777.49,1839.7 2777.49,47.2441 "/>
<polyline clip-path="url(#clip703)" style="stroke:#000000; stroke-linecap:round; stroke-linejoin:round; stroke-width:2; stroke-opacity:0.1; fill:none" points="3152.38,1839.7 3152.38,47.2441 "/>
<polyline clip-path="url(#clip703)" style="stroke:#000000; stroke-linecap:round; stroke-linejoin:round; stroke-width:2; stroke-opacity:0.1; fill:none" points="3527.26,1839.7 3527.26,47.2441 "/>
<polyline clip-path="url(#clip703)" style="stroke:#000000; stroke-linecap:round; stroke-linejoin:round; stroke-width:2; stroke-opacity:0.1; fill:none" points="3902.15,1839.7 3902.15,47.2441 "/>
<polyline clip-path="url(#clip700)" style="stroke:#000000; stroke-linecap:round; stroke-linejoin:round; stroke-width:4; stroke-opacity:1; fill:none" points="2164.55,1839.7 3952.76,1839.7 "/>
<polyline clip-path="url(#clip700)" style="stroke:#000000; stroke-linecap:round; stroke-linejoin:round; stroke-width:4; stroke-opacity:1; fill:none" points="2402.61,1839.7 2402.61,1820.8 "/>
<polyline clip-path="url(#clip700)" style="stroke:#000000; stroke-linecap:round; stroke-linejoin:round; stroke-width:4; stroke-opacity:1; fill:none" points="2777.49,1839.7 2777.49,1820.8 "/>
<polyline clip-path="url(#clip700)" style="stroke:#000000; stroke-linecap:round; stroke-linejoin:round; stroke-width:4; stroke-opacity:1; fill:none" points="3152.38,1839.7 3152.38,1820.8 "/>
<polyline clip-path="url(#clip700)" style="stroke:#000000; stroke-linecap:round; stroke-linejoin:round; stroke-width:4; stroke-opacity:1; fill:none" points="3527.26,1839.7 3527.26,1820.8 "/>
<polyline clip-path="url(#clip700)" style="stroke:#000000; stroke-linecap:round; stroke-linejoin:round; stroke-width:4; stroke-opacity:1; fill:none" points="3902.15,1839.7 3902.15,1820.8 "/>
<path clip-path="url(#clip700)" d="M2392.5 1914.9 Q2392.5 1913.99 2392.58 1913.71 Q2392.67 1913.44 2393.07 1913.02 L2402.78 1902.2 Q2408.09 1896.22 2408.09 1891.01 Q2408.09 1887.63 2406.31 1885.21 Q2404.56 1882.79 2401.32 1882.79 Q2399.1 1882.79 2397.22 1884.14 Q2395.34 1885.5 2394.48 1887.92 Q2394.63 1887.87 2395.14 1887.87 Q2396.4 1887.87 2397.1 1888.66 Q2397.81 1889.46 2397.81 1890.52 Q2397.81 1891.88 2396.92 1892.54 Q2396.06 1893.19 2395.19 1893.19 Q2394.85 1893.19 2394.38 1893.11 Q2393.93 1893.04 2393.22 1892.35 Q2392.5 1891.63 2392.5 1890.37 Q2392.5 1886.84 2395.17 1884.02 Q2397.86 1881.2 2401.96 1881.2 Q2406.61 1881.2 2409.65 1883.97 Q2412.71 1886.71 2412.71 1891.01 Q2412.71 1892.52 2412.24 1893.9 Q2411.79 1895.26 2411.18 1896.32 Q2410.58 1897.39 2408.95 1899.09 Q2407.32 1900.79 2406.01 1902 Q2404.7 1903.22 2401.77 1905.78 L2396.4 1911 L2405.52 1911 Q2409.97 1911 2410.31 1910.6 Q2410.81 1909.89 2411.42 1906.11 L2412.71 1906.11 L2411.28 1914.9 L2392.5 1914.9 Z" fill="#000000" fill-rule="nonzero" fill-opacity="1" /><path clip-path="url(#clip700)" d="M2766.28 1906.55 L2766.28 1904.99 L2781.81 1881.25 Q2782.21 1880.64 2782.83 1880.66 Q2783.39 1880.66 2783.52 1880.88 Q2783.64 1881.11 2783.64 1881.97 L2783.64 1904.99 L2788.71 1904.99 L2788.71 1906.55 L2783.64 1906.55 L2783.64 1910.95 Q2783.64 1912.4 2784.23 1912.87 Q2784.85 1913.34 2787.47 1913.34 L2788.53 1913.34 L2788.53 1914.9 Q2786.46 1914.75 2781.67 1914.75 Q2776.9 1914.75 2774.82 1914.9 L2774.82 1913.34 L2775.88 1913.34 Q2778.5 1913.34 2779.12 1912.9 Q2779.74 1912.43 2779.74 1910.95 L2779.74 1906.55 L2766.28 1906.55 M2767.71 1904.99 L2780.03 1904.99 L2780.03 1886.12 L2767.71 1904.99 Z" fill="#000000" fill-rule="nonzero" fill-opacity="1" /><path clip-path="url(#clip700)" d="M3141.88 1898.92 Q3141.88 1890.96 3145.93 1886.1 Q3149.98 1881.2 3155.19 1881.2 Q3158.23 1881.2 3159.91 1882.76 Q3161.61 1884.29 3161.61 1886.66 Q3161.61 1887.97 3160.85 1888.54 Q3160.08 1889.11 3159.29 1889.11 Q3158.38 1889.11 3157.66 1888.49 Q3156.95 1887.87 3156.95 1886.76 Q3156.95 1884.49 3159.74 1884.49 Q3158.43 1882.46 3155.29 1882.46 Q3154.33 1882.46 3153.34 1882.76 Q3152.35 1883.03 3151.07 1883.97 Q3149.78 1884.91 3148.79 1886.39 Q3147.81 1887.87 3147.11 1890.67 Q3146.42 1893.46 3146.42 1897.09 L3146.42 1898.3 Q3148.5 1893.28 3152.75 1893.31 Q3157 1893.31 3159.93 1896.55 Q3162.87 1899.78 3162.87 1904.57 Q3162.87 1909.49 3159.81 1912.75 Q3156.75 1916.01 3152.45 1916.01 Q3150.52 1916.01 3148.77 1915.2 Q3147.04 1914.41 3145.41 1912.58 Q3143.8 1910.75 3142.84 1907.24 Q3141.88 1903.73 3141.88 1898.92 M3146.52 1903.46 Q3146.52 1908.43 3147.44 1910.8 Q3147.58 1911.19 3147.9 1911.74 Q3148.25 1912.28 3148.82 1913 Q3149.41 1913.69 3150.37 1914.16 Q3151.34 1914.6 3152.45 1914.6 Q3155.83 1914.6 3157.46 1911.32 Q3158.33 1909.49 3158.33 1904.52 Q3158.33 1899.46 3157.42 1897.61 Q3155.86 1894.47 3152.7 1894.47 Q3150.57 1894.47 3149.09 1895.93 Q3147.63 1897.39 3147.06 1899.34 Q3146.52 1901.29 3146.52 1903.46 Z" fill="#000000" fill-rule="nonzero" fill-opacity="1" /><path clip-path="url(#clip700)" d="M3516.76 1907.27 Q3516.76 1901.61 3524.05 1897.95 Q3520.91 1895.83 3520.34 1895.21 Q3518.12 1892.74 3518.12 1889.65 Q3518.12 1886.12 3520.79 1883.67 Q3523.48 1881.2 3527.29 1881.2 Q3530.92 1881.2 3533.66 1883.3 Q3536.4 1885.4 3536.4 1888.74 Q3536.4 1893.43 3530.27 1896.59 Q3534.33 1899.11 3535.29 1900.18 Q3537.76 1902.92 3537.76 1906.4 Q3537.76 1910.45 3534.65 1913.24 Q3531.53 1916.01 3527.24 1916.01 Q3523.04 1916.01 3519.9 1913.57 Q3516.76 1911.12 3516.76 1907.27 M3519.28 1907.27 Q3519.28 1910.4 3521.63 1912.5 Q3524 1914.6 3527.29 1914.6 Q3530.47 1914.6 3532.84 1912.78 Q3535.24 1910.95 3535.24 1908.23 Q3535.24 1907.17 3534.87 1906.25 Q3534.52 1905.34 3533.81 1904.62 Q3533.12 1903.88 3532.67 1903.56 Q3532.25 1903.22 3531.44 1902.65 L3525.21 1898.72 Q3519.28 1902 3519.28 1907.27 M3520.34 1887.68 Q3520.34 1890.1 3522.89 1891.78 L3529.16 1895.83 Q3534.18 1892.89 3534.18 1888.74 Q3534.18 1886.05 3532.13 1884.27 Q3530.08 1882.46 3527.24 1882.46 Q3524.44 1882.46 3522.39 1883.95 Q3520.34 1885.4 3520.34 1887.68 Z" fill="#000000" fill-rule="nonzero" fill-opacity="1" /><path clip-path="url(#clip700)" d="M3880.11 1886.02 L3880.11 1884.44 Q3886.19 1884.44 3889.33 1881.2 Q3890.19 1881.2 3890.34 1881.4 Q3890.49 1881.6 3890.49 1882.51 L3890.49 1910.9 Q3890.49 1912.4 3891.23 1912.87 Q3891.97 1913.34 3895.2 1913.34 L3896.81 1913.34 L3896.81 1914.9 Q3895.03 1914.75 3888.61 1914.75 Q3882.19 1914.75 3880.43 1914.9 L3880.43 1913.34 L3882.04 1913.34 Q3885.22 1913.34 3885.99 1912.9 Q3886.76 1912.43 3886.76 1910.9 L3886.76 1884.69 Q3884.11 1886.02 3880.11 1886.02 Z" fill="#000000" fill-rule="nonzero" fill-opacity="1" /><path clip-path="url(#clip700)" d="M3902.89 1898.72 Q3902.89 1891.28 3904.76 1887.23 Q3907.38 1881.2 3913.56 1881.2 Q3914.87 1881.2 3916.23 1881.58 Q3917.61 1881.92 3919.34 1883.28 Q3921.09 1884.64 3922.16 1886.86 Q3924.18 1891.16 3924.18 1898.72 Q3924.18 1906.11 3922.3 1910.13 Q3919.56 1916.01 3913.51 1916.01 Q3911.24 1916.01 3908.92 1914.85 Q3906.62 1913.69 3905.16 1910.9 Q3902.89 1906.72 3902.89 1898.72 M3907.09 1898.1 Q3907.09 1905.73 3907.63 1908.77 Q3908.25 1912.06 3909.93 1913.49 Q3911.63 1914.9 3913.51 1914.9 Q3915.54 1914.9 3917.22 1913.39 Q3918.92 1911.86 3919.44 1908.58 Q3920.01 1905.34 3919.98 1898.1 Q3919.98 1891.06 3919.49 1888.24 Q3918.82 1884.96 3917.04 1883.65 Q3915.29 1882.32 3913.51 1882.32 Q3912.84 1882.32 3912.13 1882.51 Q3911.43 1882.71 3910.42 1883.28 Q3909.41 1883.85 3908.62 1885.26 Q3907.85 1886.66 3907.48 1888.79 Q3907.09 1891.53 3907.09 1898.1 Z" fill="#000000" fill-rule="nonzero" fill-opacity="1" /><path clip-path="url(#clip700)" d="M3047.77 1980.74 L3047.77 1979.22 Q3050.96 1979.08 3053.07 1976.84 Q3055.21 1974.56 3055.92 1971.78 Q3056.67 1968.99 3056.74 1965.77 L3058.47 1965.77 L3058.47 1978.57 L3068.42 1978.57 L3068.42 1980.74 L3058.47 1980.74 L3058.47 2000.07 Q3058.47 2007.58 3063.16 2007.58 Q3065.16 2007.58 3066.48 2005.54 Q3067.81 2003.47 3067.81 1999.8 L3067.81 1995.96 L3069.54 1995.96 L3069.54 1999.94 Q3069.54 2003.71 3067.81 2006.53 Q3066.08 2009.35 3062.65 2009.35 Q3061.39 2009.35 3060.13 2009.01 Q3058.91 2008.7 3057.28 2007.88 Q3055.68 2007.04 3054.66 2005 Q3053.68 2002.93 3053.68 1999.94 L3053.68 1980.74 L3047.77 1980.74 Z" fill="#000000" fill-rule="nonzero" fill-opacity="1" /><polyline clip-path="url(#clip703)" style="stroke:#000000; stroke-linecap:round; stroke-linejoin:round; stroke-width:2; stroke-opacity:0.1; fill:none" points="2164.55,1525 3952.76,1525 "/>
<polyline clip-path="url(#clip703)" style="stroke:#000000; stroke-linecap:round; stroke-linejoin:round; stroke-width:2; stroke-opacity:0.1; fill:none" points="2164.55,1137.32 3952.76,1137.32 "/>
<polyline clip-path="url(#clip703)" style="stroke:#000000; stroke-linecap:round; stroke-linejoin:round; stroke-width:2; stroke-opacity:0.1; fill:none" points="2164.55,749.628 3952.76,749.628 "/>
<polyline clip-path="url(#clip703)" style="stroke:#000000; stroke-linecap:round; stroke-linejoin:round; stroke-width:2; stroke-opacity:0.1; fill:none" points="2164.55,361.941 3952.76,361.941 "/>
<polyline clip-path="url(#clip700)" style="stroke:#000000; stroke-linecap:round; stroke-linejoin:round; stroke-width:4; stroke-opacity:1; fill:none" points="2164.55,1839.7 2164.55,47.2441 "/>
<polyline clip-path="url(#clip700)" style="stroke:#000000; stroke-linecap:round; stroke-linejoin:round; stroke-width:4; stroke-opacity:1; fill:none" points="2164.55,1525 2183.45,1525 "/>
<polyline clip-path="url(#clip700)" style="stroke:#000000; stroke-linecap:round; stroke-linejoin:round; stroke-width:4; stroke-opacity:1; fill:none" points="2164.55,1137.32 2183.45,1137.32 "/>
<polyline clip-path="url(#clip700)" style="stroke:#000000; stroke-linecap:round; stroke-linejoin:round; stroke-width:4; stroke-opacity:1; fill:none" points="2164.55,749.628 2183.45,749.628 "/>
<polyline clip-path="url(#clip700)" style="stroke:#000000; stroke-linecap:round; stroke-linejoin:round; stroke-width:4; stroke-opacity:1; fill:none" points="2164.55,361.941 2183.45,361.941 "/>
<path clip-path="url(#clip700)" d="M2044.45 1526.1 Q2044.45 1518.67 2046.33 1514.61 Q2048.95 1508.59 2055.12 1508.59 Q2056.43 1508.59 2057.79 1508.96 Q2059.17 1509.3 2060.9 1510.66 Q2062.66 1512.02 2063.72 1514.24 Q2065.74 1518.54 2065.74 1526.1 Q2065.74 1533.49 2063.87 1537.51 Q2061.12 1543.39 2055.07 1543.39 Q2052.8 1543.39 2050.48 1542.23 Q2048.18 1541.07 2046.72 1538.28 Q2044.45 1534.11 2044.45 1526.1 M2048.65 1525.48 Q2048.65 1533.12 2049.19 1536.16 Q2049.81 1539.44 2051.49 1540.87 Q2053.19 1542.28 2055.07 1542.28 Q2057.1 1542.28 2058.78 1540.78 Q2060.48 1539.24 2061 1535.96 Q2061.57 1532.72 2061.54 1525.48 Q2061.54 1518.44 2061.05 1515.63 Q2060.38 1512.34 2058.6 1511.03 Q2056.85 1509.7 2055.07 1509.7 Q2054.41 1509.7 2053.69 1509.9 Q2053 1510.09 2051.98 1510.66 Q2050.97 1511.23 2050.18 1512.64 Q2049.41 1514.05 2049.04 1516.17 Q2048.65 1518.91 2048.65 1525.48 Z" fill="#000000" fill-rule="nonzero" fill-opacity="1" /><path clip-path="url(#clip700)" d="M2072.83 1541.47 Q2072.07 1540.65 2072.07 1539.59 Q2072.07 1538.53 2072.83 1537.76 Q2073.6 1536.97 2074.76 1536.97 Q2075.87 1536.97 2076.61 1537.71 Q2077.38 1538.43 2077.38 1539.61 Q2077.38 1540.78 2076.56 1541.54 Q2075.77 1542.28 2074.76 1542.28 Q2073.6 1542.28 2072.83 1541.47 Z" fill="#000000" fill-rule="nonzero" fill-opacity="1" /><path clip-path="url(#clip700)" d="M2084.35 1542.28 Q2084.35 1541.37 2084.42 1541.1 Q2084.52 1540.82 2084.91 1540.41 L2094.62 1529.58 Q2099.93 1523.61 2099.93 1518.39 Q2099.93 1515.01 2098.15 1512.59 Q2096.4 1510.17 2093.16 1510.17 Q2090.94 1510.17 2089.06 1511.53 Q2087.19 1512.89 2086.32 1515.31 Q2086.47 1515.26 2086.99 1515.26 Q2088.25 1515.26 2088.94 1516.05 Q2089.66 1516.84 2089.66 1517.9 Q2089.66 1519.26 2088.77 1519.93 Q2087.9 1520.57 2087.04 1520.57 Q2086.69 1520.57 2086.22 1520.49 Q2085.78 1520.42 2085.06 1519.73 Q2084.35 1519.01 2084.35 1517.75 Q2084.35 1514.22 2087.01 1511.4 Q2089.71 1508.59 2093.81 1508.59 Q2098.45 1508.59 2101.49 1511.35 Q2104.55 1514.1 2104.55 1518.39 Q2104.55 1519.9 2104.08 1521.28 Q2103.64 1522.64 2103.02 1523.71 Q2102.43 1524.77 2100.8 1526.47 Q2099.17 1528.18 2097.86 1529.39 Q2096.55 1530.6 2093.61 1533.17 L2088.25 1538.38 L2097.36 1538.38 Q2101.81 1538.38 2102.16 1537.98 Q2102.65 1537.27 2103.27 1533.49 L2104.55 1533.49 L2103.12 1542.28 L2084.35 1542.28 Z" fill="#000000" fill-rule="nonzero" fill-opacity="1" /><path clip-path="url(#clip700)" d="M2043.34 1138.41 Q2043.34 1130.98 2045.22 1126.93 Q2047.83 1120.9 2054.01 1120.9 Q2055.32 1120.9 2056.68 1121.27 Q2058.06 1121.62 2059.79 1122.98 Q2061.54 1124.33 2062.61 1126.56 Q2064.63 1130.86 2064.63 1138.41 Q2064.63 1145.8 2062.75 1149.83 Q2060.01 1155.71 2053.96 1155.71 Q2051.69 1155.71 2049.37 1154.55 Q2047.07 1153.39 2045.61 1150.59 Q2043.34 1146.42 2043.34 1138.41 M2047.54 1137.8 Q2047.54 1145.43 2048.08 1148.47 Q2048.7 1151.75 2050.38 1153.19 Q2052.08 1154.6 2053.96 1154.6 Q2055.99 1154.6 2057.67 1153.09 Q2059.37 1151.56 2059.89 1148.27 Q2060.46 1145.04 2060.43 1137.8 Q2060.43 1130.76 2059.94 1127.94 Q2059.27 1124.65 2057.49 1123.35 Q2055.74 1122.01 2053.96 1122.01 Q2053.29 1122.01 2052.58 1122.21 Q2051.89 1122.41 2050.87 1122.98 Q2049.86 1123.54 2049.07 1124.95 Q2048.3 1126.36 2047.93 1128.48 Q2047.54 1131.23 2047.54 1137.8 Z" fill="#000000" fill-rule="nonzero" fill-opacity="1" /><path clip-path="url(#clip700)" d="M2071.72 1153.78 Q2070.96 1152.97 2070.96 1151.9 Q2070.96 1150.84 2071.72 1150.07 Q2072.49 1149.28 2073.65 1149.28 Q2074.76 1149.28 2075.5 1150.03 Q2076.27 1150.74 2076.27 1151.93 Q2076.27 1153.09 2075.45 1153.85 Q2074.66 1154.6 2073.65 1154.6 Q2072.49 1154.6 2071.72 1153.78 Z" fill="#000000" fill-rule="nonzero" fill-opacity="1" /><path clip-path="url(#clip700)" d="M2082.12 1146.25 L2082.12 1144.69 L2097.66 1120.95 Q2098.06 1120.33 2098.67 1120.36 Q2099.24 1120.36 2099.37 1120.58 Q2099.49 1120.8 2099.49 1121.67 L2099.49 1144.69 L2104.55 1144.69 L2104.55 1146.25 L2099.49 1146.25 L2099.49 1150.64 Q2099.49 1152.1 2100.08 1152.57 Q2100.7 1153.04 2103.32 1153.04 L2104.38 1153.04 L2104.38 1154.6 Q2102.3 1154.45 2097.51 1154.45 Q2092.74 1154.45 2090.67 1154.6 L2090.67 1153.04 L2091.73 1153.04 Q2094.35 1153.04 2094.97 1152.59 Q2095.59 1152.13 2095.59 1150.64 L2095.59 1146.25 L2082.12 1146.25 M2083.56 1144.69 L2095.88 1144.69 L2095.88 1125.82 L2083.56 1144.69 Z" fill="#000000" fill-rule="nonzero" fill-opacity="1" /><path clip-path="url(#clip700)" d="M2044.05 750.728 Q2044.05 743.292 2045.93 739.241 Q2048.55 733.213 2054.73 733.213 Q2056.04 733.213 2057.39 733.584 Q2058.78 733.929 2060.51 735.288 Q2062.26 736.647 2063.32 738.87 Q2065.35 743.169 2065.35 750.728 Q2065.35 758.114 2063.47 762.141 Q2060.73 768.02 2054.68 768.02 Q2052.4 768.02 2050.08 766.859 Q2047.78 765.698 2046.33 762.907 Q2044.05 758.732 2044.05 750.728 M2048.25 750.11 Q2048.25 757.744 2048.8 760.782 Q2049.41 764.068 2051.09 765.5 Q2052.8 766.908 2054.68 766.908 Q2056.7 766.908 2058.38 765.402 Q2060.09 763.87 2060.61 760.584 Q2061.17 757.348 2061.15 750.11 Q2061.15 743.07 2060.66 740.254 Q2059.99 736.968 2058.21 735.659 Q2056.46 734.325 2054.68 734.325 Q2054.01 734.325 2053.29 734.522 Q2052.6 734.72 2051.59 735.288 Q2050.58 735.856 2049.79 737.264 Q2049.02 738.673 2048.65 740.797 Q2048.25 743.539 2048.25 750.11 Z" fill="#000000" fill-rule="nonzero" fill-opacity="1" /><path clip-path="url(#clip700)" d="M2072.44 766.093 Q2071.67 765.278 2071.67 764.216 Q2071.67 763.154 2072.44 762.388 Q2073.2 761.597 2074.37 761.597 Q2075.48 761.597 2076.22 762.338 Q2076.98 763.055 2076.98 764.241 Q2076.98 765.402 2076.17 766.167 Q2075.38 766.908 2074.37 766.908 Q2073.2 766.908 2072.44 766.093 Z" fill="#000000" fill-rule="nonzero" fill-opacity="1" /><path clip-path="url(#clip700)" d="M2083.56 750.925 Q2083.56 742.971 2087.61 738.104 Q2091.66 733.213 2096.87 733.213 Q2099.91 733.213 2101.59 734.769 Q2103.29 736.301 2103.29 738.673 Q2103.29 739.982 2102.53 740.55 Q2101.76 741.118 2100.97 741.118 Q2100.06 741.118 2099.34 740.501 Q2098.62 739.883 2098.62 738.771 Q2098.62 736.499 2101.42 736.499 Q2100.11 734.473 2096.97 734.473 Q2096.01 734.473 2095.02 734.769 Q2094.03 735.041 2092.74 735.98 Q2091.46 736.919 2090.47 738.401 Q2089.48 739.883 2088.79 742.674 Q2088.1 745.466 2088.1 749.097 L2088.1 750.308 Q2090.18 745.293 2094.42 745.318 Q2098.67 745.318 2101.61 748.554 Q2104.55 751.79 2104.55 756.582 Q2104.55 761.498 2101.49 764.759 Q2098.43 768.02 2094.13 768.02 Q2092.2 768.02 2090.45 767.205 Q2088.72 766.414 2087.09 764.586 Q2085.48 762.758 2084.52 759.25 Q2083.56 755.743 2083.56 750.925 M2088.2 755.471 Q2088.2 760.436 2089.11 762.808 Q2089.26 763.203 2089.58 763.746 Q2089.93 764.29 2090.5 765.006 Q2091.09 765.698 2092.05 766.167 Q2093.02 766.612 2094.13 766.612 Q2097.51 766.612 2099.14 763.326 Q2100.01 761.498 2100.01 756.533 Q2100.01 751.469 2099.09 749.616 Q2097.54 746.479 2094.38 746.479 Q2092.25 746.479 2090.77 747.936 Q2089.31 749.394 2088.74 751.345 Q2088.2 753.297 2088.2 755.471 Z" fill="#000000" fill-rule="nonzero" fill-opacity="1" /><path clip-path="url(#clip700)" d="M2044.05 363.041 Q2044.05 355.605 2045.93 351.554 Q2048.55 345.526 2054.73 345.526 Q2056.04 345.526 2057.39 345.897 Q2058.78 346.242 2060.51 347.601 Q2062.26 348.96 2063.32 351.183 Q2065.35 355.482 2065.35 363.041 Q2065.35 370.427 2063.47 374.454 Q2060.73 380.333 2054.68 380.333 Q2052.4 380.333 2050.08 379.172 Q2047.78 378.011 2046.33 375.22 Q2044.05 371.045 2044.05 363.041 M2048.25 362.423 Q2048.25 370.057 2048.8 373.095 Q2049.41 376.381 2051.09 377.813 Q2052.8 379.221 2054.68 379.221 Q2056.7 379.221 2058.38 377.715 Q2060.09 376.183 2060.61 372.897 Q2061.17 369.661 2061.15 362.423 Q2061.15 355.383 2060.66 352.567 Q2059.99 349.281 2058.21 347.972 Q2056.46 346.638 2054.68 346.638 Q2054.01 346.638 2053.29 346.835 Q2052.6 347.033 2051.59 347.601 Q2050.58 348.169 2049.79 349.577 Q2049.02 350.986 2048.65 353.11 Q2048.25 355.852 2048.25 362.423 Z" fill="#000000" fill-rule="nonzero" fill-opacity="1" /><path clip-path="url(#clip700)" d="M2072.44 378.406 Q2071.67 377.591 2071.67 376.529 Q2071.67 375.467 2072.44 374.701 Q2073.2 373.91 2074.37 373.91 Q2075.48 373.91 2076.22 374.651 Q2076.98 375.368 2076.98 376.554 Q2076.98 377.715 2076.17 378.48 Q2075.38 379.221 2074.37 379.221 Q2073.2 379.221 2072.44 378.406 Z" fill="#000000" fill-rule="nonzero" fill-opacity="1" /><path clip-path="url(#clip700)" d="M2083.56 371.588 Q2083.56 365.931 2090.84 362.275 Q2087.71 360.15 2087.14 359.533 Q2084.91 357.063 2084.91 353.975 Q2084.91 350.442 2087.58 347.996 Q2090.27 345.526 2094.08 345.526 Q2097.71 345.526 2100.45 347.626 Q2103.19 349.726 2103.19 353.061 Q2103.19 357.754 2097.07 360.916 Q2101.12 363.436 2102.08 364.498 Q2104.55 367.24 2104.55 370.724 Q2104.55 374.775 2101.44 377.566 Q2098.33 380.333 2094.03 380.333 Q2089.83 380.333 2086.69 377.887 Q2083.56 375.442 2083.56 371.588 M2086.07 371.588 Q2086.07 374.725 2088.42 376.825 Q2090.79 378.925 2094.08 378.925 Q2097.27 378.925 2099.64 377.097 Q2102.03 375.269 2102.03 372.552 Q2102.03 371.489 2101.66 370.575 Q2101.32 369.661 2100.6 368.945 Q2099.91 368.204 2099.46 367.883 Q2099.04 367.537 2098.23 366.969 L2092 363.041 Q2086.07 366.326 2086.07 371.588 M2087.14 351.998 Q2087.14 354.419 2089.68 356.099 L2095.96 360.15 Q2100.97 357.211 2100.97 353.061 Q2100.97 350.368 2098.92 348.589 Q2096.87 346.786 2094.03 346.786 Q2091.24 346.786 2089.19 348.268 Q2087.14 349.726 2087.14 351.998 Z" fill="#000000" fill-rule="nonzero" fill-opacity="1" /><polyline clip-path="url(#clip703)" style="stroke:#009af9; stroke-linecap:round; stroke-linejoin:round; stroke-width:8; stroke-opacity:1; fill:none" points="2215.16,857.14 2402.61,1280.5 2590.05,1773.87 2777.49,1655.43 2964.93,1088.85 3152.38,857.14 3339.82,1280.5 3527.26,1773.87 3714.7,1655.43 3902.15,1088.85 "/>
<polyline clip-path="url(#clip703)" style="stroke:#009af9; stroke-linecap:round; stroke-linejoin:round; stroke-width:8; stroke-opacity:1; fill:none" stroke-dasharray="32, 20" points="2215.16,899.151 2402.61,1377.69 2590.05,1684.72 2777.49,1549.11 2964.93,1079.11 3152.38,812.669 3339.82,1178.58 3527.26,1788.97 3714.7,1679.86 3902.15,1058.99 "/>
<polyline clip-path="url(#clip703)" style="stroke:#e26f46; stroke-linecap:round; stroke-linejoin:round; stroke-width:8; stroke-opacity:1; fill:none" points="2215.16,1029.8 2402.61,606.44 2590.05,113.073 2777.49,231.518 2964.93,798.089 3152.38,1029.8 3339.82,606.44 3527.26,113.073 3714.7,231.518 3902.15,798.089 "/>
<polyline clip-path="url(#clip703)" style="stroke:#e26f46; stroke-linecap:round; stroke-linejoin:round; stroke-width:8; stroke-opacity:1; fill:none" stroke-dasharray="32, 20" points="2215.16,987.793 2402.61,509.254 2590.05,202.219 2777.49,337.834 2964.93,807.835 3152.38,1074.27 3339.82,708.368 3527.26,97.974 3714.7,207.081 3902.15,827.956 "/>
<path clip-path="url(#clip700)" d="M2224.16 438.647 L2531.2 438.647 L2531.2 106.993 L2224.16 106.993  Z" fill="#ffffff" fill-rule="evenodd" fill-opacity="1"/>
<polyline clip-path="url(#clip700)" style="stroke:#000000; stroke-linecap:round; stroke-linejoin:round; stroke-width:4; stroke-opacity:1; fill:none" points="2224.16,438.647 2531.2,438.647 2531.2,106.993 2224.16,106.993 2224.16,438.647 "/>
<polyline clip-path="url(#clip700)" style="stroke:#009af9; stroke-linecap:round; stroke-linejoin:round; stroke-width:8; stroke-opacity:1; fill:none" points="2244.03,173.324 2363.24,173.324 "/>
<path clip-path="url(#clip700)" d="M2416.28 157.734 Q2416.28 161.107 2415.06 164.456 Q2413.84 167.782 2411.8 170.476 Q2409.79 173.17 2407.17 175.254 Q2404.57 177.315 2401.78 178.369 Q2402.13 181.18 2402.83 182.234 Q2403.56 183.311 2405.17 183.311 Q2406.11 183.311 2407.12 182.89 Q2408.15 182.468 2409.2 181.367 Q2410.26 180.29 2410.8 178.697 Q2410.96 178.182 2411.38 178.182 Q2411.55 178.182 2411.71 178.322 Q2411.9 178.44 2411.9 178.65 Q2411.9 178.838 2411.69 179.517 Q2411.5 180.22 2411.1 181.297 Q2410.7 182.375 2410.02 183.499 Q2409.34 184.647 2408.5 185.654 Q2407.68 186.661 2406.46 187.293 Q2405.25 187.949 2403.89 187.949 Q2402.76 187.949 2401.94 187.527 Q2401.15 187.106 2400.75 186.567 Q2400.37 186.028 2400.16 185.162 Q2399.95 184.319 2399.93 183.85 Q2399.9 183.382 2399.9 182.679 Q2399.9 181.953 2400.09 178.978 Q2397.56 179.704 2395.41 179.704 Q2390.09 179.704 2386.6 176.214 Q2383.11 172.725 2383.11 166.892 Q2383.11 162.817 2384.94 158.765 Q2386.76 154.689 2389.67 151.668 Q2392.57 148.623 2396.39 146.726 Q2400.23 144.828 2404.03 144.828 Q2409.41 144.828 2412.83 148.412 Q2416.28 151.972 2416.28 157.734 M2412.04 156.212 Q2412.04 151.48 2409.72 148.763 Q2407.42 146.023 2403.75 146.023 Q2400.94 146.023 2397.82 147.826 Q2394.73 149.63 2392.22 153.12 Q2389.76 156.61 2388.55 160.99 Q2387.35 165.37 2387.35 168.438 Q2387.35 171.834 2388.69 174.387 Q2390.02 176.917 2392.71 177.971 Q2392.43 177.409 2392.43 176.449 Q2392.43 174.575 2393.93 173.076 Q2395.43 171.553 2397.33 171.553 Q2398.17 171.553 2398.83 171.811 Q2399.51 172.045 2399.93 172.537 Q2400.37 173.029 2400.65 173.497 Q2400.96 173.942 2401.12 174.669 Q2401.31 175.371 2401.38 175.746 Q2401.45 176.097 2401.54 176.73 Q2403.84 175.442 2405.71 173.333 Q2407.59 171.202 2408.74 168.953 Q2409.88 166.682 2410.66 164.222 Q2411.43 161.739 2411.73 159.772 Q2412.04 157.781 2412.04 156.212 M2400.23 176.683 Q2400.23 174.505 2399.53 173.568 Q2398.85 172.607 2397.33 172.607 Q2395.83 172.607 2394.66 173.802 Q2393.49 174.996 2393.49 176.449 Q2393.49 177.175 2393.7 177.643 Q2393.93 178.088 2394.35 178.276 Q2394.78 178.44 2395.03 178.486 Q2395.29 178.51 2395.69 178.51 Q2397.73 178.51 2399.72 177.643 Q2400.07 177.503 2400.14 177.362 Q2400.23 177.222 2400.23 176.683 Z" fill="#000000" fill-rule="nonzero" fill-opacity="1" /><path clip-path="url(#clip700)" d="M2421.07 201.158 Q2421.07 200.552 2421.12 200.371 Q2421.18 200.191 2421.45 199.912 L2427.89 192.731 Q2431.42 188.763 2431.42 185.304 Q2431.42 183.057 2430.23 181.451 Q2429.07 179.844 2426.92 179.844 Q2425.45 179.844 2424.2 180.746 Q2422.96 181.647 2422.38 183.254 Q2422.48 183.221 2422.82 183.221 Q2423.66 183.221 2424.12 183.746 Q2424.59 184.271 2424.59 184.976 Q2424.59 185.877 2424 186.32 Q2423.43 186.746 2422.86 186.746 Q2422.63 186.746 2422.32 186.697 Q2422.02 186.648 2421.55 186.189 Q2421.07 185.713 2421.07 184.877 Q2421.07 182.533 2422.84 180.664 Q2424.63 178.794 2427.35 178.794 Q2430.43 178.794 2432.45 180.631 Q2434.48 182.451 2434.48 185.304 Q2434.48 186.304 2434.17 187.222 Q2433.87 188.124 2433.46 188.829 Q2433.07 189.534 2431.99 190.665 Q2430.91 191.796 2430.04 192.6 Q2429.17 193.403 2427.22 195.108 L2423.66 198.568 L2429.71 198.568 Q2432.66 198.568 2432.89 198.305 Q2433.22 197.83 2433.63 195.321 L2434.48 195.321 L2433.53 201.158 L2421.07 201.158 Z" fill="#000000" fill-rule="nonzero" fill-opacity="1" /><path clip-path="url(#clip700)" d="M2476.43 192.321 Q2476.72 192.436 2476.72 192.764 Q2476.72 193.092 2476.43 193.206 Q2473.97 194.026 2471.82 196.699 Q2470.29 198.682 2469.87 200.961 Q2469.82 201.191 2469.64 201.339 Q2469.46 201.486 2469.21 201.486 Q2468.93 201.486 2468.74 201.289 Q2468.54 201.109 2468.54 200.83 Q2468.54 200.814 2468.56 200.765 Q2468.57 200.699 2468.57 200.683 Q2469.07 198.027 2470.79 195.846 Q2471.87 194.469 2473.41 193.436 L2447.69 193.436 Q2447.41 193.436 2447.21 193.239 Q2447.01 193.042 2447.01 192.764 Q2447.01 192.485 2447.21 192.288 Q2447.41 192.091 2447.69 192.091 L2473.41 192.091 Q2471.87 191.058 2470.79 189.681 Q2469.07 187.501 2468.57 184.844 Q2468.57 184.828 2468.56 184.779 Q2468.54 184.713 2468.54 184.697 Q2468.54 184.418 2468.74 184.238 Q2468.93 184.041 2469.21 184.041 Q2469.46 184.041 2469.64 184.189 Q2469.82 184.336 2469.87 184.566 Q2470.29 186.845 2471.82 188.829 Q2473.97 191.501 2476.43 192.321 Z" fill="#000000" fill-rule="nonzero" fill-opacity="1" /><path clip-path="url(#clip700)" d="M2489.58 181.992 L2489.58 180.942 Q2493.61 180.942 2495.7 178.794 Q2496.27 178.794 2496.37 178.926 Q2496.47 179.057 2496.47 179.663 L2496.47 198.502 Q2496.47 199.502 2496.96 199.814 Q2497.45 200.125 2499.6 200.125 L2500.66 200.125 L2500.66 201.158 Q2499.48 201.06 2495.22 201.06 Q2490.96 201.06 2489.79 201.158 L2489.79 200.125 L2490.86 200.125 Q2492.98 200.125 2493.48 199.83 Q2493.99 199.519 2493.99 198.502 L2493.99 181.106 Q2492.24 181.992 2489.58 181.992 Z" fill="#000000" fill-rule="nonzero" fill-opacity="1" /><polyline clip-path="url(#clip700)" style="stroke:#009af9; stroke-linecap:round; stroke-linejoin:round; stroke-width:8; stroke-opacity:1; fill:none" stroke-dasharray="32, 20" points="2244.03,239.654 2363.24,239.654 "/>
<path clip-path="url(#clip700)" d="M2409.7 210.518 L2409.29 211.19 Q2406.74 210.092 2403.58 208.337 Q2400.42 210.092 2397.87 211.19 L2397.48 210.518 Q2400.25 208.108 2403.58 206.255 Q2406.94 208.124 2409.7 210.518 Z" fill="#000000" fill-rule="nonzero" fill-opacity="1" /><path clip-path="url(#clip700)" d="M2416.28 229.068 Q2416.28 232.441 2415.06 235.79 Q2413.84 239.116 2411.8 241.81 Q2409.79 244.503 2407.17 246.588 Q2404.57 248.649 2401.78 249.703 Q2402.13 252.514 2402.83 253.568 Q2403.56 254.645 2405.17 254.645 Q2406.11 254.645 2407.12 254.223 Q2408.15 253.802 2409.2 252.701 Q2410.26 251.624 2410.8 250.031 Q2410.96 249.516 2411.38 249.516 Q2411.55 249.516 2411.71 249.656 Q2411.9 249.773 2411.9 249.984 Q2411.9 250.171 2411.69 250.851 Q2411.5 251.553 2411.1 252.631 Q2410.7 253.708 2410.02 254.832 Q2409.34 255.98 2408.5 256.987 Q2407.68 257.995 2406.46 258.627 Q2405.25 259.283 2403.89 259.283 Q2402.76 259.283 2401.94 258.861 Q2401.15 258.44 2400.75 257.901 Q2400.37 257.362 2400.16 256.495 Q2399.95 255.652 2399.93 255.184 Q2399.9 254.715 2399.9 254.013 Q2399.9 253.287 2400.09 250.312 Q2397.56 251.038 2395.41 251.038 Q2390.09 251.038 2386.6 247.548 Q2383.11 244.058 2383.11 238.226 Q2383.11 234.15 2384.94 230.098 Q2386.76 226.023 2389.67 223.001 Q2392.57 219.956 2396.39 218.059 Q2400.23 216.162 2404.03 216.162 Q2409.41 216.162 2412.83 219.746 Q2416.28 223.306 2416.28 229.068 M2412.04 227.545 Q2412.04 222.814 2409.72 220.097 Q2407.42 217.357 2403.75 217.357 Q2400.94 217.357 2397.82 219.16 Q2394.73 220.964 2392.22 224.454 Q2389.76 227.944 2388.55 232.324 Q2387.35 236.703 2387.35 239.772 Q2387.35 243.168 2388.69 245.721 Q2390.02 248.251 2392.71 249.305 Q2392.43 248.743 2392.43 247.782 Q2392.43 245.909 2393.93 244.409 Q2395.43 242.887 2397.33 242.887 Q2398.17 242.887 2398.83 243.145 Q2399.51 243.379 2399.93 243.871 Q2400.37 244.363 2400.65 244.831 Q2400.96 245.276 2401.12 246.002 Q2401.31 246.705 2401.38 247.08 Q2401.45 247.431 2401.54 248.063 Q2403.84 246.775 2405.71 244.667 Q2407.59 242.536 2408.74 240.287 Q2409.88 238.015 2410.66 235.556 Q2411.43 233.073 2411.73 231.106 Q2412.04 229.115 2412.04 227.545 M2400.23 248.017 Q2400.23 245.838 2399.53 244.901 Q2398.85 243.941 2397.33 243.941 Q2395.83 243.941 2394.66 245.136 Q2393.49 246.33 2393.49 247.782 Q2393.49 248.508 2393.7 248.977 Q2393.93 249.422 2394.35 249.609 Q2394.78 249.773 2395.03 249.82 Q2395.29 249.843 2395.69 249.843 Q2397.73 249.843 2399.72 248.977 Q2400.07 248.836 2400.14 248.696 Q2400.23 248.555 2400.23 248.017 Z" fill="#000000" fill-rule="nonzero" fill-opacity="1" /><path clip-path="url(#clip700)" d="M2421.07 272.492 Q2421.07 271.885 2421.12 271.705 Q2421.18 271.524 2421.45 271.246 L2427.89 264.064 Q2431.42 260.097 2431.42 256.637 Q2431.42 254.391 2430.23 252.784 Q2429.07 251.177 2426.92 251.177 Q2425.45 251.177 2424.2 252.079 Q2422.96 252.981 2422.38 254.588 Q2422.48 254.555 2422.82 254.555 Q2423.66 254.555 2424.12 255.08 Q2424.59 255.604 2424.59 256.309 Q2424.59 257.211 2424 257.654 Q2423.43 258.08 2422.86 258.08 Q2422.63 258.08 2422.32 258.031 Q2422.02 257.982 2421.55 257.523 Q2421.07 257.047 2421.07 256.211 Q2421.07 253.866 2422.84 251.997 Q2424.63 250.128 2427.35 250.128 Q2430.43 250.128 2432.45 251.964 Q2434.48 253.784 2434.48 256.637 Q2434.48 257.637 2434.17 258.555 Q2433.87 259.457 2433.46 260.162 Q2433.07 260.867 2431.99 261.999 Q2430.91 263.13 2430.04 263.933 Q2429.17 264.737 2427.22 266.442 L2423.66 269.901 L2429.71 269.901 Q2432.66 269.901 2432.89 269.639 Q2433.22 269.164 2433.63 266.655 L2434.48 266.655 L2433.53 272.492 L2421.07 272.492 Z" fill="#000000" fill-rule="nonzero" fill-opacity="1" /><path clip-path="url(#clip700)" d="M2476.43 263.655 Q2476.72 263.769 2476.72 264.097 Q2476.72 264.425 2476.43 264.54 Q2473.97 265.36 2471.82 268.032 Q2470.29 270.016 2469.87 272.295 Q2469.82 272.525 2469.64 272.672 Q2469.46 272.82 2469.21 272.82 Q2468.93 272.82 2468.74 272.623 Q2468.54 272.443 2468.54 272.164 Q2468.54 272.148 2468.56 272.098 Q2468.57 272.033 2468.57 272.016 Q2469.07 269.36 2470.79 267.18 Q2471.87 265.802 2473.41 264.769 L2447.69 264.769 Q2447.41 264.769 2447.21 264.573 Q2447.01 264.376 2447.01 264.097 Q2447.01 263.819 2447.21 263.622 Q2447.41 263.425 2447.69 263.425 L2473.41 263.425 Q2471.87 262.392 2470.79 261.015 Q2469.07 258.834 2468.57 256.178 Q2468.57 256.162 2468.56 256.113 Q2468.54 256.047 2468.54 256.031 Q2468.54 255.752 2468.74 255.571 Q2468.93 255.375 2469.21 255.375 Q2469.46 255.375 2469.64 255.522 Q2469.82 255.67 2469.87 255.899 Q2470.29 258.178 2471.82 260.162 Q2473.97 262.835 2476.43 263.655 Z" fill="#000000" fill-rule="nonzero" fill-opacity="1" /><path clip-path="url(#clip700)" d="M2489.58 253.325 L2489.58 252.276 Q2493.61 252.276 2495.7 250.128 Q2496.27 250.128 2496.37 250.259 Q2496.47 250.39 2496.47 250.997 L2496.47 269.836 Q2496.47 270.836 2496.96 271.147 Q2497.45 271.459 2499.6 271.459 L2500.66 271.459 L2500.66 272.492 Q2499.48 272.393 2495.22 272.393 Q2490.96 272.393 2489.79 272.492 L2489.79 271.459 L2490.86 271.459 Q2492.98 271.459 2493.48 271.164 Q2493.99 270.852 2493.99 269.836 L2493.99 252.44 Q2492.24 253.325 2489.58 253.325 Z" fill="#000000" fill-rule="nonzero" fill-opacity="1" /><polyline clip-path="url(#clip700)" style="stroke:#e26f46; stroke-linecap:round; stroke-linejoin:round; stroke-width:8; stroke-opacity:1; fill:none" points="2244.03,305.985 2363.24,305.985 "/>
<path clip-path="url(#clip700)" d="M2416.28 290.396 Q2416.28 293.769 2415.06 297.118 Q2413.84 300.444 2411.8 303.138 Q2409.79 305.831 2407.17 307.916 Q2404.57 309.977 2401.78 311.031 Q2402.13 313.842 2402.83 314.896 Q2403.56 315.973 2405.17 315.973 Q2406.11 315.973 2407.12 315.552 Q2408.15 315.13 2409.2 314.029 Q2410.26 312.952 2410.8 311.359 Q2410.96 310.844 2411.38 310.844 Q2411.55 310.844 2411.71 310.984 Q2411.9 311.101 2411.9 311.312 Q2411.9 311.5 2411.69 312.179 Q2411.5 312.882 2411.1 313.959 Q2410.7 315.036 2410.02 316.161 Q2409.34 317.308 2408.5 318.316 Q2407.68 319.323 2406.46 319.955 Q2405.25 320.611 2403.89 320.611 Q2402.76 320.611 2401.94 320.189 Q2401.15 319.768 2400.75 319.229 Q2400.37 318.69 2400.16 317.824 Q2399.95 316.98 2399.93 316.512 Q2399.9 316.044 2399.9 315.341 Q2399.9 314.615 2400.09 311.64 Q2397.56 312.366 2395.41 312.366 Q2390.09 312.366 2386.6 308.876 Q2383.11 305.386 2383.11 299.554 Q2383.11 295.479 2384.94 291.427 Q2386.76 287.351 2389.67 284.33 Q2392.57 281.285 2396.39 279.387 Q2400.23 277.49 2404.03 277.49 Q2409.41 277.49 2412.83 281.074 Q2416.28 284.634 2416.28 290.396 M2412.04 288.874 Q2412.04 284.142 2409.72 281.425 Q2407.42 278.685 2403.75 278.685 Q2400.94 278.685 2397.82 280.488 Q2394.73 282.292 2392.22 285.782 Q2389.76 289.272 2388.55 293.652 Q2387.35 298.032 2387.35 301.1 Q2387.35 304.496 2388.69 307.049 Q2390.02 309.579 2392.71 310.633 Q2392.43 310.071 2392.43 309.111 Q2392.43 307.237 2393.93 305.738 Q2395.43 304.215 2397.33 304.215 Q2398.17 304.215 2398.83 304.473 Q2399.51 304.707 2399.93 305.199 Q2400.37 305.691 2400.65 306.159 Q2400.96 306.604 2401.12 307.33 Q2401.31 308.033 2401.38 308.408 Q2401.45 308.759 2401.54 309.392 Q2403.84 308.103 2405.71 305.995 Q2407.59 303.864 2408.74 301.615 Q2409.88 299.343 2410.66 296.884 Q2411.43 294.401 2411.73 292.434 Q2412.04 290.443 2412.04 288.874 M2400.23 309.345 Q2400.23 307.166 2399.53 306.23 Q2398.85 305.269 2397.33 305.269 Q2395.83 305.269 2394.66 306.464 Q2393.49 307.658 2393.49 309.111 Q2393.49 309.837 2393.7 310.305 Q2393.93 310.75 2394.35 310.937 Q2394.78 311.101 2395.03 311.148 Q2395.29 311.172 2395.69 311.172 Q2397.73 311.172 2399.72 310.305 Q2400.07 310.165 2400.14 310.024 Q2400.23 309.883 2400.23 309.345 Z" fill="#000000" fill-rule="nonzero" fill-opacity="1" /><path clip-path="url(#clip700)" d="M2421.07 333.82 Q2421.07 333.213 2421.12 333.033 Q2421.18 332.853 2421.45 332.574 L2427.89 325.393 Q2431.42 321.425 2431.42 317.965 Q2431.42 315.719 2430.23 314.112 Q2429.07 312.506 2426.92 312.506 Q2425.45 312.506 2424.2 313.407 Q2422.96 314.309 2422.38 315.916 Q2422.48 315.883 2422.82 315.883 Q2423.66 315.883 2424.12 316.408 Q2424.59 316.932 2424.59 317.638 Q2424.59 318.539 2424 318.982 Q2423.43 319.408 2422.86 319.408 Q2422.63 319.408 2422.32 319.359 Q2422.02 319.31 2421.55 318.851 Q2421.07 318.375 2421.07 317.539 Q2421.07 315.195 2422.84 313.325 Q2424.63 311.456 2427.35 311.456 Q2430.43 311.456 2432.45 313.293 Q2434.48 315.113 2434.48 317.965 Q2434.48 318.966 2434.17 319.884 Q2433.87 320.785 2433.46 321.49 Q2433.07 322.196 2431.99 323.327 Q2430.91 324.458 2430.04 325.262 Q2429.17 326.065 2427.22 327.77 L2423.66 331.23 L2429.71 331.23 Q2432.66 331.23 2432.89 330.967 Q2433.22 330.492 2433.63 327.983 L2434.48 327.983 L2433.53 333.82 L2421.07 333.82 Z" fill="#000000" fill-rule="nonzero" fill-opacity="1" /><path clip-path="url(#clip700)" d="M2476.43 324.983 Q2476.72 325.098 2476.72 325.425 Q2476.72 325.753 2476.43 325.868 Q2473.97 326.688 2471.82 329.36 Q2470.29 331.344 2469.87 333.623 Q2469.82 333.853 2469.64 334 Q2469.46 334.148 2469.21 334.148 Q2468.93 334.148 2468.74 333.951 Q2468.54 333.771 2468.54 333.492 Q2468.54 333.476 2468.56 333.427 Q2468.57 333.361 2468.57 333.345 Q2469.07 330.688 2470.79 328.508 Q2471.87 327.131 2473.41 326.098 L2447.69 326.098 Q2447.41 326.098 2447.21 325.901 Q2447.01 325.704 2447.01 325.425 Q2447.01 325.147 2447.21 324.95 Q2447.41 324.753 2447.69 324.753 L2473.41 324.753 Q2471.87 323.72 2470.79 322.343 Q2469.07 320.162 2468.57 317.506 Q2468.57 317.49 2468.56 317.441 Q2468.54 317.375 2468.54 317.359 Q2468.54 317.08 2468.74 316.9 Q2468.93 316.703 2469.21 316.703 Q2469.46 316.703 2469.64 316.851 Q2469.82 316.998 2469.87 317.228 Q2470.29 319.507 2471.82 321.49 Q2473.97 324.163 2476.43 324.983 Z" fill="#000000" fill-rule="nonzero" fill-opacity="1" /><path clip-path="url(#clip700)" d="M2489.58 333.82 Q2489.58 333.213 2489.63 333.033 Q2489.7 332.853 2489.96 332.574 L2496.4 325.393 Q2499.93 321.425 2499.93 317.965 Q2499.93 315.719 2498.75 314.112 Q2497.58 312.506 2495.43 312.506 Q2493.96 312.506 2492.71 313.407 Q2491.47 314.309 2490.89 315.916 Q2490.99 315.883 2491.34 315.883 Q2492.17 315.883 2492.63 316.408 Q2493.11 316.932 2493.11 317.638 Q2493.11 318.539 2492.52 318.982 Q2491.94 319.408 2491.37 319.408 Q2491.14 319.408 2490.83 319.359 Q2490.53 319.31 2490.06 318.851 Q2489.58 318.375 2489.58 317.539 Q2489.58 315.195 2491.35 313.325 Q2493.14 311.456 2495.86 311.456 Q2498.94 311.456 2500.96 313.293 Q2502.99 315.113 2502.99 317.965 Q2502.99 318.966 2502.68 319.884 Q2502.39 320.785 2501.98 321.49 Q2501.58 322.196 2500.5 323.327 Q2499.42 324.458 2498.55 325.262 Q2497.68 326.065 2495.73 327.77 L2492.17 331.23 L2498.22 331.23 Q2501.17 331.23 2501.4 330.967 Q2501.73 330.492 2502.14 327.983 L2502.99 327.983 L2502.04 333.82 L2489.58 333.82 Z" fill="#000000" fill-rule="nonzero" fill-opacity="1" /><polyline clip-path="url(#clip700)" style="stroke:#e26f46; stroke-linecap:round; stroke-linejoin:round; stroke-width:8; stroke-opacity:1; fill:none" stroke-dasharray="32, 20" points="2244.03,372.316 2363.24,372.316 "/>
<path clip-path="url(#clip700)" d="M2409.7 343.18 L2409.29 343.852 Q2406.74 342.754 2403.58 340.999 Q2400.42 342.754 2397.87 343.852 L2397.48 343.18 Q2400.25 340.77 2403.58 338.917 Q2406.94 340.786 2409.7 343.18 Z" fill="#000000" fill-rule="nonzero" fill-opacity="1" /><path clip-path="url(#clip700)" d="M2416.28 361.73 Q2416.28 365.102 2415.06 368.452 Q2413.84 371.778 2411.8 374.471 Q2409.79 377.165 2407.17 379.25 Q2404.57 381.311 2401.78 382.365 Q2402.13 385.176 2402.83 386.23 Q2403.56 387.307 2405.17 387.307 Q2406.11 387.307 2407.12 386.885 Q2408.15 386.464 2409.2 385.363 Q2410.26 384.285 2410.8 382.693 Q2410.96 382.177 2411.38 382.177 Q2411.55 382.177 2411.71 382.318 Q2411.9 382.435 2411.9 382.646 Q2411.9 382.833 2411.69 383.513 Q2411.5 384.215 2411.1 385.293 Q2410.7 386.37 2410.02 387.494 Q2409.34 388.642 2408.5 389.649 Q2407.68 390.656 2406.46 391.289 Q2405.25 391.945 2403.89 391.945 Q2402.76 391.945 2401.94 391.523 Q2401.15 391.101 2400.75 390.563 Q2400.37 390.024 2400.16 389.157 Q2399.95 388.314 2399.93 387.846 Q2399.9 387.377 2399.9 386.675 Q2399.9 385.948 2400.09 382.974 Q2397.56 383.7 2395.41 383.7 Q2390.09 383.7 2386.6 380.21 Q2383.11 376.72 2383.11 370.888 Q2383.11 366.812 2384.94 362.76 Q2386.76 358.685 2389.67 355.663 Q2392.57 352.618 2396.39 350.721 Q2400.23 348.824 2404.03 348.824 Q2409.41 348.824 2412.83 352.408 Q2416.28 355.968 2416.28 361.73 M2412.04 360.207 Q2412.04 355.476 2409.72 352.759 Q2407.42 350.018 2403.75 350.018 Q2400.94 350.018 2397.82 351.822 Q2394.73 353.625 2392.22 357.115 Q2389.76 360.605 2388.55 364.985 Q2387.35 369.365 2387.35 372.434 Q2387.35 375.83 2388.69 378.383 Q2390.02 380.913 2392.71 381.967 Q2392.43 381.405 2392.43 380.444 Q2392.43 378.57 2393.93 377.071 Q2395.43 375.549 2397.33 375.549 Q2398.17 375.549 2398.83 375.807 Q2399.51 376.041 2399.93 376.533 Q2400.37 377.025 2400.65 377.493 Q2400.96 377.938 2401.12 378.664 Q2401.31 379.367 2401.38 379.742 Q2401.45 380.093 2401.54 380.725 Q2403.84 379.437 2405.71 377.329 Q2407.59 375.198 2408.74 372.949 Q2409.88 370.677 2410.66 368.218 Q2411.43 365.735 2411.73 363.767 Q2412.04 361.777 2412.04 360.207 M2400.23 380.678 Q2400.23 378.5 2399.53 377.563 Q2398.85 376.603 2397.33 376.603 Q2395.83 376.603 2394.66 377.797 Q2393.49 378.992 2393.49 380.444 Q2393.49 381.17 2393.7 381.639 Q2393.93 382.084 2394.35 382.271 Q2394.78 382.435 2395.03 382.482 Q2395.29 382.505 2395.69 382.505 Q2397.73 382.505 2399.72 381.639 Q2400.07 381.498 2400.14 381.358 Q2400.23 381.217 2400.23 380.678 Z" fill="#000000" fill-rule="nonzero" fill-opacity="1" /><path clip-path="url(#clip700)" d="M2421.07 405.154 Q2421.07 404.547 2421.12 404.367 Q2421.18 404.186 2421.45 403.908 L2427.89 396.726 Q2431.42 392.759 2431.42 389.299 Q2431.42 387.053 2430.23 385.446 Q2429.07 383.839 2426.92 383.839 Q2425.45 383.839 2424.2 384.741 Q2422.96 385.643 2422.38 387.25 Q2422.48 387.217 2422.82 387.217 Q2423.66 387.217 2424.12 387.741 Q2424.59 388.266 2424.59 388.971 Q2424.59 389.873 2424 390.316 Q2423.43 390.742 2422.86 390.742 Q2422.63 390.742 2422.32 390.693 Q2422.02 390.644 2421.55 390.184 Q2421.07 389.709 2421.07 388.873 Q2421.07 386.528 2422.84 384.659 Q2424.63 382.79 2427.35 382.79 Q2430.43 382.79 2432.45 384.626 Q2434.48 386.446 2434.48 389.299 Q2434.48 390.299 2434.17 391.217 Q2433.87 392.119 2433.46 392.824 Q2433.07 393.529 2431.99 394.66 Q2430.91 395.792 2430.04 396.595 Q2429.17 397.399 2427.22 399.104 L2423.66 402.563 L2429.71 402.563 Q2432.66 402.563 2432.89 402.301 Q2433.22 401.825 2433.63 399.317 L2434.48 399.317 L2433.53 405.154 L2421.07 405.154 Z" fill="#000000" fill-rule="nonzero" fill-opacity="1" /><path clip-path="url(#clip700)" d="M2476.43 396.316 Q2476.72 396.431 2476.72 396.759 Q2476.72 397.087 2476.43 397.202 Q2473.97 398.022 2471.82 400.694 Q2470.29 402.678 2469.87 404.957 Q2469.82 405.187 2469.64 405.334 Q2469.46 405.482 2469.21 405.482 Q2468.93 405.482 2468.74 405.285 Q2468.54 405.105 2468.54 404.826 Q2468.54 404.809 2468.56 404.76 Q2468.57 404.695 2468.57 404.678 Q2469.07 402.022 2470.79 399.842 Q2471.87 398.464 2473.41 397.431 L2447.69 397.431 Q2447.41 397.431 2447.21 397.235 Q2447.01 397.038 2447.01 396.759 Q2447.01 396.48 2447.21 396.284 Q2447.41 396.087 2447.69 396.087 L2473.41 396.087 Q2471.87 395.054 2470.79 393.677 Q2469.07 391.496 2468.57 388.84 Q2468.57 388.824 2468.56 388.774 Q2468.54 388.709 2468.54 388.692 Q2468.54 388.414 2468.74 388.233 Q2468.93 388.037 2469.21 388.037 Q2469.46 388.037 2469.64 388.184 Q2469.82 388.332 2469.87 388.561 Q2470.29 390.84 2471.82 392.824 Q2473.97 395.497 2476.43 396.316 Z" fill="#000000" fill-rule="nonzero" fill-opacity="1" /><path clip-path="url(#clip700)" d="M2489.58 405.154 Q2489.58 404.547 2489.63 404.367 Q2489.7 404.186 2489.96 403.908 L2496.4 396.726 Q2499.93 392.759 2499.93 389.299 Q2499.93 387.053 2498.75 385.446 Q2497.58 383.839 2495.43 383.839 Q2493.96 383.839 2492.71 384.741 Q2491.47 385.643 2490.89 387.25 Q2490.99 387.217 2491.34 387.217 Q2492.17 387.217 2492.63 387.741 Q2493.11 388.266 2493.11 388.971 Q2493.11 389.873 2492.52 390.316 Q2491.94 390.742 2491.37 390.742 Q2491.14 390.742 2490.83 390.693 Q2490.53 390.644 2490.06 390.184 Q2489.58 389.709 2489.58 388.873 Q2489.58 386.528 2491.35 384.659 Q2493.14 382.79 2495.86 382.79 Q2498.94 382.79 2500.96 384.626 Q2502.99 386.446 2502.99 389.299 Q2502.99 390.299 2502.68 391.217 Q2502.39 392.119 2501.98 392.824 Q2501.58 393.529 2500.5 394.66 Q2499.42 395.792 2498.55 396.595 Q2497.68 397.399 2495.73 399.104 L2492.17 402.563 L2498.22 402.563 Q2501.17 402.563 2501.4 402.301 Q2501.73 401.825 2502.14 399.317 L2502.99 399.317 L2502.04 405.154 L2489.58 405.154 Z" fill="#000000" fill-rule="nonzero" fill-opacity="1" /></svg>
