<svg xmlns="http://www.w3.org/2000/svg" xmlns:xlink="http://www.w3.org/1999/xlink" width="1000" height="500" viewBox="0 0 4000 2000">
<defs>
  <clipPath id="clip690">
    <rect x="0" y="0" width="4000" height="2000"></rect>
  </clipPath>
</defs>
<path clip-path="url(#clip690)" d="
M0 2000 L4000 2000 L4000 0 L0 0  Z
  " fill="#ffffff" fill-rule="evenodd" fill-opacity="1"></path>
<defs>
  <clipPath id="clip691">
    <rect x="800" y="0" width="2801" height="2000"></rect>
  </clipPath>
</defs>
<defs>
  <clipPath id="clip692">
    <rect x="2162" y="47" width="1791" height="1793"></rect>
  </clipPath>
</defs>
<path clip-path="url(#clip690)" d="
M164.899 1839.7 L1953.1 1839.7 L1953.1 47.2441 L164.899 47.2441  Z
  " fill="#ffffff" fill-rule="evenodd" fill-opacity="1"></path>
<defs>
  <clipPath id="clip693">
    <rect x="164" y="47" width="1789" height="1793"></rect>
  </clipPath>
</defs>
<polyline clip-path="url(#clip693)" style="stroke:#000000; stroke-linecap:round; stroke-linejoin:round; stroke-width:2; stroke-opacity:0.1; fill:none" points="
  402.951,1839.7 402.951,47.2441 
  "></polyline>
<polyline clip-path="url(#clip693)" style="stroke:#000000; stroke-linecap:round; stroke-linejoin:round; stroke-width:2; stroke-opacity:0.1; fill:none" points="
  777.836,1839.7 777.836,47.2441 
  "></polyline>
<polyline clip-path="url(#clip693)" style="stroke:#000000; stroke-linecap:round; stroke-linejoin:round; stroke-width:2; stroke-opacity:0.1; fill:none" points="
  1152.72,1839.7 1152.72,47.2441 
  "></polyline>
<polyline clip-path="url(#clip693)" style="stroke:#000000; stroke-linecap:round; stroke-linejoin:round; stroke-width:2; stroke-opacity:0.1; fill:none" points="
  1527.61,1839.7 1527.61,47.2441 
  "></polyline>
<polyline clip-path="url(#clip693)" style="stroke:#000000; stroke-linecap:round; stroke-linejoin:round; stroke-width:2; stroke-opacity:0.1; fill:none" points="
  1902.49,1839.7 1902.49,47.2441 
  "></polyline>
<polyline clip-path="url(#clip690)" style="stroke:#000000; stroke-linecap:round; stroke-linejoin:round; stroke-width:4; stroke-opacity:1; fill:none" points="
  164.899,1839.7 1953.1,1839.7 
  "></polyline>
<polyline clip-path="url(#clip690)" style="stroke:#000000; stroke-linecap:round; stroke-linejoin:round; stroke-width:4; stroke-opacity:1; fill:none" points="
  402.951,1839.7 402.951,1820.8 
  "></polyline>
<polyline clip-path="url(#clip690)" style="stroke:#000000; stroke-linecap:round; stroke-linejoin:round; stroke-width:4; stroke-opacity:1; fill:none" points="
  777.836,1839.7 777.836,1820.8 
  "></polyline>
<polyline clip-path="url(#clip690)" style="stroke:#000000; stroke-linecap:round; stroke-linejoin:round; stroke-width:4; stroke-opacity:1; fill:none" points="
  1152.72,1839.7 1152.72,1820.8 
  "></polyline>
<polyline clip-path="url(#clip690)" style="stroke:#000000; stroke-linecap:round; stroke-linejoin:round; stroke-width:4; stroke-opacity:1; fill:none" points="
  1527.61,1839.7 1527.61,1820.8 
  "></polyline>
<polyline clip-path="url(#clip690)" style="stroke:#000000; stroke-linecap:round; stroke-linejoin:round; stroke-width:4; stroke-opacity:1; fill:none" points="
  1902.49,1839.7 1902.49,1820.8 
  "></polyline>
<path clip-path="url(#clip690)" d="M392.847 1914.9 Q392.847 1913.99 392.921 1913.71 Q393.02 1913.44 393.415 1913.02 L403.124 1902.2 Q408.435 1896.22 408.435 1891.01 Q408.435 1887.63 406.656 1885.21 Q404.902 1882.79 401.666 1882.79 Q399.443 1882.79 397.566 1884.14 Q395.688 1885.5 394.824 1887.92 Q394.972 1887.87 395.491 1887.87 Q396.75 1887.87 397.442 1888.66 Q398.158 1889.46 398.158 1890.52 Q398.158 1891.88 397.269 1892.54 Q396.405 1893.19 395.54 1893.19 Q395.194 1893.19 394.725 1893.11 Q394.28 1893.04 393.564 1892.35 Q392.847 1891.63 392.847 1890.37 Q392.847 1886.84 395.515 1884.02 Q398.208 1881.2 402.309 1881.2 Q406.953 1881.2 409.991 1883.97 Q413.055 1886.71 413.055 1891.01 Q413.055 1892.52 412.585 1893.9 Q412.141 1895.26 411.523 1896.32 Q410.93 1897.39 409.3 1899.09 Q407.669 1900.79 406.36 1902 Q405.051 1903.22 402.111 1905.78 L396.75 1911 L405.866 1911 Q410.313 1911 410.658 1910.6 Q411.152 1909.89 411.77 1906.11 L413.055 1906.11 L411.622 1914.9 L392.847 1914.9 Z" fill="#000000" fill-rule="evenodd" fill-opacity="1"></path><path clip-path="url(#clip690)" d="M766.621 1906.55 L766.621 1904.99 L782.159 1881.25 Q782.555 1880.64 783.172 1880.66 Q783.74 1880.66 783.864 1880.88 Q783.987 1881.11 783.987 1881.97 L783.987 1904.99 L789.052 1904.99 L789.052 1906.55 L783.987 1906.55 L783.987 1910.95 Q783.987 1912.4 784.58 1912.87 Q785.198 1913.34 787.816 1913.34 L788.879 1913.34 L788.879 1914.9 Q786.804 1914.75 782.011 1914.75 Q777.243 1914.75 775.168 1914.9 L775.168 1913.34 L776.231 1913.34 Q778.849 1913.34 779.467 1912.9 Q780.084 1912.43 780.084 1910.95 L780.084 1906.55 L766.621 1906.55 M768.054 1904.99 L780.381 1904.99 L780.381 1886.12 L768.054 1904.99 Z" fill="#000000" fill-rule="evenodd" fill-opacity="1"></path><path clip-path="url(#clip690)" d="M1142.22 1898.92 Q1142.22 1890.96 1146.27 1886.1 Q1150.33 1881.2 1155.54 1881.2 Q1158.58 1881.2 1160.26 1882.76 Q1161.96 1884.29 1161.96 1886.66 Q1161.96 1887.97 1161.19 1888.54 Q1160.43 1889.11 1159.64 1889.11 Q1158.72 1889.11 1158.01 1888.49 Q1157.29 1887.87 1157.29 1886.76 Q1157.29 1884.49 1160.08 1884.49 Q1158.77 1882.46 1155.64 1882.46 Q1154.67 1882.46 1153.69 1882.76 Q1152.7 1883.03 1151.41 1883.97 Q1150.13 1884.91 1149.14 1886.39 Q1148.15 1887.87 1147.46 1890.67 Q1146.77 1893.46 1146.77 1897.09 L1146.77 1898.3 Q1148.84 1893.28 1153.09 1893.31 Q1157.34 1893.31 1160.28 1896.55 Q1163.22 1899.78 1163.22 1904.57 Q1163.22 1909.49 1160.16 1912.75 Q1157.09 1916.01 1152.8 1916.01 Q1150.87 1916.01 1149.11 1915.2 Q1147.39 1914.41 1145.76 1912.58 Q1144.15 1910.75 1143.19 1907.24 Q1142.22 1903.73 1142.22 1898.92 M1146.87 1903.46 Q1146.87 1908.43 1147.78 1910.8 Q1147.93 1911.19 1148.25 1911.74 Q1148.6 1912.28 1149.16 1913 Q1149.76 1913.69 1150.72 1914.16 Q1151.68 1914.6 1152.8 1914.6 Q1156.18 1914.6 1157.81 1911.32 Q1158.68 1909.49 1158.68 1904.52 Q1158.68 1899.46 1157.76 1897.61 Q1156.2 1894.47 1153.04 1894.47 Q1150.92 1894.47 1149.44 1895.93 Q1147.98 1897.39 1147.41 1899.34 Q1146.87 1901.29 1146.87 1903.46 Z" fill="#000000" fill-rule="evenodd" fill-opacity="1"></path><path clip-path="url(#clip690)" d="M1517.11 1907.27 Q1517.11 1901.61 1524.4 1897.95 Q1521.26 1895.83 1520.69 1895.21 Q1518.47 1892.74 1518.47 1889.65 Q1518.47 1886.12 1521.13 1883.67 Q1523.83 1881.2 1527.63 1881.2 Q1531.26 1881.2 1534.01 1883.3 Q1536.75 1885.4 1536.75 1888.74 Q1536.75 1893.43 1530.62 1896.59 Q1534.67 1899.11 1535.64 1900.18 Q1538.11 1902.92 1538.11 1906.4 Q1538.11 1910.45 1534.99 1913.24 Q1531.88 1916.01 1527.58 1916.01 Q1523.38 1916.01 1520.25 1913.57 Q1517.11 1911.12 1517.11 1907.27 M1519.63 1907.27 Q1519.63 1910.4 1521.97 1912.5 Q1524.35 1914.6 1527.63 1914.6 Q1530.82 1914.6 1533.19 1912.78 Q1535.59 1910.95 1535.59 1908.23 Q1535.59 1907.17 1535.22 1906.25 Q1534.87 1905.34 1534.15 1904.62 Q1533.46 1903.88 1533.02 1903.56 Q1532.6 1903.22 1531.78 1902.65 L1525.56 1898.72 Q1519.63 1902 1519.63 1907.27 M1520.69 1887.68 Q1520.69 1890.1 1523.23 1891.78 L1529.51 1895.83 Q1534.52 1892.89 1534.52 1888.74 Q1534.52 1886.05 1532.47 1884.27 Q1530.42 1882.46 1527.58 1882.46 Q1524.79 1882.46 1522.74 1883.95 Q1520.69 1885.4 1520.69 1887.68 Z" fill="#000000" fill-rule="evenodd" fill-opacity="1"></path><path clip-path="url(#clip690)" d="M1880.46 1886.02 L1880.46 1884.44 Q1886.53 1884.44 1889.67 1881.2 Q1890.54 1881.2 1890.68 1881.4 Q1890.83 1881.6 1890.83 1882.51 L1890.83 1910.9 Q1890.83 1912.4 1891.57 1912.87 Q1892.31 1913.34 1895.55 1913.34 L1897.16 1913.34 L1897.16 1914.9 Q1895.38 1914.75 1888.95 1914.75 Q1882.53 1914.75 1880.78 1914.9 L1880.78 1913.34 L1882.38 1913.34 Q1885.57 1913.34 1886.34 1912.9 Q1887.1 1912.43 1887.1 1910.9 L1887.1 1884.69 Q1884.46 1886.02 1880.46 1886.02 Z" fill="#000000" fill-rule="evenodd" fill-opacity="1"></path><path clip-path="url(#clip690)" d="M1903.23 1898.72 Q1903.23 1891.28 1905.11 1887.23 Q1907.73 1881.2 1913.91 1881.2 Q1915.21 1881.2 1916.57 1881.58 Q1917.96 1881.92 1919.69 1883.28 Q1921.44 1884.64 1922.5 1886.86 Q1924.53 1891.16 1924.53 1898.72 Q1924.53 1906.11 1922.65 1910.13 Q1919.91 1916.01 1913.86 1916.01 Q1911.58 1916.01 1909.26 1914.85 Q1906.96 1913.69 1905.51 1910.9 Q1903.23 1906.72 1903.23 1898.72 M1907.43 1898.1 Q1907.43 1905.73 1907.98 1908.77 Q1908.59 1912.06 1910.27 1913.49 Q1911.98 1914.9 1913.86 1914.9 Q1915.88 1914.9 1917.56 1913.39 Q1919.27 1911.86 1919.78 1908.58 Q1920.35 1905.34 1920.33 1898.1 Q1920.33 1891.06 1919.83 1888.24 Q1919.17 1884.96 1917.39 1883.65 Q1915.63 1882.32 1913.86 1882.32 Q1913.19 1882.32 1912.47 1882.51 Q1911.78 1882.71 1910.77 1883.28 Q1909.76 1883.85 1908.96 1885.26 Q1908.2 1886.66 1907.83 1888.79 Q1907.43 1891.53 1907.43 1898.1 Z" fill="#000000" fill-rule="evenodd" fill-opacity="1"></path><path clip-path="url(#clip690)" d="M1067.47 1972.43 Q1067.47 1973.33 1067.06 1973.56 Q1066.64 1973.75 1065.48 1973.75 L1059.29 1973.75 L1054.4 1993.21 Q1054.01 1994.91 1054.01 1996.36 Q1054.01 1997.97 1054.5 1998.68 Q1055.01 1999.39 1056.07 1999.39 Q1058.17 1999.39 1060.42 1997.49 Q1062.71 1995.59 1064.64 1990.95 Q1064.9 1990.34 1065.03 1990.21 Q1065.19 1990.05 1065.61 1990.05 Q1066.41 1990.05 1066.41 1990.69 Q1066.41 1990.92 1065.96 1991.95 Q1065.54 1992.98 1064.61 1994.49 Q1063.71 1996.01 1062.51 1997.42 Q1061.35 1998.84 1059.58 1999.87 Q1057.81 2000.87 1055.91 2000.87 Q1053.24 2000.87 1051.53 1999.16 Q1049.86 1997.46 1049.86 1994.78 Q1049.86 1993.91 1050.53 1991.14 Q1051.21 1988.34 1054.88 1973.75 L1049.05 1973.75 Q1048.25 1973.75 1047.93 1973.72 Q1047.64 1973.69 1047.41 1973.53 Q1047.22 1973.33 1047.22 1972.95 Q1047.22 1972.34 1047.47 1972.08 Q1047.73 1971.79 1048.05 1971.76 Q1048.41 1971.69 1049.21 1971.69 L1055.4 1971.69 L1057.97 1961.23 Q1058.23 1960.19 1058.88 1959.61 Q1059.55 1959 1059.94 1958.94 Q1060.32 1958.84 1060.61 1958.84 Q1061.48 1958.84 1062 1959.33 Q1062.51 1959.78 1062.51 1960.61 Q1062.51 1961.06 1059.81 1971.69 L1065.61 1971.69 Q1066.35 1971.69 1066.64 1971.72 Q1066.96 1971.76 1067.22 1971.92 Q1067.47 1972.08 1067.47 1972.43 Z" fill="#000000" fill-rule="evenodd" fill-opacity="1"></path><polyline clip-path="url(#clip693)" style="stroke:#000000; stroke-linecap:round; stroke-linejoin:round; stroke-width:2; stroke-opacity:0.1; fill:none" points="
  164.899,1740.62 1953.1,1740.62 
  "></polyline>
<polyline clip-path="url(#clip693)" style="stroke:#000000; stroke-linecap:round; stroke-linejoin:round; stroke-width:2; stroke-opacity:0.1; fill:none" points="
  164.899,1474.9 1953.1,1474.9 
  "></polyline>
<polyline clip-path="url(#clip693)" style="stroke:#000000; stroke-linecap:round; stroke-linejoin:round; stroke-width:2; stroke-opacity:0.1; fill:none" points="
  164.899,1209.19 1953.1,1209.19 
  "></polyline>
<polyline clip-path="url(#clip693)" style="stroke:#000000; stroke-linecap:round; stroke-linejoin:round; stroke-width:2; stroke-opacity:0.1; fill:none" points="
  164.899,943.472 1953.1,943.472 
  "></polyline>
<polyline clip-path="url(#clip693)" style="stroke:#000000; stroke-linecap:round; stroke-linejoin:round; stroke-width:2; stroke-opacity:0.1; fill:none" points="
  164.899,677.756 1953.1,677.756 
  "></polyline>
<polyline clip-path="url(#clip693)" style="stroke:#000000; stroke-linecap:round; stroke-linejoin:round; stroke-width:2; stroke-opacity:0.1; fill:none" points="
  164.899,412.041 1953.1,412.041 
  "></polyline>
<polyline clip-path="url(#clip693)" style="stroke:#000000; stroke-linecap:round; stroke-linejoin:round; stroke-width:2; stroke-opacity:0.1; fill:none" points="
  164.899,146.326 1953.1,146.326 
  "></polyline>
<polyline clip-path="url(#clip690)" style="stroke:#000000; stroke-linecap:round; stroke-linejoin:round; stroke-width:4; stroke-opacity:1; fill:none" points="
  164.899,1839.7 164.899,47.2441 
  "></polyline>
<polyline clip-path="url(#clip690)" style="stroke:#000000; stroke-linecap:round; stroke-linejoin:round; stroke-width:4; stroke-opacity:1; fill:none" points="
  164.899,1740.62 183.796,1740.62 
  "></polyline>
<polyline clip-path="url(#clip690)" style="stroke:#000000; stroke-linecap:round; stroke-linejoin:round; stroke-width:4; stroke-opacity:1; fill:none" points="
  164.899,1474.9 183.796,1474.9 
  "></polyline>
<polyline clip-path="url(#clip690)" style="stroke:#000000; stroke-linecap:round; stroke-linejoin:round; stroke-width:4; stroke-opacity:1; fill:none" points="
  164.899,1209.19 183.796,1209.19 
  "></polyline>
<polyline clip-path="url(#clip690)" style="stroke:#000000; stroke-linecap:round; stroke-linejoin:round; stroke-width:4; stroke-opacity:1; fill:none" points="
  164.899,943.472 183.796,943.472 
  "></polyline>
<polyline clip-path="url(#clip690)" style="stroke:#000000; stroke-linecap:round; stroke-linejoin:round; stroke-width:4; stroke-opacity:1; fill:none" points="
  164.899,677.756 183.796,677.756 
  "></polyline>
<polyline clip-path="url(#clip690)" style="stroke:#000000; stroke-linecap:round; stroke-linejoin:round; stroke-width:4; stroke-opacity:1; fill:none" points="
  164.899,412.041 183.796,412.041 
  "></polyline>
<polyline clip-path="url(#clip690)" style="stroke:#000000; stroke-linecap:round; stroke-linejoin:round; stroke-width:4; stroke-opacity:1; fill:none" points="
  164.899,146.326 183.796,146.326 
  "></polyline>
<path clip-path="url(#clip690)" d="M44.7955 1741.72 Q44.7955 1734.28 46.6729 1730.23 Q49.2915 1724.2 55.4673 1724.2 Q56.7766 1724.2 58.1353 1724.57 Q59.5187 1724.92 61.2479 1726.28 Q63.0018 1727.64 64.0641 1729.86 Q66.0898 1734.16 66.0898 1741.72 Q66.0898 1749.1 64.2123 1753.13 Q61.4702 1759.01 55.4179 1759.01 Q53.1452 1759.01 50.8231 1757.85 Q48.5257 1756.69 47.0682 1753.9 Q44.7955 1749.72 44.7955 1741.72 M48.995 1741.1 Q48.995 1748.73 49.5385 1751.77 Q50.1561 1755.06 51.8359 1756.49 Q53.5405 1757.9 55.4179 1757.9 Q57.4436 1757.9 59.1234 1756.39 Q60.828 1754.86 61.3467 1751.57 Q61.9149 1748.34 61.8902 1741.1 Q61.8902 1734.06 61.3961 1731.24 Q60.7291 1727.96 58.9505 1726.65 Q57.1966 1725.31 55.4179 1725.31 Q54.7509 1725.31 54.0345 1725.51 Q53.3428 1725.71 52.33 1726.28 Q51.3172 1726.85 50.5267 1728.25 Q49.7608 1729.66 49.3903 1731.79 Q48.995 1734.53 48.995 1741.1 Z" fill="#000000" fill-rule="evenodd" fill-opacity="1"></path><path clip-path="url(#clip690)" d="M73.1796 1757.08 Q72.4138 1756.27 72.4138 1755.21 Q72.4138 1754.14 73.1796 1753.38 Q73.9454 1752.59 75.1065 1752.59 Q76.2181 1752.59 76.9592 1753.33 Q77.725 1754.04 77.725 1755.23 Q77.725 1756.39 76.9098 1757.16 Q76.1193 1757.9 75.1065 1757.9 Q73.9454 1757.9 73.1796 1757.08 Z" fill="#000000" fill-rule="evenodd" fill-opacity="1"></path><path clip-path="url(#clip690)" d="M84.6914 1757.9 Q84.6914 1756.98 84.7655 1756.71 Q84.8643 1756.44 85.2596 1756.02 L94.968 1745.2 Q100.279 1739.22 100.279 1734.01 Q100.279 1730.63 98.5006 1728.2 Q96.7466 1725.78 93.5105 1725.78 Q91.2872 1725.78 89.4097 1727.14 Q87.5323 1728.5 86.6677 1730.92 Q86.8159 1730.87 87.3347 1730.87 Q88.5945 1730.87 89.2862 1731.66 Q90.0026 1732.45 90.0026 1733.52 Q90.0026 1734.87 89.1133 1735.54 Q88.2487 1736.18 87.3841 1736.18 Q87.0382 1736.18 86.5689 1736.11 Q86.1242 1736.04 85.4078 1735.34 Q84.6914 1734.63 84.6914 1733.37 Q84.6914 1729.84 87.3594 1727.02 Q90.052 1724.2 94.1528 1724.2 Q98.797 1724.2 101.836 1726.97 Q104.899 1729.71 104.899 1734.01 Q104.899 1735.52 104.429 1736.9 Q103.985 1738.26 103.367 1739.32 Q102.774 1740.38 101.144 1742.09 Q99.5134 1743.79 98.2041 1745 Q96.8949 1746.21 93.9552 1748.78 L88.5945 1754 L97.7101 1754 Q102.157 1754 102.503 1753.6 Q102.997 1752.88 103.614 1749.1 L104.899 1749.1 L103.466 1757.9 L84.6914 1757.9 Z" fill="#000000" fill-rule="evenodd" fill-opacity="1"></path><path clip-path="url(#clip690)" d="M44.4002 1476 Q44.4002 1468.57 46.2777 1464.52 Q48.8962 1458.49 55.0721 1458.49 Q56.3813 1458.49 57.74 1458.86 Q59.1234 1459.2 60.8527 1460.56 Q62.6066 1461.92 63.6688 1464.14 Q65.6945 1468.44 65.6945 1476 Q65.6945 1483.39 63.8171 1487.42 Q61.075 1493.29 55.0227 1493.29 Q52.75 1493.29 50.4278 1492.13 Q48.1304 1490.97 46.6729 1488.18 Q44.4002 1484.01 44.4002 1476 M48.5998 1475.38 Q48.5998 1483.02 49.1433 1486.06 Q49.7608 1489.34 51.4407 1490.77 Q53.1452 1492.18 55.0227 1492.18 Q57.0483 1492.18 58.7282 1490.68 Q60.4327 1489.14 60.9515 1485.86 Q61.5196 1482.62 61.4949 1475.38 Q61.4949 1468.34 61.0009 1465.53 Q60.3339 1462.24 58.5552 1460.93 Q56.8013 1459.6 55.0227 1459.6 Q54.3557 1459.6 53.6393 1459.8 Q52.9476 1459.99 51.9347 1460.56 Q50.9219 1461.13 50.1314 1462.54 Q49.3656 1463.95 48.995 1466.07 Q48.5998 1468.81 48.5998 1475.38 Z" fill="#000000" fill-rule="evenodd" fill-opacity="1"></path><path clip-path="url(#clip690)" d="M72.7844 1491.37 Q72.0186 1490.55 72.0186 1489.49 Q72.0186 1488.43 72.7844 1487.66 Q73.5502 1486.87 74.7112 1486.87 Q75.8229 1486.87 76.564 1487.61 Q77.3298 1488.33 77.3298 1489.51 Q77.3298 1490.68 76.5146 1491.44 Q75.7241 1492.18 74.7112 1492.18 Q73.5502 1492.18 72.7844 1491.37 Z" fill="#000000" fill-rule="evenodd" fill-opacity="1"></path><path clip-path="url(#clip690)" d="M83.9009 1485.36 Q83.9009 1483.86 84.7655 1483.14 Q85.6301 1482.43 86.7418 1482.43 Q87.9028 1482.43 88.718 1483.19 Q89.558 1483.93 89.558 1485.24 Q89.558 1486.65 88.5698 1487.44 Q87.6064 1488.23 86.223 1488.03 Q87.4335 1490.06 89.6568 1490.97 Q91.9048 1491.89 93.9799 1491.89 Q96.1538 1491.89 97.9077 1490.01 Q99.6863 1488.13 99.6863 1483.54 Q99.6863 1479.63 98.1547 1477.39 Q96.6478 1475.14 93.6587 1475.14 L91.4354 1475.14 Q90.6696 1475.14 90.4473 1475.06 Q90.2249 1474.99 90.2249 1474.57 Q90.2249 1474.08 90.9908 1473.98 Q91.7566 1473.98 92.967 1473.83 Q95.9067 1473.73 97.463 1471.19 Q98.8711 1468.81 98.8711 1465.43 Q98.8711 1462.34 97.3889 1461.06 Q95.9314 1459.75 94.0293 1459.75 Q92.2506 1459.75 90.2991 1460.49 Q88.3475 1461.23 87.2852 1462.88 Q90.4226 1462.88 90.4226 1465.43 Q90.4226 1466.54 89.7062 1467.28 Q89.0145 1468 87.8534 1468 Q86.7418 1468 86.0007 1467.31 Q85.2596 1466.59 85.2596 1465.38 Q85.2596 1462.49 87.8287 1460.49 Q90.4226 1458.49 94.2269 1458.49 Q97.9818 1458.49 100.749 1460.46 Q103.54 1462.44 103.54 1465.48 Q103.54 1468.47 101.564 1470.91 Q99.5875 1473.36 96.4502 1474.37 Q100.304 1475.14 102.601 1477.76 Q104.899 1480.35 104.899 1483.54 Q104.899 1487.49 101.786 1490.4 Q98.6735 1493.29 94.1281 1493.29 Q89.9285 1493.29 86.9147 1491.02 Q83.9009 1488.75 83.9009 1485.36 Z" fill="#000000" fill-rule="evenodd" fill-opacity="1"></path><path clip-path="url(#clip690)" d="M43.6838 1210.29 Q43.6838 1202.85 45.5613 1198.8 Q48.1798 1192.77 54.3557 1192.77 Q55.6649 1192.77 57.0236 1193.14 Q58.407 1193.49 60.1363 1194.85 Q61.8902 1196.21 62.9524 1198.43 Q64.9781 1202.73 64.9781 1210.29 Q64.9781 1217.67 63.1007 1221.7 Q60.3586 1227.58 54.3063 1227.58 Q52.0336 1227.58 49.7114 1226.42 Q47.414 1225.26 45.9565 1222.47 Q43.6838 1218.29 43.6838 1210.29 M47.8834 1209.67 Q47.8834 1217.3 48.4269 1220.34 Q49.0444 1223.63 50.7243 1225.06 Q52.4288 1226.47 54.3063 1226.47 Q56.3319 1226.47 58.0118 1224.96 Q59.7163 1223.43 60.2351 1220.14 Q60.8032 1216.91 60.7785 1209.67 Q60.7785 1202.63 60.2845 1199.81 Q59.6175 1196.53 57.8388 1195.22 Q56.0849 1193.88 54.3063 1193.88 Q53.6393 1193.88 52.9229 1194.08 Q52.2312 1194.28 51.2183 1194.85 Q50.2055 1195.42 49.415 1196.82 Q48.6492 1198.23 48.2786 1200.36 Q47.8834 1203.1 47.8834 1209.67 Z" fill="#000000" fill-rule="evenodd" fill-opacity="1"></path><path clip-path="url(#clip690)" d="M72.068 1225.65 Q71.3022 1224.84 71.3022 1223.77 Q71.3022 1222.71 72.068 1221.95 Q72.8338 1221.16 73.9948 1221.16 Q75.1065 1221.16 75.8476 1221.9 Q76.6134 1222.61 76.6134 1223.8 Q76.6134 1224.96 75.7982 1225.73 Q75.0077 1226.47 73.9948 1226.47 Q72.8338 1226.47 72.068 1225.65 Z" fill="#000000" fill-rule="evenodd" fill-opacity="1"></path><path clip-path="url(#clip690)" d="M82.4681 1218.12 L82.4681 1216.56 L98.0065 1192.82 Q98.4018 1192.2 99.0193 1192.23 Q99.5875 1192.23 99.711 1192.45 Q99.8346 1192.67 99.8346 1193.54 L99.8346 1216.56 L104.899 1216.56 L104.899 1218.12 L99.8346 1218.12 L99.8346 1222.51 Q99.8346 1223.97 100.427 1224.44 Q101.045 1224.91 103.664 1224.91 L104.726 1224.91 L104.726 1226.47 Q102.651 1226.32 97.8583 1226.32 Q93.0905 1226.32 91.0155 1226.47 L91.0155 1224.91 L92.0777 1224.91 Q94.6963 1224.91 95.3138 1224.47 Q95.9314 1224 95.9314 1222.51 L95.9314 1218.12 L82.4681 1218.12 M83.9009 1216.56 L96.2279 1216.56 L96.2279 1197.69 L83.9009 1216.56 Z" fill="#000000" fill-rule="evenodd" fill-opacity="1"></path><path clip-path="url(#clip690)" d="M44.7955 944.571 Q44.7955 937.136 46.6729 933.084 Q49.2915 927.057 55.4673 927.057 Q56.7766 927.057 58.1353 927.427 Q59.5187 927.773 61.2479 929.132 Q63.0018 930.49 64.0641 932.714 Q66.0898 937.012 66.0898 944.571 Q66.0898 951.958 64.2123 955.984 Q61.4702 961.864 55.4179 961.864 Q53.1452 961.864 50.8231 960.703 Q48.5257 959.542 47.0682 956.75 Q44.7955 952.575 44.7955 944.571 M48.995 943.954 Q48.995 951.587 49.5385 954.626 Q50.1561 957.911 51.8359 959.344 Q53.5405 960.752 55.4179 960.752 Q57.4436 960.752 59.1234 959.245 Q60.828 957.713 61.3467 954.428 Q61.9149 951.192 61.8902 943.954 Q61.8902 936.913 61.3961 934.097 Q60.7291 930.811 58.9505 929.502 Q57.1966 928.168 55.4179 928.168 Q54.7509 928.168 54.0345 928.366 Q53.3428 928.563 52.33 929.132 Q51.3172 929.7 50.5267 931.108 Q49.7608 932.516 49.3903 934.641 Q48.995 937.383 48.995 943.954 Z" fill="#000000" fill-rule="evenodd" fill-opacity="1"></path><path clip-path="url(#clip690)" d="M73.1796 959.937 Q72.4138 959.122 72.4138 958.059 Q72.4138 956.997 73.1796 956.231 Q73.9454 955.441 75.1065 955.441 Q76.2181 955.441 76.9592 956.182 Q77.725 956.898 77.725 958.084 Q77.725 959.245 76.9098 960.011 Q76.1193 960.752 75.1065 960.752 Q73.9454 960.752 73.1796 959.937 Z" fill="#000000" fill-rule="evenodd" fill-opacity="1"></path><path clip-path="url(#clip690)" d="M84.6914 952.6 Q84.6914 951.093 85.5066 950.525 Q86.3218 949.932 87.1864 949.932 Q88.3475 949.932 89.0145 950.673 Q89.7062 951.389 89.7062 952.402 Q89.7062 953.415 89.0145 954.156 Q88.3475 954.873 87.1864 954.873 Q86.6183 954.873 86.3218 954.774 Q86.9888 957.096 89.0145 958.776 Q91.0649 960.456 93.7575 960.456 Q97.1419 960.456 99.1676 957.17 Q100.378 955.045 100.378 950.228 Q100.378 945.979 99.464 943.855 Q98.0559 940.619 95.1656 940.619 Q91.0649 940.619 88.6439 944.151 Q88.3475 944.596 88.0016 944.621 Q87.5076 944.621 87.3841 944.349 Q87.2852 944.052 87.2852 943.287 L87.2852 928.316 Q87.2852 927.106 87.7793 927.106 Q87.9769 927.106 88.3969 927.254 Q91.5836 928.662 95.1162 928.687 Q98.7476 928.687 102.008 927.205 Q102.255 927.057 102.404 927.057 Q102.898 927.057 102.922 927.625 Q102.922 927.822 102.503 928.415 Q102.107 928.983 101.243 929.749 Q100.378 930.49 99.2664 931.207 Q98.1547 931.923 96.5243 932.417 Q94.9186 932.887 93.1399 932.887 Q91.0155 932.887 88.8416 932.22 L88.8416 942.076 Q91.4601 939.507 95.2644 939.507 Q99.3158 939.507 102.107 942.768 Q104.899 946.029 104.899 950.574 Q104.899 955.342 101.588 958.603 Q98.3029 961.864 93.8563 961.864 Q89.805 961.864 87.2358 958.973 Q84.6914 956.083 84.6914 952.6 Z" fill="#000000" fill-rule="evenodd" fill-opacity="1"></path><path clip-path="url(#clip690)" d="M44.4002 678.856 Q44.4002 671.42 46.2777 667.369 Q48.8962 661.341 55.0721 661.341 Q56.3813 661.341 57.74 661.712 Q59.1234 662.058 60.8527 663.416 Q62.6066 664.775 63.6688 666.998 Q65.6945 671.297 65.6945 678.856 Q65.6945 686.242 63.8171 690.269 Q61.075 696.148 55.0227 696.148 Q52.75 696.148 50.4278 694.987 Q48.1304 693.826 46.6729 691.035 Q44.4002 686.86 44.4002 678.856 M48.5998 678.238 Q48.5998 685.872 49.1433 688.91 Q49.7608 692.196 51.4407 693.628 Q53.1452 695.036 55.0227 695.036 Q57.0483 695.036 58.7282 693.53 Q60.4327 691.998 60.9515 688.712 Q61.5196 685.476 61.4949 678.238 Q61.4949 671.198 61.0009 668.382 Q60.3339 665.096 58.5552 663.787 Q56.8013 662.453 55.0227 662.453 Q54.3557 662.453 53.6393 662.65 Q52.9476 662.848 51.9347 663.416 Q50.9219 663.984 50.1314 665.392 Q49.3656 666.801 48.995 668.925 Q48.5998 671.667 48.5998 678.238 Z" fill="#000000" fill-rule="evenodd" fill-opacity="1"></path><path clip-path="url(#clip690)" d="M72.7844 694.221 Q72.0186 693.406 72.0186 692.344 Q72.0186 691.282 72.7844 690.516 Q73.5502 689.725 74.7112 689.725 Q75.8229 689.725 76.564 690.466 Q77.3298 691.183 77.3298 692.369 Q77.3298 693.53 76.5146 694.295 Q75.7241 695.036 74.7112 695.036 Q73.5502 695.036 72.7844 694.221 Z" fill="#000000" fill-rule="evenodd" fill-opacity="1"></path><path clip-path="url(#clip690)" d="M83.9009 679.053 Q83.9009 671.099 87.9522 666.232 Q92.0036 661.341 97.216 661.341 Q100.255 661.341 101.934 662.897 Q103.639 664.429 103.639 666.801 Q103.639 668.11 102.873 668.678 Q102.107 669.246 101.317 669.246 Q100.403 669.246 99.6863 668.629 Q98.9699 668.011 98.9699 666.899 Q98.9699 664.627 101.761 664.627 Q100.452 662.601 97.3148 662.601 Q96.3514 662.601 95.3632 662.897 Q94.3751 663.169 93.0905 664.108 Q91.806 665.047 90.8178 666.529 Q89.8297 668.011 89.138 670.802 Q88.4463 673.594 88.4463 677.225 L88.4463 678.436 Q90.5214 673.421 94.7704 673.446 Q99.0193 673.446 101.959 676.682 Q104.899 679.918 104.899 684.71 Q104.899 689.626 101.836 692.887 Q98.7723 696.148 94.4739 696.148 Q92.5471 696.148 90.7931 695.333 Q89.0639 694.542 87.4335 692.714 Q85.8278 690.886 84.8643 687.378 Q83.9009 683.871 83.9009 679.053 M88.5451 683.599 Q88.5451 688.564 89.4591 690.936 Q89.6074 691.331 89.9285 691.874 Q90.2744 692.418 90.8425 693.134 Q91.4354 693.826 92.3988 694.295 Q93.3623 694.74 94.4739 694.74 Q97.8583 694.74 99.4887 691.455 Q100.353 689.626 100.353 684.661 Q100.353 679.597 99.4393 677.744 Q97.883 674.607 94.721 674.607 Q92.5965 674.607 91.1143 676.064 Q89.6568 677.522 89.0886 679.473 Q88.5451 681.425 88.5451 683.599 Z" fill="#000000" fill-rule="evenodd" fill-opacity="1"></path><path clip-path="url(#clip690)" d="M42.9921 413.14 Q42.9921 405.705 44.8696 401.653 Q47.4881 395.626 53.664 395.626 Q54.9733 395.626 56.3319 395.996 Q57.7153 396.342 59.4446 397.701 Q61.1985 399.059 62.2607 401.283 Q64.2864 405.581 64.2864 413.14 Q64.2864 420.527 62.409 424.553 Q59.6669 430.433 53.6146 430.433 Q51.3419 430.433 49.0197 429.272 Q46.7223 428.111 45.2648 425.319 Q42.9921 421.144 42.9921 413.14 M47.1917 412.523 Q47.1917 420.156 47.7352 423.195 Q48.3528 426.48 50.0326 427.913 Q51.7371 429.321 53.6146 429.321 Q55.6402 429.321 57.3201 427.814 Q59.0246 426.282 59.5434 422.997 Q60.1116 419.761 60.0869 412.523 Q60.0869 405.482 59.5928 402.666 Q58.9258 399.381 57.1472 398.071 Q55.3932 396.737 53.6146 396.737 Q52.9476 396.737 52.2312 396.935 Q51.5395 397.133 50.5267 397.701 Q49.5138 398.269 48.7233 399.677 Q47.9575 401.085 47.587 403.21 Q47.1917 405.952 47.1917 412.523 Z" fill="#000000" fill-rule="evenodd" fill-opacity="1"></path><path clip-path="url(#clip690)" d="M71.3763 428.506 Q70.6105 427.691 70.6105 426.628 Q70.6105 425.566 71.3763 424.8 Q72.1421 424.01 73.3031 424.01 Q74.4148 424.01 75.1559 424.751 Q75.9217 425.467 75.9217 426.653 Q75.9217 427.814 75.1065 428.58 Q74.316 429.321 73.3031 429.321 Q72.1421 429.321 71.3763 428.506 Z" fill="#000000" fill-rule="evenodd" fill-opacity="1"></path><path clip-path="url(#clip690)" d="M83.2092 405.532 L84.8643 395.132 L86.1242 395.132 Q86.2724 395.749 86.5194 396.021 Q86.7912 396.293 88.224 396.515 Q89.6815 396.737 92.6212 396.737 L104.899 396.737 Q104.899 397.898 104.454 398.516 L97.6113 408.126 Q95.4374 411.164 94.4739 416.772 Q93.9058 420.527 93.9305 425.072 L93.9305 427.641 Q93.9305 430.433 91.5836 430.433 Q89.2615 430.433 89.2615 427.641 Q89.2615 417.982 95.4868 408.62 Q96.1538 407.656 98.5994 404.222 Q101.07 400.789 101.169 400.64 L90.6943 400.64 Q86.0995 400.64 85.7289 400.937 Q85.2349 401.382 84.4691 405.532 L83.2092 405.532 Z" fill="#000000" fill-rule="evenodd" fill-opacity="1"></path><path clip-path="url(#clip690)" d="M44.4002 147.425 Q44.4002 139.989 46.2777 135.938 Q48.8962 129.91 55.0721 129.91 Q56.3813 129.91 57.74 130.281 Q59.1234 130.627 60.8527 131.985 Q62.6066 133.344 63.6688 135.567 Q65.6945 139.866 65.6945 147.425 Q65.6945 154.811 63.8171 158.838 Q61.075 164.717 55.0227 164.717 Q52.75 164.717 50.4278 163.556 Q48.1304 162.395 46.6729 159.604 Q44.4002 155.429 44.4002 147.425 M48.5998 146.807 Q48.5998 154.441 49.1433 157.479 Q49.7608 160.765 51.4407 162.197 Q53.1452 163.606 55.0227 163.606 Q57.0483 163.606 58.7282 162.099 Q60.4327 160.567 60.9515 157.281 Q61.5196 154.045 61.4949 146.807 Q61.4949 139.767 61.0009 136.951 Q60.3339 133.665 58.5552 132.356 Q56.8013 131.022 55.0227 131.022 Q54.3557 131.022 53.6393 131.219 Q52.9476 131.417 51.9347 131.985 Q50.9219 132.553 50.1314 133.961 Q49.3656 135.37 48.995 137.494 Q48.5998 140.236 48.5998 146.807 Z" fill="#000000" fill-rule="evenodd" fill-opacity="1"></path><path clip-path="url(#clip690)" d="M72.7844 162.79 Q72.0186 161.975 72.0186 160.913 Q72.0186 159.851 72.7844 159.085 Q73.5502 158.294 74.7112 158.294 Q75.8229 158.294 76.564 159.035 Q77.3298 159.752 77.3298 160.938 Q77.3298 162.099 76.5146 162.864 Q75.7241 163.606 74.7112 163.606 Q73.5502 163.606 72.7844 162.79 Z" fill="#000000" fill-rule="evenodd" fill-opacity="1"></path><path clip-path="url(#clip690)" d="M83.9009 155.972 Q83.9009 150.315 91.1884 146.659 Q88.0511 144.535 87.4829 143.917 Q85.2596 141.447 85.2596 138.359 Q85.2596 134.826 87.9275 132.38 Q90.6202 129.91 94.4245 129.91 Q98.0559 129.91 100.798 132.01 Q103.54 134.11 103.54 137.445 Q103.54 142.138 97.4136 145.3 Q101.465 147.82 102.428 148.882 Q104.899 151.624 104.899 155.108 Q104.899 159.159 101.786 161.95 Q98.6735 164.717 94.3751 164.717 Q90.1755 164.717 87.0382 162.272 Q83.9009 159.826 83.9009 155.972 M86.4206 155.972 Q86.4206 159.11 88.7675 161.209 Q91.139 163.309 94.4245 163.309 Q97.6113 163.309 99.9828 161.481 Q102.379 159.653 102.379 156.936 Q102.379 155.873 102.008 154.959 Q101.663 154.045 100.946 153.329 Q100.255 152.588 99.8099 152.267 Q99.3899 151.921 98.5747 151.353 L92.3494 147.425 Q86.4206 150.71 86.4206 155.972 M87.4829 136.382 Q87.4829 138.803 90.0273 140.483 L96.302 144.535 Q101.317 141.595 101.317 137.445 Q101.317 134.752 99.2664 132.973 Q97.216 131.17 94.3751 131.17 Q91.5836 131.17 89.5333 132.652 Q87.4829 134.11 87.4829 136.382 Z" fill="#000000" fill-rule="evenodd" fill-opacity="1"></path><polyline clip-path="url(#clip693)" style="stroke:#009af9; stroke-linecap:round; stroke-linejoin:round; stroke-width:8; stroke-opacity:1; fill:none" points="
  215.508,1337.65 402.951,809.154 590.394,99.067 777.836,188.709 965.279,954.198 1152.72,1337.65 1340.16,809.154 1527.61,99.067 1715.05,188.709 1902.49,954.198 
  
  "></polyline>
<polyline clip-path="url(#clip693)" style="stroke:#009af9; stroke-linecap:round; stroke-linejoin:round; stroke-width:8; stroke-opacity:1; fill:none" stroke-dasharray="32, 20" points="
  215.508,1525.79 402.951,889.108 590.394,97.974 777.836,615.513 965.279,988.811 1152.72,1170.12 1340.16,803.256 1527.61,247.855 1715.05,112.882 1902.49,1111.27 
  
  "></polyline>
<polyline clip-path="url(#clip693)" style="stroke:#e26f46; stroke-linecap:round; stroke-linejoin:round; stroke-width:8; stroke-opacity:1; fill:none" points="
  215.508,549.29 402.951,1077.79 590.394,1787.88 777.836,1698.23 965.279,932.746 1152.72,549.29 1340.16,1077.79 1527.61,1787.88 1715.05,1698.23 1902.49,932.746 
  
  "></polyline>
<polyline clip-path="url(#clip693)" style="stroke:#e26f46; stroke-linecap:round; stroke-linejoin:round; stroke-width:8; stroke-opacity:1; fill:none" stroke-dasharray="32, 20" points="
  215.508,361.149 402.951,997.835 590.394,1788.97 777.836,1271.43 965.279,898.133 1152.72,716.825 1340.16,1083.69 1527.61,1639.09 1715.05,1774.06 1902.49,775.677 
  
  "></polyline>
<path clip-path="url(#clip690)" d="
M1586.46 438.647 L1893.49 438.647 L1893.49 106.993 L1586.46 106.993  Z
  " fill="#ffffff" fill-rule="evenodd" fill-opacity="1"></path>
<polyline clip-path="url(#clip690)" style="stroke:#000000; stroke-linecap:round; stroke-linejoin:round; stroke-width:4; stroke-opacity:1; fill:none" points="
  1586.46,438.647 1893.49,438.647 1893.49,106.993 1586.46,106.993 1586.46,438.647 
  "></polyline>
<polyline clip-path="url(#clip690)" style="stroke:#009af9; stroke-linecap:round; stroke-linejoin:round; stroke-width:4; stroke-opacity:1; fill:none" points="
  1606.33,173.324 1725.54,173.324 
  "></polyline>
<path clip-path="url(#clip690)" d="M1778.58 157.734 Q1778.58 161.107 1777.36 164.456 Q1776.14 167.782 1774.1 170.476 Q1772.09 173.17 1769.47 175.254 Q1766.87 177.315 1764.08 178.369 Q1764.43 181.18 1765.13 182.234 Q1765.86 183.311 1767.47 183.311 Q1768.41 183.311 1769.42 182.89 Q1770.45 182.468 1771.5 181.367 Q1772.56 180.29 1773.1 178.697 Q1773.26 178.182 1773.68 178.182 Q1773.85 178.182 1774.01 178.322 Q1774.2 178.44 1774.2 178.65 Q1774.2 178.838 1773.99 179.517 Q1773.8 180.22 1773.4 181.297 Q1773 182.375 1772.32 183.499 Q1771.64 184.647 1770.8 185.654 Q1769.98 186.661 1768.76 187.293 Q1767.54 187.949 1766.19 187.949 Q1765.06 187.949 1764.24 187.527 Q1763.45 187.106 1763.05 186.567 Q1762.67 186.028 1762.46 185.162 Q1762.25 184.319 1762.23 183.85 Q1762.2 183.382 1762.2 182.679 Q1762.2 181.953 1762.39 178.978 Q1759.86 179.704 1757.71 179.704 Q1752.39 179.704 1748.9 176.214 Q1745.41 172.725 1745.41 166.892 Q1745.41 162.817 1747.24 158.765 Q1749.06 154.689 1751.97 151.668 Q1754.87 148.623 1758.69 146.726 Q1762.53 144.828 1766.33 144.828 Q1771.71 144.828 1775.13 148.412 Q1778.58 151.972 1778.58 157.734 M1774.34 156.212 Q1774.34 151.48 1772.02 148.763 Q1769.72 146.023 1766.05 146.023 Q1763.24 146.023 1760.12 147.826 Q1757.03 149.63 1754.52 153.12 Q1752.06 156.61 1750.84 160.99 Q1749.65 165.37 1749.65 168.438 Q1749.65 171.834 1750.99 174.387 Q1752.32 176.917 1755.01 177.971 Q1754.73 177.409 1754.73 176.449 Q1754.73 174.575 1756.23 173.076 Q1757.73 171.553 1759.63 171.553 Q1760.47 171.553 1761.13 171.811 Q1761.81 172.045 1762.23 172.537 Q1762.67 173.029 1762.95 173.497 Q1763.26 173.942 1763.42 174.669 Q1763.61 175.371 1763.68 175.746 Q1763.75 176.097 1763.84 176.73 Q1766.14 175.442 1768.01 173.333 Q1769.89 171.202 1771.03 168.953 Q1772.18 166.682 1772.96 164.222 Q1773.73 161.739 1774.03 159.772 Q1774.34 157.781 1774.34 156.212 M1762.53 176.683 Q1762.53 174.505 1761.83 173.568 Q1761.15 172.607 1759.63 172.607 Q1758.13 172.607 1756.96 173.802 Q1755.79 174.996 1755.79 176.449 Q1755.79 177.175 1756 177.643 Q1756.23 178.088 1756.65 178.276 Q1757.08 178.44 1757.33 178.486 Q1757.59 178.51 1757.99 178.51 Q1760.03 178.51 1762.02 177.643 Q1762.37 177.503 1762.44 177.362 Q1762.53 177.222 1762.53 176.683 Z" fill="#000000" fill-rule="evenodd" fill-opacity="1"></path><path clip-path="url(#clip690)" d="M1783.37 181.992 L1783.37 180.942 Q1787.4 180.942 1789.48 178.794 Q1790.06 178.794 1790.16 178.926 Q1790.26 179.057 1790.26 179.663 L1790.26 198.502 Q1790.26 199.502 1790.75 199.814 Q1791.24 200.125 1793.39 200.125 L1794.45 200.125 L1794.45 201.158 Q1793.27 201.06 1789.01 201.06 Q1784.75 201.06 1783.58 201.158 L1783.58 200.125 L1784.65 200.125 Q1786.76 200.125 1787.27 199.83 Q1787.78 199.519 1787.78 198.502 L1787.78 181.106 Q1786.03 181.992 1783.37 181.992 Z" fill="#000000" fill-rule="evenodd" fill-opacity="1"></path><path clip-path="url(#clip690)" d="M1838.73 192.321 Q1839.02 192.436 1839.02 192.764 Q1839.02 193.092 1838.73 193.206 Q1836.27 194.026 1834.12 196.699 Q1832.59 198.682 1832.17 200.961 Q1832.12 201.191 1831.94 201.339 Q1831.76 201.486 1831.51 201.486 Q1831.23 201.486 1831.04 201.289 Q1830.84 201.109 1830.84 200.83 Q1830.84 200.814 1830.86 200.765 Q1830.87 200.699 1830.87 200.683 Q1831.36 198.027 1833.09 195.846 Q1834.17 194.469 1835.71 193.436 L1809.98 193.436 Q1809.71 193.436 1809.51 193.239 Q1809.31 193.042 1809.31 192.764 Q1809.31 192.485 1809.51 192.288 Q1809.71 192.091 1809.98 192.091 L1835.71 192.091 Q1834.17 191.058 1833.09 189.681 Q1831.36 187.501 1830.87 184.844 Q1830.87 184.828 1830.86 184.779 Q1830.84 184.713 1830.84 184.697 Q1830.84 184.418 1831.04 184.238 Q1831.23 184.041 1831.51 184.041 Q1831.76 184.041 1831.94 184.189 Q1832.12 184.336 1832.17 184.566 Q1832.59 186.845 1834.12 188.829 Q1836.27 191.501 1838.73 192.321 Z" fill="#000000" fill-rule="evenodd" fill-opacity="1"></path><path clip-path="url(#clip690)" d="M1851.88 181.992 L1851.88 180.942 Q1855.91 180.942 1858 178.794 Q1858.57 178.794 1858.67 178.926 Q1858.77 179.057 1858.77 179.663 L1858.77 198.502 Q1858.77 199.502 1859.26 199.814 Q1859.75 200.125 1861.9 200.125 L1862.96 200.125 L1862.96 201.158 Q1861.78 201.06 1857.52 201.06 Q1853.26 201.06 1852.09 201.158 L1852.09 200.125 L1853.16 200.125 Q1855.27 200.125 1855.78 199.83 Q1856.29 199.519 1856.29 198.502 L1856.29 181.106 Q1854.54 181.992 1851.88 181.992 Z" fill="#000000" fill-rule="evenodd" fill-opacity="1"></path><polyline clip-path="url(#clip690)" style="stroke:#009af9; stroke-linecap:round; stroke-linejoin:round; stroke-width:4; stroke-opacity:1; fill:none" stroke-dasharray="16, 10" points="
  1606.33,239.654 1725.54,239.654 
  "></polyline>
<path clip-path="url(#clip690)" d="M1772 210.518 L1771.59 211.19 Q1769.04 210.092 1765.88 208.337 Q1762.72 210.092 1760.17 211.19 L1759.78 210.518 Q1762.55 208.108 1765.88 206.255 Q1769.24 208.124 1772 210.518 Z" fill="#000000" fill-rule="evenodd" fill-opacity="1"></path><path clip-path="url(#clip690)" d="M1778.58 229.068 Q1778.58 232.441 1777.36 235.79 Q1776.14 239.116 1774.1 241.81 Q1772.09 244.503 1769.47 246.588 Q1766.87 248.649 1764.08 249.703 Q1764.43 252.514 1765.13 253.568 Q1765.86 254.645 1767.47 254.645 Q1768.41 254.645 1769.42 254.223 Q1770.45 253.802 1771.5 252.701 Q1772.56 251.624 1773.1 250.031 Q1773.26 249.516 1773.68 249.516 Q1773.85 249.516 1774.01 249.656 Q1774.2 249.773 1774.2 249.984 Q1774.2 250.171 1773.99 250.851 Q1773.8 251.553 1773.4 252.631 Q1773 253.708 1772.32 254.832 Q1771.64 255.98 1770.8 256.987 Q1769.98 257.995 1768.76 258.627 Q1767.54 259.283 1766.19 259.283 Q1765.06 259.283 1764.24 258.861 Q1763.45 258.44 1763.05 257.901 Q1762.67 257.362 1762.46 256.495 Q1762.25 255.652 1762.23 255.184 Q1762.2 254.715 1762.2 254.013 Q1762.2 253.287 1762.39 250.312 Q1759.86 251.038 1757.71 251.038 Q1752.39 251.038 1748.9 247.548 Q1745.41 244.058 1745.41 238.226 Q1745.41 234.15 1747.24 230.098 Q1749.06 226.023 1751.97 223.001 Q1754.87 219.956 1758.69 218.059 Q1762.53 216.162 1766.33 216.162 Q1771.71 216.162 1775.13 219.746 Q1778.58 223.306 1778.58 229.068 M1774.34 227.545 Q1774.34 222.814 1772.02 220.097 Q1769.72 217.357 1766.05 217.357 Q1763.24 217.357 1760.12 219.16 Q1757.03 220.964 1754.52 224.454 Q1752.06 227.944 1750.84 232.324 Q1749.65 236.703 1749.65 239.772 Q1749.65 243.168 1750.99 245.721 Q1752.32 248.251 1755.01 249.305 Q1754.73 248.743 1754.73 247.782 Q1754.73 245.909 1756.23 244.409 Q1757.73 242.887 1759.63 242.887 Q1760.47 242.887 1761.13 243.145 Q1761.81 243.379 1762.23 243.871 Q1762.67 244.363 1762.95 244.831 Q1763.26 245.276 1763.42 246.002 Q1763.61 246.705 1763.68 247.08 Q1763.75 247.431 1763.84 248.063 Q1766.14 246.775 1768.01 244.667 Q1769.89 242.536 1771.03 240.287 Q1772.18 238.015 1772.96 235.556 Q1773.73 233.073 1774.03 231.106 Q1774.34 229.115 1774.34 227.545 M1762.53 248.017 Q1762.53 245.838 1761.83 244.901 Q1761.15 243.941 1759.63 243.941 Q1758.13 243.941 1756.96 245.136 Q1755.79 246.33 1755.79 247.782 Q1755.79 248.508 1756 248.977 Q1756.23 249.422 1756.65 249.609 Q1757.08 249.773 1757.33 249.82 Q1757.59 249.843 1757.99 249.843 Q1760.03 249.843 1762.02 248.977 Q1762.37 248.836 1762.44 248.696 Q1762.53 248.555 1762.53 248.017 Z" fill="#000000" fill-rule="evenodd" fill-opacity="1"></path><path clip-path="url(#clip690)" d="M1783.37 253.325 L1783.37 252.276 Q1787.4 252.276 1789.48 250.128 Q1790.06 250.128 1790.16 250.259 Q1790.26 250.39 1790.26 250.997 L1790.26 269.836 Q1790.26 270.836 1790.75 271.147 Q1791.24 271.459 1793.39 271.459 L1794.45 271.459 L1794.45 272.492 Q1793.27 272.393 1789.01 272.393 Q1784.75 272.393 1783.58 272.492 L1783.58 271.459 L1784.65 271.459 Q1786.76 271.459 1787.27 271.164 Q1787.78 270.852 1787.78 269.836 L1787.78 252.44 Q1786.03 253.325 1783.37 253.325 Z" fill="#000000" fill-rule="evenodd" fill-opacity="1"></path><path clip-path="url(#clip690)" d="M1838.73 263.655 Q1839.02 263.769 1839.02 264.097 Q1839.02 264.425 1838.73 264.54 Q1836.27 265.36 1834.12 268.032 Q1832.59 270.016 1832.17 272.295 Q1832.12 272.525 1831.94 272.672 Q1831.76 272.82 1831.51 272.82 Q1831.23 272.82 1831.04 272.623 Q1830.84 272.443 1830.84 272.164 Q1830.84 272.148 1830.86 272.098 Q1830.87 272.033 1830.87 272.016 Q1831.36 269.36 1833.09 267.18 Q1834.17 265.802 1835.71 264.769 L1809.98 264.769 Q1809.71 264.769 1809.51 264.573 Q1809.31 264.376 1809.31 264.097 Q1809.31 263.819 1809.51 263.622 Q1809.71 263.425 1809.98 263.425 L1835.71 263.425 Q1834.17 262.392 1833.09 261.015 Q1831.36 258.834 1830.87 256.178 Q1830.87 256.162 1830.86 256.113 Q1830.84 256.047 1830.84 256.031 Q1830.84 255.752 1831.04 255.571 Q1831.23 255.375 1831.51 255.375 Q1831.76 255.375 1831.94 255.522 Q1832.12 255.67 1832.17 255.899 Q1832.59 258.178 1834.12 260.162 Q1836.27 262.835 1838.73 263.655 Z" fill="#000000" fill-rule="evenodd" fill-opacity="1"></path><path clip-path="url(#clip690)" d="M1851.88 253.325 L1851.88 252.276 Q1855.91 252.276 1858 250.128 Q1858.57 250.128 1858.67 250.259 Q1858.77 250.39 1858.77 250.997 L1858.77 269.836 Q1858.77 270.836 1859.26 271.147 Q1859.75 271.459 1861.9 271.459 L1862.96 271.459 L1862.96 272.492 Q1861.78 272.393 1857.52 272.393 Q1853.26 272.393 1852.09 272.492 L1852.09 271.459 L1853.16 271.459 Q1855.27 271.459 1855.78 271.164 Q1856.29 270.852 1856.29 269.836 L1856.29 252.44 Q1854.54 253.325 1851.88 253.325 Z" fill="#000000" fill-rule="evenodd" fill-opacity="1"></path><polyline clip-path="url(#clip690)" style="stroke:#e26f46; stroke-linecap:round; stroke-linejoin:round; stroke-width:4; stroke-opacity:1; fill:none" points="
  1606.33,305.985 1725.54,305.985 
  "></polyline>
<path clip-path="url(#clip690)" d="M1778.58 290.396 Q1778.58 293.769 1777.36 297.118 Q1776.14 300.444 1774.1 303.138 Q1772.09 305.831 1769.47 307.916 Q1766.87 309.977 1764.08 311.031 Q1764.43 313.842 1765.13 314.896 Q1765.86 315.973 1767.47 315.973 Q1768.41 315.973 1769.42 315.552 Q1770.45 315.13 1771.5 314.029 Q1772.56 312.952 1773.1 311.359 Q1773.26 310.844 1773.68 310.844 Q1773.85 310.844 1774.01 310.984 Q1774.2 311.101 1774.2 311.312 Q1774.2 311.5 1773.99 312.179 Q1773.8 312.882 1773.4 313.959 Q1773 315.036 1772.32 316.161 Q1771.64 317.308 1770.8 318.316 Q1769.98 319.323 1768.76 319.955 Q1767.54 320.611 1766.19 320.611 Q1765.06 320.611 1764.24 320.189 Q1763.45 319.768 1763.05 319.229 Q1762.67 318.69 1762.46 317.824 Q1762.25 316.98 1762.23 316.512 Q1762.2 316.044 1762.2 315.341 Q1762.2 314.615 1762.39 311.64 Q1759.86 312.366 1757.71 312.366 Q1752.39 312.366 1748.9 308.876 Q1745.41 305.386 1745.41 299.554 Q1745.41 295.479 1747.24 291.427 Q1749.06 287.351 1751.97 284.33 Q1754.87 281.285 1758.69 279.387 Q1762.53 277.49 1766.33 277.49 Q1771.71 277.49 1775.13 281.074 Q1778.58 284.634 1778.58 290.396 M1774.34 288.874 Q1774.34 284.142 1772.02 281.425 Q1769.72 278.685 1766.05 278.685 Q1763.24 278.685 1760.12 280.488 Q1757.03 282.292 1754.52 285.782 Q1752.06 289.272 1750.84 293.652 Q1749.65 298.032 1749.65 301.1 Q1749.65 304.496 1750.99 307.049 Q1752.32 309.579 1755.01 310.633 Q1754.73 310.071 1754.73 309.111 Q1754.73 307.237 1756.23 305.738 Q1757.73 304.215 1759.63 304.215 Q1760.47 304.215 1761.13 304.473 Q1761.81 304.707 1762.23 305.199 Q1762.67 305.691 1762.95 306.159 Q1763.26 306.604 1763.42 307.33 Q1763.61 308.033 1763.68 308.408 Q1763.75 308.759 1763.84 309.392 Q1766.14 308.103 1768.01 305.995 Q1769.89 303.864 1771.03 301.615 Q1772.18 299.343 1772.96 296.884 Q1773.73 294.401 1774.03 292.434 Q1774.34 290.443 1774.34 288.874 M1762.53 309.345 Q1762.53 307.166 1761.83 306.23 Q1761.15 305.269 1759.63 305.269 Q1758.13 305.269 1756.96 306.464 Q1755.79 307.658 1755.79 309.111 Q1755.79 309.837 1756 310.305 Q1756.23 310.75 1756.65 310.937 Q1757.08 311.101 1757.33 311.148 Q1757.59 311.172 1757.99 311.172 Q1760.03 311.172 1762.02 310.305 Q1762.37 310.165 1762.44 310.024 Q1762.53 309.883 1762.53 309.345 Z" fill="#000000" fill-rule="evenodd" fill-opacity="1"></path><path clip-path="url(#clip690)" d="M1783.37 314.653 L1783.37 313.604 Q1787.4 313.604 1789.48 311.456 Q1790.06 311.456 1790.16 311.587 Q1790.26 311.719 1790.26 312.325 L1790.26 331.164 Q1790.26 332.164 1790.75 332.476 Q1791.24 332.787 1793.39 332.787 L1794.45 332.787 L1794.45 333.82 Q1793.27 333.722 1789.01 333.722 Q1784.75 333.722 1783.58 333.82 L1783.58 332.787 L1784.65 332.787 Q1786.76 332.787 1787.27 332.492 Q1787.78 332.18 1787.78 331.164 L1787.78 313.768 Q1786.03 314.653 1783.37 314.653 Z" fill="#000000" fill-rule="evenodd" fill-opacity="1"></path><path clip-path="url(#clip690)" d="M1838.73 324.983 Q1839.02 325.098 1839.02 325.425 Q1839.02 325.753 1838.73 325.868 Q1836.27 326.688 1834.12 329.36 Q1832.59 331.344 1832.17 333.623 Q1832.12 333.853 1831.94 334 Q1831.76 334.148 1831.51 334.148 Q1831.23 334.148 1831.04 333.951 Q1830.84 333.771 1830.84 333.492 Q1830.84 333.476 1830.86 333.427 Q1830.87 333.361 1830.87 333.345 Q1831.36 330.688 1833.09 328.508 Q1834.17 327.131 1835.71 326.098 L1809.98 326.098 Q1809.71 326.098 1809.51 325.901 Q1809.31 325.704 1809.31 325.425 Q1809.31 325.147 1809.51 324.95 Q1809.71 324.753 1809.98 324.753 L1835.71 324.753 Q1834.17 323.72 1833.09 322.343 Q1831.36 320.162 1830.87 317.506 Q1830.87 317.49 1830.86 317.441 Q1830.84 317.375 1830.84 317.359 Q1830.84 317.08 1831.04 316.9 Q1831.23 316.703 1831.51 316.703 Q1831.76 316.703 1831.94 316.851 Q1832.12 316.998 1832.17 317.228 Q1832.59 319.507 1834.12 321.49 Q1836.27 324.163 1838.73 324.983 Z" fill="#000000" fill-rule="evenodd" fill-opacity="1"></path><path clip-path="url(#clip690)" d="M1851.88 333.82 Q1851.88 333.213 1851.93 333.033 Q1852 332.853 1852.26 332.574 L1858.7 325.393 Q1862.23 321.425 1862.23 317.965 Q1862.23 315.719 1861.05 314.112 Q1859.88 312.506 1857.73 312.506 Q1856.26 312.506 1855.01 313.407 Q1853.77 314.309 1853.19 315.916 Q1853.29 315.883 1853.64 315.883 Q1854.47 315.883 1854.93 316.408 Q1855.41 316.932 1855.41 317.638 Q1855.41 318.539 1854.82 318.982 Q1854.24 319.408 1853.67 319.408 Q1853.44 319.408 1853.13 319.359 Q1852.83 319.31 1852.36 318.851 Q1851.88 318.375 1851.88 317.539 Q1851.88 315.195 1853.65 313.325 Q1855.44 311.456 1858.16 311.456 Q1861.24 311.456 1863.26 313.293 Q1865.29 315.113 1865.29 317.965 Q1865.29 318.966 1864.98 319.884 Q1864.69 320.785 1864.28 321.49 Q1863.88 322.196 1862.8 323.327 Q1861.72 324.458 1860.85 325.262 Q1859.98 326.065 1858.03 327.77 L1854.47 331.23 L1860.52 331.23 Q1863.47 331.23 1863.7 330.967 Q1864.03 330.492 1864.44 327.983 L1865.29 327.983 L1864.34 333.82 L1851.88 333.82 Z" fill="#000000" fill-rule="evenodd" fill-opacity="1"></path><polyline clip-path="url(#clip690)" style="stroke:#e26f46; stroke-linecap:round; stroke-linejoin:round; stroke-width:4; stroke-opacity:1; fill:none" stroke-dasharray="16, 10" points="
  1606.33,372.316 1725.54,372.316 
  "></polyline>
<path clip-path="url(#clip690)" d="M1772 343.18 L1771.59 343.852 Q1769.04 342.754 1765.88 340.999 Q1762.72 342.754 1760.17 343.852 L1759.78 343.18 Q1762.55 340.77 1765.88 338.917 Q1769.24 340.786 1772 343.18 Z" fill="#000000" fill-rule="evenodd" fill-opacity="1"></path><path clip-path="url(#clip690)" d="M1778.58 361.73 Q1778.58 365.102 1777.36 368.452 Q1776.14 371.778 1774.1 374.471 Q1772.09 377.165 1769.47 379.25 Q1766.87 381.311 1764.08 382.365 Q1764.43 385.176 1765.13 386.23 Q1765.86 387.307 1767.47 387.307 Q1768.41 387.307 1769.42 386.885 Q1770.45 386.464 1771.5 385.363 Q1772.56 384.285 1773.1 382.693 Q1773.26 382.177 1773.68 382.177 Q1773.85 382.177 1774.01 382.318 Q1774.2 382.435 1774.2 382.646 Q1774.2 382.833 1773.99 383.513 Q1773.8 384.215 1773.4 385.293 Q1773 386.37 1772.32 387.494 Q1771.64 388.642 1770.8 389.649 Q1769.98 390.656 1768.76 391.289 Q1767.54 391.945 1766.19 391.945 Q1765.06 391.945 1764.24 391.523 Q1763.45 391.101 1763.05 390.563 Q1762.67 390.024 1762.46 389.157 Q1762.25 388.314 1762.23 387.846 Q1762.2 387.377 1762.2 386.675 Q1762.2 385.948 1762.39 382.974 Q1759.86 383.7 1757.71 383.7 Q1752.39 383.7 1748.9 380.21 Q1745.41 376.72 1745.41 370.888 Q1745.41 366.812 1747.24 362.76 Q1749.06 358.685 1751.97 355.663 Q1754.87 352.618 1758.69 350.721 Q1762.53 348.824 1766.33 348.824 Q1771.71 348.824 1775.13 352.408 Q1778.58 355.968 1778.58 361.73 M1774.34 360.207 Q1774.34 355.476 1772.02 352.759 Q1769.72 350.018 1766.05 350.018 Q1763.24 350.018 1760.12 351.822 Q1757.03 353.625 1754.52 357.115 Q1752.06 360.605 1750.84 364.985 Q1749.65 369.365 1749.65 372.434 Q1749.65 375.83 1750.99 378.383 Q1752.32 380.913 1755.01 381.967 Q1754.73 381.405 1754.73 380.444 Q1754.73 378.57 1756.23 377.071 Q1757.73 375.549 1759.63 375.549 Q1760.47 375.549 1761.13 375.807 Q1761.81 376.041 1762.23 376.533 Q1762.67 377.025 1762.95 377.493 Q1763.26 377.938 1763.42 378.664 Q1763.61 379.367 1763.68 379.742 Q1763.75 380.093 1763.84 380.725 Q1766.14 379.437 1768.01 377.329 Q1769.89 375.198 1771.03 372.949 Q1772.18 370.677 1772.96 368.218 Q1773.73 365.735 1774.03 363.767 Q1774.34 361.777 1774.34 360.207 M1762.53 380.678 Q1762.53 378.5 1761.83 377.563 Q1761.15 376.603 1759.63 376.603 Q1758.13 376.603 1756.96 377.797 Q1755.79 378.992 1755.79 380.444 Q1755.79 381.17 1756 381.639 Q1756.23 382.084 1756.65 382.271 Q1757.08 382.435 1757.33 382.482 Q1757.59 382.505 1757.99 382.505 Q1760.03 382.505 1762.02 381.639 Q1762.37 381.498 1762.44 381.358 Q1762.53 381.217 1762.53 380.678 Z" fill="#000000" fill-rule="evenodd" fill-opacity="1"></path><path clip-path="url(#clip690)" d="M1783.37 385.987 L1783.37 384.938 Q1787.4 384.938 1789.48 382.79 Q1790.06 382.79 1790.16 382.921 Q1790.26 383.052 1790.26 383.659 L1790.26 402.498 Q1790.26 403.498 1790.75 403.809 Q1791.24 404.121 1793.39 404.121 L1794.45 404.121 L1794.45 405.154 Q1793.27 405.055 1789.01 405.055 Q1784.75 405.055 1783.58 405.154 L1783.58 404.121 L1784.65 404.121 Q1786.76 404.121 1787.27 403.826 Q1787.78 403.514 1787.78 402.498 L1787.78 385.102 Q1786.03 385.987 1783.37 385.987 Z" fill="#000000" fill-rule="evenodd" fill-opacity="1"></path><path clip-path="url(#clip690)" d="M1838.73 396.316 Q1839.02 396.431 1839.02 396.759 Q1839.02 397.087 1838.73 397.202 Q1836.27 398.022 1834.12 400.694 Q1832.59 402.678 1832.17 404.957 Q1832.12 405.187 1831.94 405.334 Q1831.76 405.482 1831.51 405.482 Q1831.23 405.482 1831.04 405.285 Q1830.84 405.105 1830.84 404.826 Q1830.84 404.809 1830.86 404.76 Q1830.87 404.695 1830.87 404.678 Q1831.36 402.022 1833.09 399.842 Q1834.17 398.464 1835.71 397.431 L1809.98 397.431 Q1809.71 397.431 1809.51 397.235 Q1809.31 397.038 1809.31 396.759 Q1809.31 396.48 1809.51 396.284 Q1809.71 396.087 1809.98 396.087 L1835.71 396.087 Q1834.17 395.054 1833.09 393.677 Q1831.36 391.496 1830.87 388.84 Q1830.87 388.824 1830.86 388.774 Q1830.84 388.709 1830.84 388.692 Q1830.84 388.414 1831.04 388.233 Q1831.23 388.037 1831.51 388.037 Q1831.76 388.037 1831.94 388.184 Q1832.12 388.332 1832.17 388.561 Q1832.59 390.84 1834.12 392.824 Q1836.27 395.497 1838.73 396.316 Z" fill="#000000" fill-rule="evenodd" fill-opacity="1"></path><path clip-path="url(#clip690)" d="M1851.88 405.154 Q1851.88 404.547 1851.93 404.367 Q1852 404.186 1852.26 403.908 L1858.7 396.726 Q1862.23 392.759 1862.23 389.299 Q1862.23 387.053 1861.05 385.446 Q1859.88 383.839 1857.73 383.839 Q1856.26 383.839 1855.01 384.741 Q1853.77 385.643 1853.19 387.25 Q1853.29 387.217 1853.64 387.217 Q1854.47 387.217 1854.93 387.741 Q1855.41 388.266 1855.41 388.971 Q1855.41 389.873 1854.82 390.316 Q1854.24 390.742 1853.67 390.742 Q1853.44 390.742 1853.13 390.693 Q1852.83 390.644 1852.36 390.184 Q1851.88 389.709 1851.88 388.873 Q1851.88 386.528 1853.65 384.659 Q1855.44 382.79 1858.16 382.79 Q1861.24 382.79 1863.26 384.626 Q1865.29 386.446 1865.29 389.299 Q1865.29 390.299 1864.98 391.217 Q1864.69 392.119 1864.28 392.824 Q1863.88 393.529 1862.8 394.66 Q1861.72 395.792 1860.85 396.595 Q1859.98 397.399 1858.03 399.104 L1854.47 402.563 L1860.52 402.563 Q1863.47 402.563 1863.7 402.301 Q1864.03 401.825 1864.44 399.317 L1865.29 399.317 L1864.34 405.154 L1851.88 405.154 Z" fill="#000000" fill-rule="evenodd" fill-opacity="1"></path><path clip-path="url(#clip690)" d="
M2164.55 1839.7 L3952.76 1839.7 L3952.76 47.2441 L2164.55 47.2441  Z
  " fill="#ffffff" fill-rule="evenodd" fill-opacity="1"></path>
<defs>
  <clipPath id="clip694">
    <rect x="2164" y="47" width="1789" height="1793"></rect>
  </clipPath>
</defs>
<polyline clip-path="url(#clip694)" style="stroke:#000000; stroke-linecap:round; stroke-linejoin:round; stroke-width:2; stroke-opacity:0.1; fill:none" points="
  2402.61,1839.7 2402.61,47.2441 
  "></polyline>
<polyline clip-path="url(#clip694)" style="stroke:#000000; stroke-linecap:round; stroke-linejoin:round; stroke-width:2; stroke-opacity:0.1; fill:none" points="
  2777.49,1839.7 2777.49,47.2441 
  "></polyline>
<polyline clip-path="url(#clip694)" style="stroke:#000000; stroke-linecap:round; stroke-linejoin:round; stroke-width:2; stroke-opacity:0.1; fill:none" points="
  3152.38,1839.7 3152.38,47.2441 
  "></polyline>
<polyline clip-path="url(#clip694)" style="stroke:#000000; stroke-linecap:round; stroke-linejoin:round; stroke-width:2; stroke-opacity:0.1; fill:none" points="
  3527.26,1839.7 3527.26,47.2441 
  "></polyline>
<polyline clip-path="url(#clip694)" style="stroke:#000000; stroke-linecap:round; stroke-linejoin:round; stroke-width:2; stroke-opacity:0.1; fill:none" points="
  3902.15,1839.7 3902.15,47.2441 
  "></polyline>
<polyline clip-path="url(#clip690)" style="stroke:#000000; stroke-linecap:round; stroke-linejoin:round; stroke-width:4; stroke-opacity:1; fill:none" points="
  2164.55,1839.7 3952.76,1839.7 
  "></polyline>
<polyline clip-path="url(#clip690)" style="stroke:#000000; stroke-linecap:round; stroke-linejoin:round; stroke-width:4; stroke-opacity:1; fill:none" points="
  2402.61,1839.7 2402.61,1820.8 
  "></polyline>
<polyline clip-path="url(#clip690)" style="stroke:#000000; stroke-linecap:round; stroke-linejoin:round; stroke-width:4; stroke-opacity:1; fill:none" points="
  2777.49,1839.7 2777.49,1820.8 
  "></polyline>
<polyline clip-path="url(#clip690)" style="stroke:#000000; stroke-linecap:round; stroke-linejoin:round; stroke-width:4; stroke-opacity:1; fill:none" points="
  3152.38,1839.7 3152.38,1820.8 
  "></polyline>
<polyline clip-path="url(#clip690)" style="stroke:#000000; stroke-linecap:round; stroke-linejoin:round; stroke-width:4; stroke-opacity:1; fill:none" points="
  3527.26,1839.7 3527.26,1820.8 
  "></polyline>
<polyline clip-path="url(#clip690)" style="stroke:#000000; stroke-linecap:round; stroke-linejoin:round; stroke-width:4; stroke-opacity:1; fill:none" points="
  3902.15,1839.7 3902.15,1820.8 
  "></polyline>
<path clip-path="url(#clip690)" d="M2392.5 1914.9 Q2392.5 1913.99 2392.58 1913.71 Q2392.67 1913.44 2393.07 1913.02 L2402.78 1902.2 Q2408.09 1896.22 2408.09 1891.01 Q2408.09 1887.63 2406.31 1885.21 Q2404.56 1882.79 2401.32 1882.79 Q2399.1 1882.79 2397.22 1884.14 Q2395.34 1885.5 2394.48 1887.92 Q2394.63 1887.87 2395.14 1887.87 Q2396.4 1887.87 2397.1 1888.66 Q2397.81 1889.46 2397.81 1890.52 Q2397.81 1891.88 2396.92 1892.54 Q2396.06 1893.19 2395.19 1893.19 Q2394.85 1893.19 2394.38 1893.11 Q2393.93 1893.04 2393.22 1892.35 Q2392.5 1891.63 2392.5 1890.37 Q2392.5 1886.84 2395.17 1884.02 Q2397.86 1881.2 2401.96 1881.2 Q2406.61 1881.2 2409.65 1883.97 Q2412.71 1886.71 2412.71 1891.01 Q2412.71 1892.52 2412.24 1893.9 Q2411.79 1895.26 2411.18 1896.32 Q2410.58 1897.39 2408.95 1899.09 Q2407.32 1900.79 2406.01 1902 Q2404.7 1903.22 2401.77 1905.78 L2396.4 1911 L2405.52 1911 Q2409.97 1911 2410.31 1910.6 Q2410.81 1909.89 2411.42 1906.11 L2412.71 1906.11 L2411.28 1914.9 L2392.5 1914.9 Z" fill="#000000" fill-rule="evenodd" fill-opacity="1"></path><path clip-path="url(#clip690)" d="M2766.28 1906.55 L2766.28 1904.99 L2781.81 1881.25 Q2782.21 1880.64 2782.83 1880.66 Q2783.39 1880.66 2783.52 1880.88 Q2783.64 1881.11 2783.64 1881.97 L2783.64 1904.99 L2788.71 1904.99 L2788.71 1906.55 L2783.64 1906.55 L2783.64 1910.95 Q2783.64 1912.4 2784.23 1912.87 Q2784.85 1913.34 2787.47 1913.34 L2788.53 1913.34 L2788.53 1914.9 Q2786.46 1914.75 2781.67 1914.75 Q2776.9 1914.75 2774.82 1914.9 L2774.82 1913.34 L2775.88 1913.34 Q2778.5 1913.34 2779.12 1912.9 Q2779.74 1912.43 2779.74 1910.95 L2779.74 1906.55 L2766.28 1906.55 M2767.71 1904.99 L2780.03 1904.99 L2780.03 1886.12 L2767.71 1904.99 Z" fill="#000000" fill-rule="evenodd" fill-opacity="1"></path><path clip-path="url(#clip690)" d="M3141.88 1898.92 Q3141.88 1890.96 3145.93 1886.1 Q3149.98 1881.2 3155.19 1881.2 Q3158.23 1881.2 3159.91 1882.76 Q3161.61 1884.29 3161.61 1886.66 Q3161.61 1887.97 3160.85 1888.54 Q3160.08 1889.11 3159.29 1889.11 Q3158.38 1889.11 3157.66 1888.49 Q3156.95 1887.87 3156.95 1886.76 Q3156.95 1884.49 3159.74 1884.49 Q3158.43 1882.46 3155.29 1882.46 Q3154.33 1882.46 3153.34 1882.76 Q3152.35 1883.03 3151.07 1883.97 Q3149.78 1884.91 3148.79 1886.39 Q3147.81 1887.87 3147.11 1890.67 Q3146.42 1893.46 3146.42 1897.09 L3146.42 1898.3 Q3148.5 1893.28 3152.75 1893.31 Q3157 1893.31 3159.93 1896.55 Q3162.87 1899.78 3162.87 1904.57 Q3162.87 1909.49 3159.81 1912.75 Q3156.75 1916.01 3152.45 1916.01 Q3150.52 1916.01 3148.77 1915.2 Q3147.04 1914.41 3145.41 1912.58 Q3143.8 1910.75 3142.84 1907.24 Q3141.88 1903.73 3141.88 1898.92 M3146.52 1903.46 Q3146.52 1908.43 3147.44 1910.8 Q3147.58 1911.19 3147.9 1911.74 Q3148.25 1912.28 3148.82 1913 Q3149.41 1913.69 3150.37 1914.16 Q3151.34 1914.6 3152.45 1914.6 Q3155.83 1914.6 3157.46 1911.32 Q3158.33 1909.49 3158.33 1904.52 Q3158.33 1899.46 3157.42 1897.61 Q3155.86 1894.47 3152.7 1894.47 Q3150.57 1894.47 3149.09 1895.93 Q3147.63 1897.39 3147.06 1899.34 Q3146.52 1901.29 3146.52 1903.46 Z" fill="#000000" fill-rule="evenodd" fill-opacity="1"></path><path clip-path="url(#clip690)" d="M3516.76 1907.27 Q3516.76 1901.61 3524.05 1897.95 Q3520.91 1895.83 3520.34 1895.21 Q3518.12 1892.74 3518.12 1889.65 Q3518.12 1886.12 3520.79 1883.67 Q3523.48 1881.2 3527.29 1881.2 Q3530.92 1881.2 3533.66 1883.3 Q3536.4 1885.4 3536.4 1888.74 Q3536.4 1893.43 3530.27 1896.59 Q3534.33 1899.11 3535.29 1900.18 Q3537.76 1902.92 3537.76 1906.4 Q3537.76 1910.45 3534.65 1913.24 Q3531.53 1916.01 3527.24 1916.01 Q3523.04 1916.01 3519.9 1913.57 Q3516.76 1911.12 3516.76 1907.27 M3519.28 1907.27 Q3519.28 1910.4 3521.63 1912.5 Q3524 1914.6 3527.29 1914.6 Q3530.47 1914.6 3532.84 1912.78 Q3535.24 1910.95 3535.24 1908.23 Q3535.24 1907.17 3534.87 1906.25 Q3534.52 1905.34 3533.81 1904.62 Q3533.12 1903.88 3532.67 1903.56 Q3532.25 1903.22 3531.44 1902.65 L3525.21 1898.72 Q3519.28 1902 3519.28 1907.27 M3520.34 1887.68 Q3520.34 1890.1 3522.89 1891.78 L3529.16 1895.83 Q3534.18 1892.89 3534.18 1888.74 Q3534.18 1886.05 3532.13 1884.27 Q3530.08 1882.46 3527.24 1882.46 Q3524.44 1882.46 3522.39 1883.95 Q3520.34 1885.4 3520.34 1887.68 Z" fill="#000000" fill-rule="evenodd" fill-opacity="1"></path><path clip-path="url(#clip690)" d="M3880.11 1886.02 L3880.11 1884.44 Q3886.19 1884.44 3889.33 1881.2 Q3890.19 1881.2 3890.34 1881.4 Q3890.49 1881.6 3890.49 1882.51 L3890.49 1910.9 Q3890.49 1912.4 3891.23 1912.87 Q3891.97 1913.34 3895.2 1913.34 L3896.81 1913.34 L3896.81 1914.9 Q3895.03 1914.75 3888.61 1914.75 Q3882.19 1914.75 3880.43 1914.9 L3880.43 1913.34 L3882.04 1913.34 Q3885.22 1913.34 3885.99 1912.9 Q3886.76 1912.43 3886.76 1910.9 L3886.76 1884.69 Q3884.11 1886.02 3880.11 1886.02 Z" fill="#000000" fill-rule="evenodd" fill-opacity="1"></path><path clip-path="url(#clip690)" d="M3902.89 1898.72 Q3902.89 1891.28 3904.76 1887.23 Q3907.38 1881.2 3913.56 1881.2 Q3914.87 1881.2 3916.23 1881.58 Q3917.61 1881.92 3919.34 1883.28 Q3921.09 1884.64 3922.16 1886.86 Q3924.18 1891.16 3924.18 1898.72 Q3924.18 1906.11 3922.3 1910.13 Q3919.56 1916.01 3913.51 1916.01 Q3911.24 1916.01 3908.92 1914.85 Q3906.62 1913.69 3905.16 1910.9 Q3902.89 1906.72 3902.89 1898.72 M3907.09 1898.1 Q3907.09 1905.73 3907.63 1908.77 Q3908.25 1912.06 3909.93 1913.49 Q3911.63 1914.9 3913.51 1914.9 Q3915.54 1914.9 3917.22 1913.39 Q3918.92 1911.86 3919.44 1908.58 Q3920.01 1905.34 3919.98 1898.1 Q3919.98 1891.06 3919.49 1888.24 Q3918.82 1884.96 3917.04 1883.65 Q3915.29 1882.32 3913.51 1882.32 Q3912.84 1882.32 3912.13 1882.51 Q3911.43 1882.71 3910.42 1883.28 Q3909.41 1883.85 3908.62 1885.26 Q3907.85 1886.66 3907.48 1888.79 Q3907.09 1891.53 3907.09 1898.1 Z" fill="#000000" fill-rule="evenodd" fill-opacity="1"></path><path clip-path="url(#clip690)" d="M3067.13 1972.43 Q3067.13 1973.33 3066.71 1973.56 Q3066.29 1973.75 3065.13 1973.75 L3058.95 1973.75 L3054.05 1993.21 Q3053.67 1994.91 3053.67 1996.36 Q3053.67 1997.97 3054.15 1998.68 Q3054.66 1999.39 3055.73 1999.39 Q3057.82 1999.39 3060.08 1997.49 Q3062.36 1995.59 3064.29 1990.95 Q3064.55 1990.34 3064.68 1990.21 Q3064.84 1990.05 3065.26 1990.05 Q3066.07 1990.05 3066.07 1990.69 Q3066.07 1990.92 3065.61 1991.95 Q3065.2 1992.98 3064.26 1994.49 Q3063.36 1996.01 3062.17 1997.42 Q3061.01 1998.84 3059.24 1999.87 Q3057.47 2000.87 3055.57 2000.87 Q3052.89 2000.87 3051.19 1999.16 Q3049.51 1997.46 3049.51 1994.78 Q3049.51 1993.91 3050.19 1991.14 Q3050.86 1988.34 3054.54 1973.75 L3048.71 1973.75 Q3047.9 1973.75 3047.58 1973.72 Q3047.29 1973.69 3047.06 1973.53 Q3046.87 1973.33 3046.87 1972.95 Q3046.87 1972.34 3047.13 1972.08 Q3047.39 1971.79 3047.71 1971.76 Q3048.06 1971.69 3048.87 1971.69 L3055.05 1971.69 L3057.63 1961.23 Q3057.89 1960.19 3058.53 1959.61 Q3059.21 1959 3059.59 1958.94 Q3059.98 1958.84 3060.27 1958.84 Q3061.14 1958.84 3061.65 1959.33 Q3062.17 1959.78 3062.17 1960.61 Q3062.17 1961.06 3059.46 1971.69 L3065.26 1971.69 Q3066 1971.69 3066.29 1971.72 Q3066.61 1971.76 3066.87 1971.92 Q3067.13 1972.08 3067.13 1972.43 Z" fill="#000000" fill-rule="evenodd" fill-opacity="1"></path><polyline clip-path="url(#clip694)" style="stroke:#000000; stroke-linecap:round; stroke-linejoin:round; stroke-width:2; stroke-opacity:0.1; fill:none" points="
  2164.55,1489.83 3952.76,1489.83 
  "></polyline>
<polyline clip-path="url(#clip694)" style="stroke:#000000; stroke-linecap:round; stroke-linejoin:round; stroke-width:2; stroke-opacity:0.1; fill:none" points="
  2164.55,1125.59 3952.76,1125.59 
  "></polyline>
<polyline clip-path="url(#clip694)" style="stroke:#000000; stroke-linecap:round; stroke-linejoin:round; stroke-width:2; stroke-opacity:0.1; fill:none" points="
  2164.55,761.354 3952.76,761.354 
  "></polyline>
<polyline clip-path="url(#clip694)" style="stroke:#000000; stroke-linecap:round; stroke-linejoin:round; stroke-width:2; stroke-opacity:0.1; fill:none" points="
  2164.55,397.117 3952.76,397.117 
  "></polyline>
<polyline clip-path="url(#clip690)" style="stroke:#000000; stroke-linecap:round; stroke-linejoin:round; stroke-width:4; stroke-opacity:1; fill:none" points="
  2164.55,1839.7 2164.55,47.2441 
  "></polyline>
<polyline clip-path="url(#clip690)" style="stroke:#000000; stroke-linecap:round; stroke-linejoin:round; stroke-width:4; stroke-opacity:1; fill:none" points="
  2164.55,1489.83 2183.45,1489.83 
  "></polyline>
<polyline clip-path="url(#clip690)" style="stroke:#000000; stroke-linecap:round; stroke-linejoin:round; stroke-width:4; stroke-opacity:1; fill:none" points="
  2164.55,1125.59 2183.45,1125.59 
  "></polyline>
<polyline clip-path="url(#clip690)" style="stroke:#000000; stroke-linecap:round; stroke-linejoin:round; stroke-width:4; stroke-opacity:1; fill:none" points="
  2164.55,761.354 2183.45,761.354 
  "></polyline>
<polyline clip-path="url(#clip690)" style="stroke:#000000; stroke-linecap:round; stroke-linejoin:round; stroke-width:4; stroke-opacity:1; fill:none" points="
  2164.55,397.117 2183.45,397.117 
  "></polyline>
<path clip-path="url(#clip690)" d="M2044.45 1490.93 Q2044.45 1483.49 2046.33 1479.44 Q2048.95 1473.41 2055.12 1473.41 Q2056.43 1473.41 2057.79 1473.78 Q2059.17 1474.13 2060.9 1475.49 Q2062.66 1476.84 2063.72 1479.07 Q2065.74 1483.37 2065.74 1490.93 Q2065.74 1498.31 2063.87 1502.34 Q2061.12 1508.22 2055.07 1508.22 Q2052.8 1508.22 2050.48 1507.06 Q2048.18 1505.9 2046.72 1503.1 Q2044.45 1498.93 2044.45 1490.93 M2048.65 1490.31 Q2048.65 1497.94 2049.19 1500.98 Q2049.81 1504.27 2051.49 1505.7 Q2053.19 1507.11 2055.07 1507.11 Q2057.1 1507.11 2058.78 1505.6 Q2060.48 1504.07 2061 1500.78 Q2061.57 1497.55 2061.54 1490.31 Q2061.54 1483.27 2061.05 1480.45 Q2060.38 1477.17 2058.6 1475.86 Q2056.85 1474.52 2055.07 1474.52 Q2054.41 1474.52 2053.69 1474.72 Q2053 1474.92 2051.98 1475.49 Q2050.97 1476.05 2050.18 1477.46 Q2049.41 1478.87 2049.04 1481 Q2048.65 1483.74 2048.65 1490.31 Z" fill="#000000" fill-rule="evenodd" fill-opacity="1"></path><path clip-path="url(#clip690)" d="M2072.83 1506.29 Q2072.07 1505.48 2072.07 1504.41 Q2072.07 1503.35 2072.83 1502.59 Q2073.6 1501.8 2074.76 1501.8 Q2075.87 1501.8 2076.61 1502.54 Q2077.38 1503.25 2077.38 1504.44 Q2077.38 1505.6 2076.56 1506.37 Q2075.77 1507.11 2074.76 1507.11 Q2073.6 1507.11 2072.83 1506.29 Z" fill="#000000" fill-rule="evenodd" fill-opacity="1"></path><path clip-path="url(#clip690)" d="M2084.35 1507.11 Q2084.35 1506.19 2084.42 1505.92 Q2084.52 1505.65 2084.91 1505.23 L2094.62 1494.41 Q2099.93 1488.43 2099.93 1483.22 Q2099.93 1479.83 2098.15 1477.41 Q2096.4 1474.99 2093.16 1474.99 Q2090.94 1474.99 2089.06 1476.35 Q2087.19 1477.71 2086.32 1480.13 Q2086.47 1480.08 2086.99 1480.08 Q2088.25 1480.08 2088.94 1480.87 Q2089.66 1481.66 2089.66 1482.72 Q2089.66 1484.08 2088.77 1484.75 Q2087.9 1485.39 2087.04 1485.39 Q2086.69 1485.39 2086.22 1485.32 Q2085.78 1485.24 2085.06 1484.55 Q2084.35 1483.84 2084.35 1482.58 Q2084.35 1479.04 2087.01 1476.23 Q2089.71 1473.41 2093.81 1473.41 Q2098.45 1473.41 2101.49 1476.18 Q2104.55 1478.92 2104.55 1483.22 Q2104.55 1484.73 2104.08 1486.11 Q2103.64 1487.47 2103.02 1488.53 Q2102.43 1489.59 2100.8 1491.3 Q2099.17 1493 2097.86 1494.21 Q2096.55 1495.42 2093.61 1497.99 L2088.25 1503.2 L2097.36 1503.2 Q2101.81 1503.2 2102.16 1502.81 Q2102.65 1502.09 2103.27 1498.31 L2104.55 1498.31 L2103.12 1507.11 L2084.35 1507.11 Z" fill="#000000" fill-rule="evenodd" fill-opacity="1"></path><path clip-path="url(#clip690)" d="M2043.34 1126.69 Q2043.34 1119.25 2045.22 1115.2 Q2047.83 1109.17 2054.01 1109.17 Q2055.32 1109.17 2056.68 1109.55 Q2058.06 1109.89 2059.79 1111.25 Q2061.54 1112.61 2062.61 1114.83 Q2064.63 1119.13 2064.63 1126.69 Q2064.63 1134.08 2062.75 1138.1 Q2060.01 1143.98 2053.96 1143.98 Q2051.69 1143.98 2049.37 1142.82 Q2047.07 1141.66 2045.61 1138.87 Q2043.34 1134.69 2043.34 1126.69 M2047.54 1126.07 Q2047.54 1133.71 2048.08 1136.74 Q2048.7 1140.03 2050.38 1141.46 Q2052.08 1142.87 2053.96 1142.87 Q2055.99 1142.87 2057.67 1141.36 Q2059.37 1139.83 2059.89 1136.55 Q2060.46 1133.31 2060.43 1126.07 Q2060.43 1119.03 2059.94 1116.22 Q2059.27 1112.93 2057.49 1111.62 Q2055.74 1110.29 2053.96 1110.29 Q2053.29 1110.29 2052.58 1110.48 Q2051.89 1110.68 2050.87 1111.25 Q2049.86 1111.82 2049.07 1113.23 Q2048.3 1114.63 2047.93 1116.76 Q2047.54 1119.5 2047.54 1126.07 Z" fill="#000000" fill-rule="evenodd" fill-opacity="1"></path><path clip-path="url(#clip690)" d="M2071.72 1142.05 Q2070.96 1141.24 2070.96 1140.18 Q2070.96 1139.12 2071.72 1138.35 Q2072.49 1137.56 2073.65 1137.56 Q2074.76 1137.56 2075.5 1138.3 Q2076.27 1139.02 2076.27 1140.2 Q2076.27 1141.36 2075.45 1142.13 Q2074.66 1142.87 2073.65 1142.87 Q2072.49 1142.87 2071.72 1142.05 Z" fill="#000000" fill-rule="evenodd" fill-opacity="1"></path><path clip-path="url(#clip690)" d="M2082.12 1134.52 L2082.12 1132.96 L2097.66 1109.22 Q2098.06 1108.61 2098.67 1108.63 Q2099.24 1108.63 2099.37 1108.85 Q2099.49 1109.08 2099.49 1109.94 L2099.49 1132.96 L2104.55 1132.96 L2104.55 1134.52 L2099.49 1134.52 L2099.49 1138.92 Q2099.49 1140.38 2100.08 1140.84 Q2100.7 1141.31 2103.32 1141.31 L2104.38 1141.31 L2104.38 1142.87 Q2102.3 1142.72 2097.51 1142.72 Q2092.74 1142.72 2090.67 1142.87 L2090.67 1141.31 L2091.73 1141.31 Q2094.35 1141.31 2094.97 1140.87 Q2095.59 1140.4 2095.59 1138.92 L2095.59 1134.52 L2082.12 1134.52 M2083.56 1132.96 L2095.88 1132.96 L2095.88 1114.09 L2083.56 1132.96 Z" fill="#000000" fill-rule="evenodd" fill-opacity="1"></path><path clip-path="url(#clip690)" d="M2044.05 762.453 Q2044.05 755.017 2045.93 750.966 Q2048.55 744.938 2054.73 744.938 Q2056.04 744.938 2057.39 745.309 Q2058.78 745.655 2060.51 747.013 Q2062.26 748.372 2063.32 750.595 Q2065.35 754.894 2065.35 762.453 Q2065.35 769.839 2063.47 773.866 Q2060.73 779.745 2054.68 779.745 Q2052.4 779.745 2050.08 778.584 Q2047.78 777.423 2046.33 774.632 Q2044.05 770.457 2044.05 762.453 M2048.25 761.836 Q2048.25 769.469 2048.8 772.507 Q2049.41 775.793 2051.09 777.226 Q2052.8 778.634 2054.68 778.634 Q2056.7 778.634 2058.38 777.127 Q2060.09 775.595 2060.61 772.31 Q2061.17 769.074 2061.15 761.836 Q2061.15 754.795 2060.66 751.979 Q2059.99 748.693 2058.21 747.384 Q2056.46 746.05 2054.68 746.05 Q2054.01 746.05 2053.29 746.248 Q2052.6 746.445 2051.59 747.013 Q2050.58 747.582 2049.79 748.99 Q2049.02 750.398 2048.65 752.522 Q2048.25 755.264 2048.25 761.836 Z" fill="#000000" fill-rule="evenodd" fill-opacity="1"></path><path clip-path="url(#clip690)" d="M2072.44 777.819 Q2071.67 777.003 2071.67 775.941 Q2071.67 774.879 2072.44 774.113 Q2073.2 773.323 2074.37 773.323 Q2075.48 773.323 2076.22 774.064 Q2076.98 774.78 2076.98 775.966 Q2076.98 777.127 2076.17 777.893 Q2075.38 778.634 2074.37 778.634 Q2073.2 778.634 2072.44 777.819 Z" fill="#000000" fill-rule="evenodd" fill-opacity="1"></path><path clip-path="url(#clip690)" d="M2083.56 762.651 Q2083.56 754.696 2087.61 749.83 Q2091.66 744.938 2096.87 744.938 Q2099.91 744.938 2101.59 746.495 Q2103.29 748.026 2103.29 750.398 Q2103.29 751.707 2102.53 752.275 Q2101.76 752.843 2100.97 752.843 Q2100.06 752.843 2099.34 752.226 Q2098.62 751.608 2098.62 750.497 Q2098.62 748.224 2101.42 748.224 Q2100.11 746.198 2096.97 746.198 Q2096.01 746.198 2095.02 746.495 Q2094.03 746.766 2092.74 747.705 Q2091.46 748.644 2090.47 750.126 Q2089.48 751.608 2088.79 754.4 Q2088.1 757.191 2088.1 760.823 L2088.1 762.033 Q2090.18 757.018 2094.42 757.043 Q2098.67 757.043 2101.61 760.279 Q2104.55 763.515 2104.55 768.308 Q2104.55 773.224 2101.49 776.485 Q2098.43 779.745 2094.13 779.745 Q2092.2 779.745 2090.45 778.93 Q2088.72 778.14 2087.09 776.312 Q2085.48 774.484 2084.52 770.976 Q2083.56 767.468 2083.56 762.651 M2088.2 767.196 Q2088.2 772.162 2089.11 774.533 Q2089.26 774.928 2089.58 775.472 Q2089.93 776.015 2090.5 776.732 Q2091.09 777.423 2092.05 777.893 Q2093.02 778.337 2094.13 778.337 Q2097.51 778.337 2099.14 775.052 Q2100.01 773.224 2100.01 768.258 Q2100.01 763.194 2099.09 761.341 Q2097.54 758.204 2094.38 758.204 Q2092.25 758.204 2090.77 759.662 Q2089.31 761.119 2088.74 763.071 Q2088.2 765.022 2088.2 767.196 Z" fill="#000000" fill-rule="evenodd" fill-opacity="1"></path><path clip-path="url(#clip690)" d="M2044.05 398.217 Q2044.05 390.781 2045.93 386.73 Q2048.55 380.702 2054.73 380.702 Q2056.04 380.702 2057.39 381.073 Q2058.78 381.418 2060.51 382.777 Q2062.26 384.136 2063.32 386.359 Q2065.35 390.658 2065.35 398.217 Q2065.35 405.603 2063.47 409.63 Q2060.73 415.509 2054.68 415.509 Q2052.4 415.509 2050.08 414.348 Q2047.78 413.187 2046.33 410.396 Q2044.05 406.221 2044.05 398.217 M2048.25 397.599 Q2048.25 405.233 2048.8 408.271 Q2049.41 411.557 2051.09 412.989 Q2052.8 414.397 2054.68 414.397 Q2056.7 414.397 2058.38 412.891 Q2060.09 411.359 2060.61 408.073 Q2061.17 404.837 2061.15 397.599 Q2061.15 390.559 2060.66 387.743 Q2059.99 384.457 2058.21 383.148 Q2056.46 381.814 2054.68 381.814 Q2054.01 381.814 2053.29 382.011 Q2052.6 382.209 2051.59 382.777 Q2050.58 383.345 2049.79 384.753 Q2049.02 386.162 2048.65 388.286 Q2048.25 391.028 2048.25 397.599 Z" fill="#000000" fill-rule="evenodd" fill-opacity="1"></path><path clip-path="url(#clip690)" d="M2072.44 413.582 Q2071.67 412.767 2071.67 411.705 Q2071.67 410.643 2072.44 409.877 Q2073.2 409.086 2074.37 409.086 Q2075.48 409.086 2076.22 409.827 Q2076.98 410.544 2076.98 411.729 Q2076.98 412.891 2076.17 413.656 Q2075.38 414.397 2074.37 414.397 Q2073.2 414.397 2072.44 413.582 Z" fill="#000000" fill-rule="evenodd" fill-opacity="1"></path><path clip-path="url(#clip690)" d="M2083.56 406.764 Q2083.56 401.107 2090.84 397.451 Q2087.71 395.326 2087.14 394.709 Q2084.91 392.239 2084.91 389.151 Q2084.91 385.618 2087.58 383.172 Q2090.27 380.702 2094.08 380.702 Q2097.71 380.702 2100.45 382.802 Q2103.19 384.902 2103.19 388.237 Q2103.19 392.93 2097.07 396.092 Q2101.12 398.612 2102.08 399.674 Q2104.55 402.416 2104.55 405.9 Q2104.55 409.951 2101.44 412.742 Q2098.33 415.509 2094.03 415.509 Q2089.83 415.509 2086.69 413.063 Q2083.56 410.618 2083.56 406.764 M2086.07 406.764 Q2086.07 409.901 2088.42 412.001 Q2090.79 414.101 2094.08 414.101 Q2097.27 414.101 2099.64 412.273 Q2102.03 410.445 2102.03 407.728 Q2102.03 406.665 2101.66 405.751 Q2101.32 404.837 2100.6 404.121 Q2099.91 403.38 2099.46 403.059 Q2099.04 402.713 2098.23 402.145 L2092 398.217 Q2086.07 401.502 2086.07 406.764 M2087.14 387.174 Q2087.14 389.595 2089.68 391.275 L2095.96 395.326 Q2100.97 392.387 2100.97 388.237 Q2100.97 385.544 2098.92 383.765 Q2096.87 381.962 2094.03 381.962 Q2091.24 381.962 2089.19 383.444 Q2087.14 384.902 2087.14 387.174 Z" fill="#000000" fill-rule="evenodd" fill-opacity="1"></path><polyline clip-path="url(#clip694)" style="stroke:#009af9; stroke-linecap:round; stroke-linejoin:round; stroke-width:8; stroke-opacity:1; fill:none" points="
  2215.16,862.362 2402.61,1260.12 2590.05,1723.64 2777.49,1612.36 2964.93,1080.06 3152.38,862.362 3339.82,1260.12 3527.26,1723.64 3714.7,1612.36 3902.15,1080.06 
  
  "></polyline>
<polyline clip-path="url(#clip694)" style="stroke:#009af9; stroke-linecap:round; stroke-linejoin:round; stroke-width:8; stroke-opacity:1; fill:none" stroke-dasharray="32, 20" points="
  2215.16,916.556 2402.61,1017.95 2590.05,1763.96 2777.49,1777.97 2964.93,1005.36 3152.38,731.773 3339.82,1094.65 3527.26,1788.97 3714.7,1780.12 3902.15,1048.32 
  
  "></polyline>
<polyline clip-path="url(#clip694)" style="stroke:#e26f46; stroke-linecap:round; stroke-linejoin:round; stroke-width:8; stroke-opacity:1; fill:none" points="
  2215.16,1024.58 2402.61,626.827 2590.05,163.303 2777.49,274.584 2964.93,806.883 3152.38,1024.58 3339.82,626.827 3527.26,163.303 3714.7,274.584 3902.15,806.883 
  
  "></polyline>
<polyline clip-path="url(#clip694)" style="stroke:#e26f46; stroke-linecap:round; stroke-linejoin:round; stroke-width:8; stroke-opacity:1; fill:none" stroke-dasharray="32, 20" points="
  2215.16,970.388 2402.61,868.989 2590.05,122.98 2777.49,108.972 2964.93,881.58 3152.38,1155.17 3339.82,792.297 3527.26,97.974 3714.7,106.826 3902.15,838.622 
  
  "></polyline>
<path clip-path="url(#clip690)" d="
M3586.11 438.647 L3893.15 438.647 L3893.15 106.993 L3586.11 106.993  Z
  " fill="#ffffff" fill-rule="evenodd" fill-opacity="1"></path>
<polyline clip-path="url(#clip690)" style="stroke:#000000; stroke-linecap:round; stroke-linejoin:round; stroke-width:4; stroke-opacity:1; fill:none" points="
  3586.11,438.647 3893.15,438.647 3893.15,106.993 3586.11,106.993 3586.11,438.647 
  "></polyline>
<polyline clip-path="url(#clip690)" style="stroke:#009af9; stroke-linecap:round; stroke-linejoin:round; stroke-width:4; stroke-opacity:1; fill:none" points="
  3605.98,173.324 3725.2,173.324 
  "></polyline>
<path clip-path="url(#clip690)" d="M3778.23 157.734 Q3778.23 161.107 3777.01 164.456 Q3775.8 167.782 3773.76 170.476 Q3771.74 173.17 3769.12 175.254 Q3766.52 177.315 3763.73 178.369 Q3764.08 181.18 3764.79 182.234 Q3765.51 183.311 3767.13 183.311 Q3768.07 183.311 3769.07 182.89 Q3770.1 182.468 3771.16 181.367 Q3772.21 180.29 3772.75 178.697 Q3772.91 178.182 3773.34 178.182 Q3773.5 178.182 3773.66 178.322 Q3773.85 178.44 3773.85 178.65 Q3773.85 178.838 3773.64 179.517 Q3773.45 180.22 3773.05 181.297 Q3772.66 182.375 3771.98 183.499 Q3771.3 184.647 3770.45 185.654 Q3769.64 186.661 3768.42 187.293 Q3767.2 187.949 3765.84 187.949 Q3764.72 187.949 3763.9 187.527 Q3763.1 187.106 3762.7 186.567 Q3762.33 186.028 3762.12 185.162 Q3761.91 184.319 3761.88 183.85 Q3761.86 183.382 3761.86 182.679 Q3761.86 181.953 3762.05 178.978 Q3759.52 179.704 3757.36 179.704 Q3752.04 179.704 3748.55 176.214 Q3745.06 172.725 3745.06 166.892 Q3745.06 162.817 3746.89 158.765 Q3748.72 154.689 3751.62 151.668 Q3754.53 148.623 3758.35 146.726 Q3762.19 144.828 3765.98 144.828 Q3771.37 144.828 3774.79 148.412 Q3778.23 151.972 3778.23 157.734 M3773.99 156.212 Q3773.99 151.48 3771.67 148.763 Q3769.38 146.023 3765.7 146.023 Q3762.89 146.023 3759.77 147.826 Q3756.68 149.63 3754.18 153.12 Q3751.72 156.61 3750.5 160.99 Q3749.3 165.37 3749.3 168.438 Q3749.3 171.834 3750.64 174.387 Q3751.97 176.917 3754.67 177.971 Q3754.39 177.409 3754.39 176.449 Q3754.39 174.575 3755.89 173.076 Q3757.39 171.553 3759.28 171.553 Q3760.13 171.553 3760.78 171.811 Q3761.46 172.045 3761.88 172.537 Q3762.33 173.029 3762.61 173.497 Q3762.91 173.942 3763.08 174.669 Q3763.26 175.371 3763.33 175.746 Q3763.4 176.097 3763.5 176.73 Q3765.79 175.442 3767.67 173.333 Q3769.54 171.202 3770.69 168.953 Q3771.84 166.682 3772.61 164.222 Q3773.38 161.739 3773.69 159.772 Q3773.99 157.781 3773.99 156.212 M3762.19 176.683 Q3762.19 174.505 3761.48 173.568 Q3760.8 172.607 3759.28 172.607 Q3757.78 172.607 3756.61 173.802 Q3755.44 174.996 3755.44 176.449 Q3755.44 177.175 3755.65 177.643 Q3755.89 178.088 3756.31 178.276 Q3756.73 178.44 3756.99 178.486 Q3757.24 178.51 3757.64 178.51 Q3759.68 178.51 3761.67 177.643 Q3762.02 177.503 3762.09 177.362 Q3762.19 177.222 3762.19 176.683 Z" fill="#000000" fill-rule="evenodd" fill-opacity="1"></path><path clip-path="url(#clip690)" d="M3783.02 201.158 Q3783.02 200.552 3783.07 200.371 Q3783.14 200.191 3783.4 199.912 L3789.84 192.731 Q3793.37 188.763 3793.37 185.304 Q3793.37 183.057 3792.19 181.451 Q3791.02 179.844 3788.88 179.844 Q3787.4 179.844 3786.16 180.746 Q3784.91 181.647 3784.34 183.254 Q3784.43 183.221 3784.78 183.221 Q3785.61 183.221 3786.07 183.746 Q3786.55 184.271 3786.55 184.976 Q3786.55 185.877 3785.96 186.32 Q3785.38 186.746 3784.81 186.746 Q3784.58 186.746 3784.27 186.697 Q3783.97 186.648 3783.5 186.189 Q3783.02 185.713 3783.02 184.877 Q3783.02 182.533 3784.79 180.664 Q3786.58 178.794 3789.3 178.794 Q3792.39 178.794 3794.4 180.631 Q3796.44 182.451 3796.44 185.304 Q3796.44 186.304 3796.12 187.222 Q3795.83 188.124 3795.42 188.829 Q3795.03 189.534 3793.94 190.665 Q3792.86 191.796 3791.99 192.6 Q3791.12 193.403 3789.17 195.108 L3785.61 198.568 L3791.66 198.568 Q3794.62 198.568 3794.84 198.305 Q3795.17 197.83 3795.58 195.321 L3796.44 195.321 L3795.48 201.158 L3783.02 201.158 Z" fill="#000000" fill-rule="evenodd" fill-opacity="1"></path><path clip-path="url(#clip690)" d="M3838.38 192.321 Q3838.68 192.436 3838.68 192.764 Q3838.68 193.092 3838.38 193.206 Q3835.92 194.026 3833.77 196.699 Q3832.25 198.682 3831.82 200.961 Q3831.77 201.191 3831.59 201.339 Q3831.41 201.486 3831.17 201.486 Q3830.89 201.486 3830.69 201.289 Q3830.49 201.109 3830.49 200.83 Q3830.49 200.814 3830.51 200.765 Q3830.53 200.699 3830.53 200.683 Q3831.02 198.027 3832.74 195.846 Q3833.82 194.469 3835.36 193.436 L3809.64 193.436 Q3809.36 193.436 3809.16 193.239 Q3808.97 193.042 3808.97 192.764 Q3808.97 192.485 3809.16 192.288 Q3809.36 192.091 3809.64 192.091 L3835.36 192.091 Q3833.82 191.058 3832.74 189.681 Q3831.02 187.501 3830.53 184.844 Q3830.53 184.828 3830.51 184.779 Q3830.49 184.713 3830.49 184.697 Q3830.49 184.418 3830.69 184.238 Q3830.89 184.041 3831.17 184.041 Q3831.41 184.041 3831.59 184.189 Q3831.77 184.336 3831.82 184.566 Q3832.25 186.845 3833.77 188.829 Q3835.92 191.501 3838.38 192.321 Z" fill="#000000" fill-rule="evenodd" fill-opacity="1"></path><path clip-path="url(#clip690)" d="M3851.54 181.992 L3851.54 180.942 Q3855.57 180.942 3857.65 178.794 Q3858.22 178.794 3858.32 178.926 Q3858.42 179.057 3858.42 179.663 L3858.42 198.502 Q3858.42 199.502 3858.91 199.814 Q3859.41 200.125 3861.55 200.125 L3862.62 200.125 L3862.62 201.158 Q3861.44 201.06 3857.18 201.06 Q3852.91 201.06 3851.75 201.158 L3851.75 200.125 L3852.81 200.125 Q3854.93 200.125 3855.44 199.83 Q3855.95 199.519 3855.95 198.502 L3855.95 181.106 Q3854.19 181.992 3851.54 181.992 Z" fill="#000000" fill-rule="evenodd" fill-opacity="1"></path><polyline clip-path="url(#clip690)" style="stroke:#009af9; stroke-linecap:round; stroke-linejoin:round; stroke-width:4; stroke-opacity:1; fill:none" stroke-dasharray="16, 10" points="
  3605.98,239.654 3725.2,239.654 
  "></polyline>
<path clip-path="url(#clip690)" d="M3771.65 210.518 L3771.24 211.19 Q3768.7 210.092 3765.53 208.337 Q3762.37 210.092 3759.83 211.19 L3759.43 210.518 Q3762.21 208.108 3765.53 206.255 Q3768.9 208.124 3771.65 210.518 Z" fill="#000000" fill-rule="evenodd" fill-opacity="1"></path><path clip-path="url(#clip690)" d="M3778.23 229.068 Q3778.23 232.441 3777.01 235.79 Q3775.8 239.116 3773.76 241.81 Q3771.74 244.503 3769.12 246.588 Q3766.52 248.649 3763.73 249.703 Q3764.08 252.514 3764.79 253.568 Q3765.51 254.645 3767.13 254.645 Q3768.07 254.645 3769.07 254.223 Q3770.1 253.802 3771.16 252.701 Q3772.21 251.624 3772.75 250.031 Q3772.91 249.516 3773.34 249.516 Q3773.5 249.516 3773.66 249.656 Q3773.85 249.773 3773.85 249.984 Q3773.85 250.171 3773.64 250.851 Q3773.45 251.553 3773.05 252.631 Q3772.66 253.708 3771.98 254.832 Q3771.3 255.98 3770.45 256.987 Q3769.64 257.995 3768.42 258.627 Q3767.2 259.283 3765.84 259.283 Q3764.72 259.283 3763.9 258.861 Q3763.1 258.44 3762.7 257.901 Q3762.33 257.362 3762.12 256.495 Q3761.91 255.652 3761.88 255.184 Q3761.86 254.715 3761.86 254.013 Q3761.86 253.287 3762.05 250.312 Q3759.52 251.038 3757.36 251.038 Q3752.04 251.038 3748.55 247.548 Q3745.06 244.058 3745.06 238.226 Q3745.06 234.15 3746.89 230.098 Q3748.72 226.023 3751.62 223.001 Q3754.53 219.956 3758.35 218.059 Q3762.19 216.162 3765.98 216.162 Q3771.37 216.162 3774.79 219.746 Q3778.23 223.306 3778.23 229.068 M3773.99 227.545 Q3773.99 222.814 3771.67 220.097 Q3769.38 217.357 3765.7 217.357 Q3762.89 217.357 3759.77 219.16 Q3756.68 220.964 3754.18 224.454 Q3751.72 227.944 3750.5 232.324 Q3749.3 236.703 3749.3 239.772 Q3749.3 243.168 3750.64 245.721 Q3751.97 248.251 3754.67 249.305 Q3754.39 248.743 3754.39 247.782 Q3754.39 245.909 3755.89 244.409 Q3757.39 242.887 3759.28 242.887 Q3760.13 242.887 3760.78 243.145 Q3761.46 243.379 3761.88 243.871 Q3762.33 244.363 3762.61 244.831 Q3762.91 245.276 3763.08 246.002 Q3763.26 246.705 3763.33 247.08 Q3763.4 247.431 3763.5 248.063 Q3765.79 246.775 3767.67 244.667 Q3769.54 242.536 3770.69 240.287 Q3771.84 238.015 3772.61 235.556 Q3773.38 233.073 3773.69 231.106 Q3773.99 229.115 3773.99 227.545 M3762.19 248.017 Q3762.19 245.838 3761.48 244.901 Q3760.8 243.941 3759.28 243.941 Q3757.78 243.941 3756.61 245.136 Q3755.44 246.33 3755.44 247.782 Q3755.44 248.508 3755.65 248.977 Q3755.89 249.422 3756.31 249.609 Q3756.73 249.773 3756.99 249.82 Q3757.24 249.843 3757.64 249.843 Q3759.68 249.843 3761.67 248.977 Q3762.02 248.836 3762.09 248.696 Q3762.19 248.555 3762.19 248.017 Z" fill="#000000" fill-rule="evenodd" fill-opacity="1"></path><path clip-path="url(#clip690)" d="M3783.02 272.492 Q3783.02 271.885 3783.07 271.705 Q3783.14 271.524 3783.4 271.246 L3789.84 264.064 Q3793.37 260.097 3793.37 256.637 Q3793.37 254.391 3792.19 252.784 Q3791.02 251.177 3788.88 251.177 Q3787.4 251.177 3786.16 252.079 Q3784.91 252.981 3784.34 254.588 Q3784.43 254.555 3784.78 254.555 Q3785.61 254.555 3786.07 255.08 Q3786.55 255.604 3786.55 256.309 Q3786.55 257.211 3785.96 257.654 Q3785.38 258.08 3784.81 258.08 Q3784.58 258.08 3784.27 258.031 Q3783.97 257.982 3783.5 257.523 Q3783.02 257.047 3783.02 256.211 Q3783.02 253.866 3784.79 251.997 Q3786.58 250.128 3789.3 250.128 Q3792.39 250.128 3794.4 251.964 Q3796.44 253.784 3796.44 256.637 Q3796.44 257.637 3796.12 258.555 Q3795.83 259.457 3795.42 260.162 Q3795.03 260.867 3793.94 261.999 Q3792.86 263.13 3791.99 263.933 Q3791.12 264.737 3789.17 266.442 L3785.61 269.901 L3791.66 269.901 Q3794.62 269.901 3794.84 269.639 Q3795.17 269.164 3795.58 266.655 L3796.44 266.655 L3795.48 272.492 L3783.02 272.492 Z" fill="#000000" fill-rule="evenodd" fill-opacity="1"></path><path clip-path="url(#clip690)" d="M3838.38 263.655 Q3838.68 263.769 3838.68 264.097 Q3838.68 264.425 3838.38 264.54 Q3835.92 265.36 3833.77 268.032 Q3832.25 270.016 3831.82 272.295 Q3831.77 272.525 3831.59 272.672 Q3831.41 272.82 3831.17 272.82 Q3830.89 272.82 3830.69 272.623 Q3830.49 272.443 3830.49 272.164 Q3830.49 272.148 3830.51 272.098 Q3830.53 272.033 3830.53 272.016 Q3831.02 269.36 3832.74 267.18 Q3833.82 265.802 3835.36 264.769 L3809.64 264.769 Q3809.36 264.769 3809.16 264.573 Q3808.97 264.376 3808.97 264.097 Q3808.97 263.819 3809.16 263.622 Q3809.36 263.425 3809.64 263.425 L3835.36 263.425 Q3833.82 262.392 3832.74 261.015 Q3831.02 258.834 3830.53 256.178 Q3830.53 256.162 3830.51 256.113 Q3830.49 256.047 3830.49 256.031 Q3830.49 255.752 3830.69 255.571 Q3830.89 255.375 3831.17 255.375 Q3831.41 255.375 3831.59 255.522 Q3831.77 255.67 3831.82 255.899 Q3832.25 258.178 3833.77 260.162 Q3835.92 262.835 3838.38 263.655 Z" fill="#000000" fill-rule="evenodd" fill-opacity="1"></path><path clip-path="url(#clip690)" d="M3851.54 253.325 L3851.54 252.276 Q3855.57 252.276 3857.65 250.128 Q3858.22 250.128 3858.32 250.259 Q3858.42 250.39 3858.42 250.997 L3858.42 269.836 Q3858.42 270.836 3858.91 271.147 Q3859.41 271.459 3861.55 271.459 L3862.62 271.459 L3862.62 272.492 Q3861.44 272.393 3857.18 272.393 Q3852.91 272.393 3851.75 272.492 L3851.75 271.459 L3852.81 271.459 Q3854.93 271.459 3855.44 271.164 Q3855.95 270.852 3855.95 269.836 L3855.95 252.44 Q3854.19 253.325 3851.54 253.325 Z" fill="#000000" fill-rule="evenodd" fill-opacity="1"></path><polyline clip-path="url(#clip690)" style="stroke:#e26f46; stroke-linecap:round; stroke-linejoin:round; stroke-width:4; stroke-opacity:1; fill:none" points="
  3605.98,305.985 3725.2,305.985 
  "></polyline>
<path clip-path="url(#clip690)" d="M3778.23 290.396 Q3778.23 293.769 3777.01 297.118 Q3775.8 300.444 3773.76 303.138 Q3771.74 305.831 3769.12 307.916 Q3766.52 309.977 3763.73 311.031 Q3764.08 313.842 3764.79 314.896 Q3765.51 315.973 3767.13 315.973 Q3768.07 315.973 3769.07 315.552 Q3770.1 315.13 3771.16 314.029 Q3772.21 312.952 3772.75 311.359 Q3772.91 310.844 3773.34 310.844 Q3773.5 310.844 3773.66 310.984 Q3773.85 311.101 3773.85 311.312 Q3773.85 311.5 3773.64 312.179 Q3773.45 312.882 3773.05 313.959 Q3772.66 315.036 3771.98 316.161 Q3771.3 317.308 3770.45 318.316 Q3769.64 319.323 3768.42 319.955 Q3767.2 320.611 3765.84 320.611 Q3764.72 320.611 3763.9 320.189 Q3763.1 319.768 3762.7 319.229 Q3762.33 318.69 3762.12 317.824 Q3761.91 316.98 3761.88 316.512 Q3761.86 316.044 3761.86 315.341 Q3761.86 314.615 3762.05 311.64 Q3759.52 312.366 3757.36 312.366 Q3752.04 312.366 3748.55 308.876 Q3745.06 305.386 3745.06 299.554 Q3745.06 295.479 3746.89 291.427 Q3748.72 287.351 3751.62 284.33 Q3754.53 281.285 3758.35 279.387 Q3762.19 277.49 3765.98 277.49 Q3771.37 277.49 3774.79 281.074 Q3778.23 284.634 3778.23 290.396 M3773.99 288.874 Q3773.99 284.142 3771.67 281.425 Q3769.38 278.685 3765.7 278.685 Q3762.89 278.685 3759.77 280.488 Q3756.68 282.292 3754.18 285.782 Q3751.72 289.272 3750.5 293.652 Q3749.3 298.032 3749.3 301.1 Q3749.3 304.496 3750.64 307.049 Q3751.97 309.579 3754.67 310.633 Q3754.39 310.071 3754.39 309.111 Q3754.39 307.237 3755.89 305.738 Q3757.39 304.215 3759.28 304.215 Q3760.13 304.215 3760.78 304.473 Q3761.46 304.707 3761.88 305.199 Q3762.33 305.691 3762.61 306.159 Q3762.91 306.604 3763.08 307.33 Q3763.26 308.033 3763.33 308.408 Q3763.4 308.759 3763.5 309.392 Q3765.79 308.103 3767.67 305.995 Q3769.54 303.864 3770.69 301.615 Q3771.84 299.343 3772.61 296.884 Q3773.38 294.401 3773.69 292.434 Q3773.99 290.443 3773.99 288.874 M3762.19 309.345 Q3762.19 307.166 3761.48 306.23 Q3760.8 305.269 3759.28 305.269 Q3757.78 305.269 3756.61 306.464 Q3755.44 307.658 3755.44 309.111 Q3755.44 309.837 3755.65 310.305 Q3755.89 310.75 3756.31 310.937 Q3756.73 311.101 3756.99 311.148 Q3757.24 311.172 3757.64 311.172 Q3759.68 311.172 3761.67 310.305 Q3762.02 310.165 3762.09 310.024 Q3762.19 309.883 3762.19 309.345 Z" fill="#000000" fill-rule="evenodd" fill-opacity="1"></path><path clip-path="url(#clip690)" d="M3783.02 333.82 Q3783.02 333.213 3783.07 333.033 Q3783.14 332.853 3783.4 332.574 L3789.84 325.393 Q3793.37 321.425 3793.37 317.965 Q3793.37 315.719 3792.19 314.112 Q3791.02 312.506 3788.88 312.506 Q3787.4 312.506 3786.16 313.407 Q3784.91 314.309 3784.34 315.916 Q3784.43 315.883 3784.78 315.883 Q3785.61 315.883 3786.07 316.408 Q3786.55 316.932 3786.55 317.638 Q3786.55 318.539 3785.96 318.982 Q3785.38 319.408 3784.81 319.408 Q3784.58 319.408 3784.27 319.359 Q3783.97 319.31 3783.5 318.851 Q3783.02 318.375 3783.02 317.539 Q3783.02 315.195 3784.79 313.325 Q3786.58 311.456 3789.3 311.456 Q3792.39 311.456 3794.4 313.293 Q3796.44 315.113 3796.44 317.965 Q3796.44 318.966 3796.12 319.884 Q3795.83 320.785 3795.42 321.49 Q3795.03 322.196 3793.94 323.327 Q3792.86 324.458 3791.99 325.262 Q3791.12 326.065 3789.17 327.77 L3785.61 331.23 L3791.66 331.23 Q3794.62 331.23 3794.84 330.967 Q3795.17 330.492 3795.58 327.983 L3796.44 327.983 L3795.48 333.82 L3783.02 333.82 Z" fill="#000000" fill-rule="evenodd" fill-opacity="1"></path><path clip-path="url(#clip690)" d="M3838.38 324.983 Q3838.68 325.098 3838.68 325.425 Q3838.68 325.753 3838.38 325.868 Q3835.92 326.688 3833.77 329.36 Q3832.25 331.344 3831.82 333.623 Q3831.77 333.853 3831.59 334 Q3831.41 334.148 3831.17 334.148 Q3830.89 334.148 3830.69 333.951 Q3830.49 333.771 3830.49 333.492 Q3830.49 333.476 3830.51 333.427 Q3830.53 333.361 3830.53 333.345 Q3831.02 330.688 3832.74 328.508 Q3833.82 327.131 3835.36 326.098 L3809.64 326.098 Q3809.36 326.098 3809.16 325.901 Q3808.97 325.704 3808.97 325.425 Q3808.97 325.147 3809.16 324.95 Q3809.36 324.753 3809.64 324.753 L3835.36 324.753 Q3833.82 323.72 3832.74 322.343 Q3831.02 320.162 3830.53 317.506 Q3830.53 317.49 3830.51 317.441 Q3830.49 317.375 3830.49 317.359 Q3830.49 317.08 3830.69 316.9 Q3830.89 316.703 3831.17 316.703 Q3831.41 316.703 3831.59 316.851 Q3831.77 316.998 3831.82 317.228 Q3832.25 319.507 3833.77 321.49 Q3835.92 324.163 3838.38 324.983 Z" fill="#000000" fill-rule="evenodd" fill-opacity="1"></path><path clip-path="url(#clip690)" d="M3851.54 333.82 Q3851.54 333.213 3851.58 333.033 Q3851.65 332.853 3851.91 332.574 L3858.36 325.393 Q3861.88 321.425 3861.88 317.965 Q3861.88 315.719 3860.7 314.112 Q3859.54 312.506 3857.39 312.506 Q3855.91 312.506 3854.67 313.407 Q3853.42 314.309 3852.85 315.916 Q3852.95 315.883 3853.29 315.883 Q3854.13 315.883 3854.58 316.408 Q3855.06 316.932 3855.06 317.638 Q3855.06 318.539 3854.47 318.982 Q3853.9 319.408 3853.32 319.408 Q3853.09 319.408 3852.78 319.359 Q3852.49 319.31 3852.01 318.851 Q3851.54 318.375 3851.54 317.539 Q3851.54 315.195 3853.31 313.325 Q3855.09 311.456 3857.81 311.456 Q3860.9 311.456 3862.91 313.293 Q3864.95 315.113 3864.95 317.965 Q3864.95 318.966 3864.64 319.884 Q3864.34 320.785 3863.93 321.49 Q3863.54 322.196 3862.45 323.327 Q3861.37 324.458 3860.5 325.262 Q3859.63 326.065 3857.68 327.77 L3854.13 331.23 L3860.18 331.23 Q3863.13 331.23 3863.36 330.967 Q3863.68 330.492 3864.09 327.983 L3864.95 327.983 L3864 333.82 L3851.54 333.82 Z" fill="#000000" fill-rule="evenodd" fill-opacity="1"></path><polyline clip-path="url(#clip690)" style="stroke:#e26f46; stroke-linecap:round; stroke-linejoin:round; stroke-width:4; stroke-opacity:1; fill:none" stroke-dasharray="16, 10" points="
  3605.98,372.316 3725.2,372.316 
  "></polyline>
<path clip-path="url(#clip690)" d="M3771.65 343.18 L3771.24 343.852 Q3768.7 342.754 3765.53 340.999 Q3762.37 342.754 3759.83 343.852 L3759.43 343.18 Q3762.21 340.77 3765.53 338.917 Q3768.9 340.786 3771.65 343.18 Z" fill="#000000" fill-rule="evenodd" fill-opacity="1"></path><path clip-path="url(#clip690)" d="M3778.23 361.73 Q3778.23 365.102 3777.01 368.452 Q3775.8 371.778 3773.76 374.471 Q3771.74 377.165 3769.12 379.25 Q3766.52 381.311 3763.73 382.365 Q3764.08 385.176 3764.79 386.23 Q3765.51 387.307 3767.13 387.307 Q3768.07 387.307 3769.07 386.885 Q3770.1 386.464 3771.16 385.363 Q3772.21 384.285 3772.75 382.693 Q3772.91 382.177 3773.34 382.177 Q3773.5 382.177 3773.66 382.318 Q3773.85 382.435 3773.85 382.646 Q3773.85 382.833 3773.64 383.513 Q3773.45 384.215 3773.05 385.293 Q3772.66 386.37 3771.98 387.494 Q3771.3 388.642 3770.45 389.649 Q3769.64 390.656 3768.42 391.289 Q3767.2 391.945 3765.84 391.945 Q3764.72 391.945 3763.9 391.523 Q3763.1 391.101 3762.7 390.563 Q3762.33 390.024 3762.12 389.157 Q3761.91 388.314 3761.88 387.846 Q3761.86 387.377 3761.86 386.675 Q3761.86 385.948 3762.05 382.974 Q3759.52 383.7 3757.36 383.7 Q3752.04 383.7 3748.55 380.21 Q3745.06 376.72 3745.06 370.888 Q3745.06 366.812 3746.89 362.76 Q3748.72 358.685 3751.62 355.663 Q3754.53 352.618 3758.35 350.721 Q3762.19 348.824 3765.98 348.824 Q3771.37 348.824 3774.79 352.408 Q3778.23 355.968 3778.23 361.73 M3773.99 360.207 Q3773.99 355.476 3771.67 352.759 Q3769.38 350.018 3765.7 350.018 Q3762.89 350.018 3759.77 351.822 Q3756.68 353.625 3754.18 357.115 Q3751.72 360.605 3750.5 364.985 Q3749.3 369.365 3749.3 372.434 Q3749.3 375.83 3750.64 378.383 Q3751.97 380.913 3754.67 381.967 Q3754.39 381.405 3754.39 380.444 Q3754.39 378.57 3755.89 377.071 Q3757.39 375.549 3759.28 375.549 Q3760.13 375.549 3760.78 375.807 Q3761.46 376.041 3761.88 376.533 Q3762.33 377.025 3762.61 377.493 Q3762.91 377.938 3763.08 378.664 Q3763.26 379.367 3763.33 379.742 Q3763.4 380.093 3763.5 380.725 Q3765.79 379.437 3767.67 377.329 Q3769.54 375.198 3770.69 372.949 Q3771.84 370.677 3772.61 368.218 Q3773.38 365.735 3773.69 363.767 Q3773.99 361.777 3773.99 360.207 M3762.19 380.678 Q3762.19 378.5 3761.48 377.563 Q3760.8 376.603 3759.28 376.603 Q3757.78 376.603 3756.61 377.797 Q3755.44 378.992 3755.44 380.444 Q3755.44 381.17 3755.65 381.639 Q3755.89 382.084 3756.31 382.271 Q3756.73 382.435 3756.99 382.482 Q3757.24 382.505 3757.64 382.505 Q3759.68 382.505 3761.67 381.639 Q3762.02 381.498 3762.09 381.358 Q3762.19 381.217 3762.19 380.678 Z" fill="#000000" fill-rule="evenodd" fill-opacity="1"></path><path clip-path="url(#clip690)" d="M3783.02 405.154 Q3783.02 404.547 3783.07 404.367 Q3783.14 404.186 3783.4 403.908 L3789.84 396.726 Q3793.37 392.759 3793.37 389.299 Q3793.37 387.053 3792.19 385.446 Q3791.02 383.839 3788.88 383.839 Q3787.4 383.839 3786.16 384.741 Q3784.91 385.643 3784.34 387.25 Q3784.43 387.217 3784.78 387.217 Q3785.61 387.217 3786.07 387.741 Q3786.55 388.266 3786.55 388.971 Q3786.55 389.873 3785.96 390.316 Q3785.38 390.742 3784.81 390.742 Q3784.58 390.742 3784.27 390.693 Q3783.97 390.644 3783.5 390.184 Q3783.02 389.709 3783.02 388.873 Q3783.02 386.528 3784.79 384.659 Q3786.58 382.79 3789.3 382.79 Q3792.39 382.79 3794.4 384.626 Q3796.44 386.446 3796.44 389.299 Q3796.44 390.299 3796.12 391.217 Q3795.83 392.119 3795.42 392.824 Q3795.03 393.529 3793.94 394.66 Q3792.86 395.792 3791.99 396.595 Q3791.12 397.399 3789.17 399.104 L3785.61 402.563 L3791.66 402.563 Q3794.62 402.563 3794.84 402.301 Q3795.17 401.825 3795.58 399.317 L3796.44 399.317 L3795.48 405.154 L3783.02 405.154 Z" fill="#000000" fill-rule="evenodd" fill-opacity="1"></path><path clip-path="url(#clip690)" d="M3838.38 396.316 Q3838.68 396.431 3838.68 396.759 Q3838.68 397.087 3838.38 397.202 Q3835.92 398.022 3833.77 400.694 Q3832.25 402.678 3831.82 404.957 Q3831.77 405.187 3831.59 405.334 Q3831.41 405.482 3831.17 405.482 Q3830.89 405.482 3830.69 405.285 Q3830.49 405.105 3830.49 404.826 Q3830.49 404.809 3830.51 404.76 Q3830.53 404.695 3830.53 404.678 Q3831.02 402.022 3832.74 399.842 Q3833.82 398.464 3835.36 397.431 L3809.64 397.431 Q3809.36 397.431 3809.16 397.235 Q3808.97 397.038 3808.97 396.759 Q3808.97 396.48 3809.16 396.284 Q3809.36 396.087 3809.64 396.087 L3835.36 396.087 Q3833.82 395.054 3832.74 393.677 Q3831.02 391.496 3830.53 388.84 Q3830.53 388.824 3830.51 388.774 Q3830.49 388.709 3830.49 388.692 Q3830.49 388.414 3830.69 388.233 Q3830.89 388.037 3831.17 388.037 Q3831.41 388.037 3831.59 388.184 Q3831.77 388.332 3831.82 388.561 Q3832.25 390.84 3833.77 392.824 Q3835.92 395.497 3838.38 396.316 Z" fill="#000000" fill-rule="evenodd" fill-opacity="1"></path><path clip-path="url(#clip690)" d="M3851.54 405.154 Q3851.54 404.547 3851.58 404.367 Q3851.65 404.186 3851.91 403.908 L3858.36 396.726 Q3861.88 392.759 3861.88 389.299 Q3861.88 387.053 3860.7 385.446 Q3859.54 383.839 3857.39 383.839 Q3855.91 383.839 3854.67 384.741 Q3853.42 385.643 3852.85 387.25 Q3852.95 387.217 3853.29 387.217 Q3854.13 387.217 3854.58 387.741 Q3855.06 388.266 3855.06 388.971 Q3855.06 389.873 3854.47 390.316 Q3853.9 390.742 3853.32 390.742 Q3853.09 390.742 3852.78 390.693 Q3852.49 390.644 3852.01 390.184 Q3851.54 389.709 3851.54 388.873 Q3851.54 386.528 3853.31 384.659 Q3855.09 382.79 3857.81 382.79 Q3860.9 382.79 3862.91 384.626 Q3864.95 386.446 3864.95 389.299 Q3864.95 390.299 3864.64 391.217 Q3864.34 392.119 3863.93 392.824 Q3863.54 393.529 3862.45 394.66 Q3861.37 395.792 3860.5 396.595 Q3859.63 397.399 3857.68 399.104 L3854.13 402.563 L3860.18 402.563 Q3863.13 402.563 3863.36 402.301 Q3863.68 401.825 3864.09 399.317 L3864.95 399.317 L3864 405.154 L3851.54 405.154 Z" fill="#000000" fill-rule="evenodd" fill-opacity="1"></path></svg>